G75*
%MOIN*%
%OFA0B0*%
%FSLAX25Y25*%
%IPPOS*%
%LPD*%
%AMOC8*
5,1,8,0,0,1.08239X$1,22.5*
%
%ADD10C,0.01600*%
%ADD11R,0.05118X0.06299*%
%ADD12C,0.05200*%
%ADD13R,0.06299X0.05118*%
%ADD14R,0.03937X0.05512*%
%ADD15R,0.08000X0.02600*%
%ADD16R,0.05118X0.05906*%
%ADD17R,0.05512X0.03937*%
%ADD18C,0.13843*%
%ADD19C,0.08858*%
%ADD20OC8,0.06200*%
%ADD21C,0.06200*%
%ADD22R,0.05906X0.05118*%
%ADD23C,0.23000*%
%ADD24OC8,0.05200*%
%ADD25C,0.10039*%
%ADD26OC8,0.06000*%
%ADD27C,0.02400*%
%ADD28R,0.03562X0.03562*%
%ADD29C,0.05600*%
D10*
X0002988Y0006924D02*
X0002988Y0486924D01*
X0002990Y0487063D01*
X0002996Y0487202D01*
X0003006Y0487341D01*
X0003019Y0487479D01*
X0003037Y0487617D01*
X0003058Y0487755D01*
X0003083Y0487892D01*
X0003112Y0488028D01*
X0003145Y0488163D01*
X0003182Y0488297D01*
X0003222Y0488431D01*
X0003266Y0488563D01*
X0003314Y0488693D01*
X0003366Y0488822D01*
X0003421Y0488950D01*
X0003479Y0489076D01*
X0003541Y0489201D01*
X0003607Y0489324D01*
X0003676Y0489445D01*
X0003748Y0489563D01*
X0003824Y0489680D01*
X0003903Y0489795D01*
X0003985Y0489907D01*
X0004070Y0490017D01*
X0004159Y0490125D01*
X0004250Y0490230D01*
X0004344Y0490332D01*
X0004441Y0490432D01*
X0004541Y0490529D01*
X0004643Y0490623D01*
X0004748Y0490714D01*
X0004856Y0490803D01*
X0004966Y0490888D01*
X0005078Y0490970D01*
X0005193Y0491049D01*
X0005310Y0491125D01*
X0005428Y0491197D01*
X0005549Y0491266D01*
X0005672Y0491332D01*
X0005797Y0491394D01*
X0005923Y0491452D01*
X0006051Y0491507D01*
X0006180Y0491559D01*
X0006310Y0491607D01*
X0006442Y0491651D01*
X0006576Y0491691D01*
X0006710Y0491728D01*
X0006845Y0491761D01*
X0006981Y0491790D01*
X0007118Y0491815D01*
X0007256Y0491836D01*
X0007394Y0491854D01*
X0007532Y0491867D01*
X0007671Y0491877D01*
X0007810Y0491883D01*
X0007949Y0491885D01*
X0007949Y0491884D02*
X0125488Y0491884D01*
X0125628Y0491882D01*
X0125768Y0491876D01*
X0125908Y0491866D01*
X0126048Y0491853D01*
X0126187Y0491835D01*
X0126326Y0491813D01*
X0126463Y0491788D01*
X0126601Y0491759D01*
X0126737Y0491726D01*
X0126872Y0491689D01*
X0127006Y0491648D01*
X0127139Y0491603D01*
X0127271Y0491555D01*
X0127401Y0491503D01*
X0127530Y0491448D01*
X0127657Y0491389D01*
X0127783Y0491326D01*
X0127907Y0491260D01*
X0128028Y0491191D01*
X0128148Y0491118D01*
X0128266Y0491041D01*
X0128381Y0490962D01*
X0128495Y0490879D01*
X0128605Y0490793D01*
X0128714Y0490704D01*
X0128820Y0490612D01*
X0128923Y0490517D01*
X0129024Y0490420D01*
X0129121Y0490319D01*
X0129216Y0490216D01*
X0129308Y0490110D01*
X0129397Y0490001D01*
X0129483Y0489891D01*
X0129566Y0489777D01*
X0129645Y0489662D01*
X0129722Y0489544D01*
X0129795Y0489424D01*
X0129864Y0489303D01*
X0129930Y0489179D01*
X0129993Y0489053D01*
X0130052Y0488926D01*
X0130107Y0488797D01*
X0130159Y0488667D01*
X0130207Y0488535D01*
X0130252Y0488402D01*
X0130293Y0488268D01*
X0130330Y0488133D01*
X0130363Y0487997D01*
X0130392Y0487859D01*
X0130417Y0487722D01*
X0130439Y0487583D01*
X0130457Y0487444D01*
X0130470Y0487304D01*
X0130480Y0487164D01*
X0130486Y0487024D01*
X0130488Y0486884D01*
X0130488Y0164424D01*
X0126221Y0155156D02*
X0112256Y0141192D01*
X0110488Y0136924D02*
X0110488Y0006924D01*
X0110486Y0006784D01*
X0110480Y0006644D01*
X0110470Y0006504D01*
X0110457Y0006364D01*
X0110439Y0006225D01*
X0110417Y0006086D01*
X0110392Y0005949D01*
X0110363Y0005811D01*
X0110330Y0005675D01*
X0110293Y0005540D01*
X0110252Y0005406D01*
X0110207Y0005273D01*
X0110159Y0005141D01*
X0110107Y0005011D01*
X0110052Y0004882D01*
X0109993Y0004755D01*
X0109930Y0004629D01*
X0109864Y0004505D01*
X0109795Y0004384D01*
X0109722Y0004264D01*
X0109645Y0004146D01*
X0109566Y0004031D01*
X0109483Y0003917D01*
X0109397Y0003807D01*
X0109308Y0003698D01*
X0109216Y0003592D01*
X0109121Y0003489D01*
X0109024Y0003388D01*
X0108923Y0003291D01*
X0108820Y0003196D01*
X0108714Y0003104D01*
X0108605Y0003015D01*
X0108495Y0002929D01*
X0108381Y0002846D01*
X0108266Y0002767D01*
X0108148Y0002690D01*
X0108028Y0002617D01*
X0107907Y0002548D01*
X0107783Y0002482D01*
X0107657Y0002419D01*
X0107530Y0002360D01*
X0107401Y0002305D01*
X0107271Y0002253D01*
X0107139Y0002205D01*
X0107006Y0002160D01*
X0106872Y0002119D01*
X0106737Y0002082D01*
X0106601Y0002049D01*
X0106463Y0002020D01*
X0106326Y0001995D01*
X0106187Y0001973D01*
X0106048Y0001955D01*
X0105908Y0001942D01*
X0105768Y0001932D01*
X0105628Y0001926D01*
X0105488Y0001924D01*
X0010488Y0001924D01*
X0010332Y0001895D01*
X0010175Y0001869D01*
X0010017Y0001848D01*
X0009860Y0001830D01*
X0009701Y0001817D01*
X0009543Y0001807D01*
X0009384Y0001802D01*
X0009225Y0001800D01*
X0009066Y0001802D01*
X0008907Y0001809D01*
X0008749Y0001819D01*
X0008590Y0001833D01*
X0008432Y0001851D01*
X0008275Y0001873D01*
X0008118Y0001899D01*
X0007962Y0001929D01*
X0007807Y0001963D01*
X0007652Y0002000D01*
X0007499Y0002042D01*
X0007347Y0002087D01*
X0007195Y0002136D01*
X0007046Y0002189D01*
X0006897Y0002245D01*
X0006750Y0002306D01*
X0006604Y0002370D01*
X0006461Y0002437D01*
X0006318Y0002508D01*
X0006178Y0002583D01*
X0006040Y0002661D01*
X0005903Y0002742D01*
X0005769Y0002827D01*
X0005637Y0002915D01*
X0005507Y0003006D01*
X0005379Y0003101D01*
X0005254Y0003199D01*
X0005131Y0003300D01*
X0005011Y0003404D01*
X0004893Y0003511D01*
X0004778Y0003620D01*
X0004666Y0003733D01*
X0004557Y0003848D01*
X0004450Y0003966D01*
X0004347Y0004087D01*
X0004246Y0004210D01*
X0004149Y0004336D01*
X0004055Y0004464D01*
X0003964Y0004594D01*
X0003877Y0004727D01*
X0003792Y0004862D01*
X0003711Y0004998D01*
X0003634Y0005137D01*
X0003560Y0005278D01*
X0003490Y0005420D01*
X0003423Y0005564D01*
X0003359Y0005710D01*
X0003300Y0005858D01*
X0003244Y0006006D01*
X0003192Y0006156D01*
X0003143Y0006308D01*
X0003099Y0006460D01*
X0003058Y0006614D01*
X0003021Y0006769D01*
X0002988Y0006924D01*
X0091158Y0225664D02*
X0092988Y0224995D01*
X0130488Y0164424D02*
X0130472Y0164107D01*
X0130448Y0163791D01*
X0130417Y0163475D01*
X0130378Y0163160D01*
X0130332Y0162846D01*
X0130279Y0162534D01*
X0130218Y0162222D01*
X0130149Y0161913D01*
X0130073Y0161605D01*
X0129990Y0161298D01*
X0129900Y0160994D01*
X0129802Y0160692D01*
X0129698Y0160393D01*
X0129586Y0160096D01*
X0129467Y0159802D01*
X0129341Y0159510D01*
X0129209Y0159222D01*
X0129069Y0158937D01*
X0128923Y0158656D01*
X0128770Y0158378D01*
X0128610Y0158104D01*
X0128444Y0157833D01*
X0128272Y0157567D01*
X0128093Y0157305D01*
X0127909Y0157047D01*
X0127718Y0156793D01*
X0127521Y0156545D01*
X0127318Y0156301D01*
X0127109Y0156061D01*
X0126895Y0155827D01*
X0126676Y0155598D01*
X0126451Y0155375D01*
X0126220Y0155157D01*
X0112256Y0141192D02*
X0112149Y0141083D01*
X0112045Y0140970D01*
X0111944Y0140856D01*
X0111846Y0140738D01*
X0111751Y0140619D01*
X0111659Y0140497D01*
X0111570Y0140372D01*
X0111484Y0140246D01*
X0111402Y0140117D01*
X0111322Y0139986D01*
X0111246Y0139853D01*
X0111174Y0139719D01*
X0111105Y0139582D01*
X0111039Y0139444D01*
X0110977Y0139304D01*
X0110919Y0139163D01*
X0110864Y0139020D01*
X0110812Y0138876D01*
X0110765Y0138731D01*
X0110721Y0138584D01*
X0110681Y0138437D01*
X0110644Y0138288D01*
X0110612Y0138139D01*
X0110583Y0137989D01*
X0110558Y0137838D01*
X0110536Y0137687D01*
X0110519Y0137535D01*
X0110505Y0137382D01*
X0110496Y0137230D01*
X0110490Y0137077D01*
X0110488Y0136924D01*
X0100488Y0138754D02*
X0099819Y0144424D01*
X0089228Y0321924D02*
X0090488Y0323164D01*
X0090488Y0331924D02*
X0088388Y0331924D01*
X0088388Y0351924D02*
X0085488Y0351924D01*
X0085488Y0391924D02*
X0088388Y0391924D01*
X0083658Y0426924D02*
X0082988Y0427593D01*
X0112588Y0391924D02*
X0116953Y0391924D01*
X0112988Y0362324D02*
X0112588Y0361924D01*
X0112588Y0356924D02*
X0115488Y0356924D01*
D11*
X0101728Y0424424D03*
X0101728Y0436924D03*
X0094248Y0436924D03*
X0094248Y0424424D03*
X0081728Y0374424D03*
X0074248Y0374424D03*
X0081748Y0321924D03*
X0089228Y0321924D03*
X0091728Y0281924D03*
X0091728Y0271924D03*
X0084248Y0271924D03*
X0084248Y0281924D03*
X0071728Y0294424D03*
X0064248Y0294424D03*
X0064248Y0216924D03*
X0071728Y0216924D03*
X0084248Y0204424D03*
X0084248Y0194424D03*
X0091728Y0194424D03*
X0091728Y0204424D03*
X0071728Y0139424D03*
X0064248Y0139424D03*
X0084248Y0126924D03*
X0084248Y0116924D03*
X0091728Y0116924D03*
X0091728Y0126924D03*
X0071728Y0061924D03*
X0064248Y0061924D03*
X0084248Y0049424D03*
X0084248Y0039424D03*
X0091728Y0039424D03*
X0091728Y0049424D03*
X0024228Y0319424D03*
X0016748Y0319424D03*
X0019248Y0436924D03*
X0026728Y0436924D03*
D12*
X0025488Y0422024D02*
X0025488Y0416824D01*
X0017988Y0416824D02*
X0017988Y0422024D01*
X0017988Y0392024D02*
X0017988Y0386824D01*
X0017988Y0379524D02*
X0017988Y0374324D01*
X0025488Y0374324D02*
X0025488Y0379524D01*
X0025488Y0386824D02*
X0025488Y0392024D01*
X0025488Y0349524D02*
X0025488Y0344324D01*
X0017988Y0344324D02*
X0017988Y0349524D01*
X0052888Y0444424D02*
X0058088Y0444424D01*
X0082888Y0444424D02*
X0088088Y0444424D01*
D13*
X0025488Y0338164D03*
X0025488Y0330684D03*
X0012988Y0330684D03*
X0012988Y0338164D03*
D14*
X0039248Y0375093D03*
X0042988Y0383754D03*
X0046728Y0375093D03*
X0056748Y0375093D03*
X0060488Y0383754D03*
X0064228Y0375093D03*
X0082988Y0427593D03*
X0079248Y0436254D03*
X0086728Y0436254D03*
D15*
X0088388Y0416924D03*
X0088388Y0411924D03*
X0088388Y0406924D03*
X0088388Y0401924D03*
X0088388Y0396924D03*
X0088388Y0391924D03*
X0088388Y0386924D03*
X0088388Y0361924D03*
X0088388Y0356924D03*
X0088388Y0351924D03*
X0088388Y0346924D03*
X0088388Y0341924D03*
X0088388Y0336924D03*
X0088388Y0331924D03*
X0112588Y0331924D03*
X0112588Y0336924D03*
X0112588Y0341924D03*
X0112588Y0346924D03*
X0112588Y0351924D03*
X0112588Y0356924D03*
X0112588Y0361924D03*
X0112588Y0386924D03*
X0112588Y0391924D03*
X0112588Y0396924D03*
X0112588Y0401924D03*
X0112588Y0406924D03*
X0112588Y0411924D03*
X0112588Y0416924D03*
D16*
X0114248Y0424424D03*
X0121728Y0424424D03*
X0026728Y0429424D03*
X0019248Y0429424D03*
D17*
X0091158Y0303164D03*
X0091158Y0295684D03*
X0099819Y0299424D03*
X0091158Y0225664D03*
X0091158Y0218184D03*
X0099819Y0221924D03*
X0091158Y0148164D03*
X0091158Y0140684D03*
X0099819Y0144424D03*
X0091158Y0070664D03*
X0091158Y0063184D03*
X0099819Y0066924D03*
D18*
X0055488Y0050684D03*
X0055488Y0016432D03*
X0036984Y0027062D03*
X0055488Y0093203D03*
X0055488Y0127455D03*
X0055488Y0169975D03*
X0055488Y0204227D03*
X0055488Y0246747D03*
X0055488Y0280999D03*
X0055488Y0323518D03*
X0055488Y0357770D03*
X0055488Y0400290D03*
X0055488Y0434542D03*
X0036984Y0410920D03*
X0036984Y0334148D03*
X0036984Y0257377D03*
X0036984Y0180605D03*
X0036984Y0103833D03*
D19*
X0073992Y0103833D03*
X0073992Y0027062D03*
X0073992Y0180605D03*
X0073992Y0257377D03*
X0073992Y0334148D03*
X0073992Y0410920D03*
D20*
X0120488Y0441924D03*
D21*
X0110488Y0441924D03*
D22*
X0112988Y0375664D03*
X0112988Y0368184D03*
D23*
X0020488Y0221924D03*
X0020488Y0069424D03*
D24*
X0022988Y0106195D03*
X0012988Y0106195D03*
X0012988Y0182967D03*
X0022988Y0182967D03*
X0022988Y0259739D03*
X0012988Y0259739D03*
X0012988Y0029424D03*
X0022988Y0029424D03*
D25*
X0017969Y0291628D02*
X0028008Y0291628D01*
X0028008Y0307219D02*
X0017969Y0307219D01*
X0017969Y0451333D02*
X0028008Y0451333D01*
X0028008Y0466924D02*
X0017969Y0466924D01*
X0017969Y0482514D02*
X0028008Y0482514D01*
D26*
X0062988Y0476924D03*
X0062988Y0466924D03*
X0072988Y0466924D03*
X0072988Y0476924D03*
X0082988Y0476924D03*
X0082988Y0466924D03*
X0092988Y0466924D03*
X0092988Y0476924D03*
X0102988Y0476924D03*
X0102988Y0466924D03*
D27*
X0102988Y0463995D01*
X0102988Y0466924D02*
X0102988Y0476924D01*
X0102986Y0477105D01*
X0102979Y0477286D01*
X0102968Y0477467D01*
X0102953Y0477648D01*
X0102933Y0477828D01*
X0102909Y0478008D01*
X0102881Y0478187D01*
X0102848Y0478365D01*
X0102811Y0478542D01*
X0102770Y0478719D01*
X0102725Y0478894D01*
X0102675Y0479069D01*
X0102621Y0479242D01*
X0102563Y0479413D01*
X0102501Y0479584D01*
X0102434Y0479752D01*
X0102364Y0479919D01*
X0102290Y0480085D01*
X0102211Y0480248D01*
X0102129Y0480409D01*
X0102043Y0480569D01*
X0101953Y0480726D01*
X0101859Y0480881D01*
X0101762Y0481034D01*
X0101660Y0481184D01*
X0101556Y0481332D01*
X0101447Y0481478D01*
X0101336Y0481620D01*
X0101220Y0481760D01*
X0101102Y0481897D01*
X0100980Y0482032D01*
X0100855Y0482163D01*
X0100727Y0482291D01*
X0100596Y0482416D01*
X0100461Y0482538D01*
X0100324Y0482656D01*
X0100184Y0482772D01*
X0100042Y0482883D01*
X0099896Y0482992D01*
X0099748Y0483096D01*
X0099598Y0483198D01*
X0099445Y0483295D01*
X0099290Y0483389D01*
X0099133Y0483479D01*
X0098973Y0483565D01*
X0098812Y0483647D01*
X0098649Y0483726D01*
X0098483Y0483800D01*
X0098316Y0483870D01*
X0098148Y0483937D01*
X0097977Y0483999D01*
X0097806Y0484057D01*
X0097633Y0484111D01*
X0097458Y0484161D01*
X0097283Y0484206D01*
X0097106Y0484247D01*
X0096929Y0484284D01*
X0096751Y0484317D01*
X0096572Y0484345D01*
X0096392Y0484369D01*
X0096212Y0484389D01*
X0096031Y0484404D01*
X0095850Y0484415D01*
X0095669Y0484422D01*
X0095488Y0484424D01*
X0027398Y0484424D01*
X0025488Y0482514D01*
X0022988Y0482514D01*
X0022988Y0466924D02*
X0015488Y0466924D01*
X0015307Y0466922D01*
X0015126Y0466915D01*
X0014945Y0466904D01*
X0014764Y0466889D01*
X0014584Y0466869D01*
X0014404Y0466845D01*
X0014225Y0466817D01*
X0014047Y0466784D01*
X0013870Y0466747D01*
X0013693Y0466706D01*
X0013518Y0466661D01*
X0013343Y0466611D01*
X0013170Y0466557D01*
X0012999Y0466499D01*
X0012828Y0466437D01*
X0012660Y0466370D01*
X0012493Y0466300D01*
X0012327Y0466226D01*
X0012164Y0466147D01*
X0012003Y0466065D01*
X0011843Y0465979D01*
X0011686Y0465889D01*
X0011531Y0465795D01*
X0011378Y0465698D01*
X0011228Y0465596D01*
X0011080Y0465492D01*
X0010934Y0465383D01*
X0010792Y0465272D01*
X0010652Y0465156D01*
X0010515Y0465038D01*
X0010380Y0464916D01*
X0010249Y0464791D01*
X0010121Y0464663D01*
X0009996Y0464532D01*
X0009874Y0464397D01*
X0009756Y0464260D01*
X0009640Y0464120D01*
X0009529Y0463978D01*
X0009420Y0463832D01*
X0009316Y0463684D01*
X0009214Y0463534D01*
X0009117Y0463381D01*
X0009023Y0463226D01*
X0008933Y0463069D01*
X0008847Y0462909D01*
X0008765Y0462748D01*
X0008686Y0462585D01*
X0008612Y0462419D01*
X0008542Y0462252D01*
X0008475Y0462084D01*
X0008413Y0461913D01*
X0008355Y0461742D01*
X0008301Y0461569D01*
X0008251Y0461394D01*
X0008206Y0461219D01*
X0008165Y0461042D01*
X0008128Y0460865D01*
X0008095Y0460687D01*
X0008067Y0460508D01*
X0008043Y0460328D01*
X0008023Y0460148D01*
X0008008Y0459967D01*
X0007997Y0459786D01*
X0007990Y0459605D01*
X0007988Y0459424D01*
X0007988Y0444424D01*
X0007990Y0444243D01*
X0007997Y0444062D01*
X0008008Y0443881D01*
X0008023Y0443700D01*
X0008043Y0443520D01*
X0008067Y0443340D01*
X0008095Y0443161D01*
X0008128Y0442983D01*
X0008165Y0442806D01*
X0008206Y0442629D01*
X0008251Y0442454D01*
X0008301Y0442279D01*
X0008355Y0442106D01*
X0008413Y0441935D01*
X0008475Y0441764D01*
X0008542Y0441596D01*
X0008612Y0441429D01*
X0008686Y0441263D01*
X0008765Y0441100D01*
X0008847Y0440939D01*
X0008933Y0440779D01*
X0009023Y0440622D01*
X0009117Y0440467D01*
X0009214Y0440314D01*
X0009316Y0440164D01*
X0009420Y0440016D01*
X0009529Y0439870D01*
X0009640Y0439728D01*
X0009756Y0439588D01*
X0009874Y0439451D01*
X0009996Y0439316D01*
X0010121Y0439185D01*
X0010249Y0439057D01*
X0010380Y0438932D01*
X0010515Y0438810D01*
X0010652Y0438692D01*
X0010792Y0438576D01*
X0010934Y0438465D01*
X0011080Y0438356D01*
X0011228Y0438252D01*
X0011378Y0438150D01*
X0011531Y0438053D01*
X0011686Y0437959D01*
X0011843Y0437869D01*
X0012003Y0437783D01*
X0012164Y0437701D01*
X0012327Y0437622D01*
X0012493Y0437548D01*
X0012660Y0437478D01*
X0012828Y0437411D01*
X0012999Y0437349D01*
X0013170Y0437291D01*
X0013343Y0437237D01*
X0013518Y0437187D01*
X0013693Y0437142D01*
X0013870Y0437101D01*
X0014047Y0437064D01*
X0014225Y0437031D01*
X0014404Y0437003D01*
X0014584Y0436979D01*
X0014764Y0436959D01*
X0014945Y0436944D01*
X0015126Y0436933D01*
X0015307Y0436926D01*
X0015488Y0436924D01*
X0019248Y0436924D01*
X0019248Y0429424D02*
X0019248Y0428184D01*
X0017988Y0426924D01*
X0017988Y0419424D01*
X0015488Y0419424D01*
X0014024Y0417959D01*
X0016748Y0420664D02*
X0017988Y0419424D01*
X0014024Y0417959D02*
X0013817Y0417747D01*
X0013615Y0417530D01*
X0013419Y0417308D01*
X0013228Y0417082D01*
X0013043Y0416850D01*
X0012863Y0416615D01*
X0012690Y0416375D01*
X0012522Y0416130D01*
X0012361Y0415882D01*
X0012205Y0415630D01*
X0012056Y0415374D01*
X0011913Y0415114D01*
X0011777Y0414851D01*
X0011647Y0414585D01*
X0011524Y0414316D01*
X0011407Y0414043D01*
X0011297Y0413768D01*
X0011194Y0413491D01*
X0011097Y0413210D01*
X0011008Y0412928D01*
X0010925Y0412643D01*
X0010850Y0412357D01*
X0010781Y0412069D01*
X0010720Y0411779D01*
X0010666Y0411488D01*
X0010619Y0411195D01*
X0010579Y0410902D01*
X0010546Y0410607D01*
X0010521Y0410312D01*
X0010503Y0410016D01*
X0010492Y0409720D01*
X0010488Y0409424D01*
X0010488Y0341699D01*
X0012988Y0330684D02*
X0016748Y0330684D01*
X0024407Y0338342D01*
X0025488Y0336924D01*
X0025488Y0338164D01*
X0025488Y0346924D01*
X0025488Y0338164D02*
X0026748Y0336924D01*
X0025488Y0336924D01*
X0025488Y0330684D02*
X0033520Y0330684D01*
X0036984Y0334148D01*
X0036984Y0358465D01*
X0040488Y0366924D02*
X0046728Y0373164D01*
X0046728Y0375093D01*
X0051453Y0380389D02*
X0051257Y0380580D01*
X0051057Y0380766D01*
X0050852Y0380948D01*
X0050643Y0381124D01*
X0050431Y0381296D01*
X0050213Y0381463D01*
X0049993Y0381624D01*
X0049768Y0381780D01*
X0049540Y0381931D01*
X0049308Y0382076D01*
X0049072Y0382215D01*
X0048834Y0382349D01*
X0048592Y0382477D01*
X0048348Y0382600D01*
X0048100Y0382716D01*
X0047850Y0382827D01*
X0047598Y0382932D01*
X0047342Y0383030D01*
X0047085Y0383123D01*
X0046825Y0383209D01*
X0046564Y0383289D01*
X0046301Y0383363D01*
X0046036Y0383431D01*
X0045769Y0383492D01*
X0045501Y0383547D01*
X0045232Y0383596D01*
X0044962Y0383638D01*
X0044690Y0383674D01*
X0044418Y0383703D01*
X0044146Y0383726D01*
X0043873Y0383742D01*
X0043600Y0383752D01*
X0043326Y0383755D01*
X0043326Y0383754D02*
X0042988Y0383754D01*
X0037417Y0376924D02*
X0039248Y0375093D01*
X0037417Y0376924D02*
X0025488Y0376924D01*
X0010488Y0341699D02*
X0010522Y0341555D01*
X0010561Y0341412D01*
X0010603Y0341270D01*
X0010649Y0341129D01*
X0010698Y0340989D01*
X0010751Y0340851D01*
X0010808Y0340714D01*
X0010868Y0340579D01*
X0010932Y0340445D01*
X0010999Y0340313D01*
X0011070Y0340183D01*
X0011144Y0340055D01*
X0011222Y0339929D01*
X0011302Y0339804D01*
X0011386Y0339682D01*
X0011473Y0339563D01*
X0011564Y0339445D01*
X0011657Y0339330D01*
X0011753Y0339217D01*
X0011852Y0339107D01*
X0011954Y0339000D01*
X0012059Y0338895D01*
X0012166Y0338793D01*
X0012276Y0338694D01*
X0012389Y0338598D01*
X0012504Y0338505D01*
X0012622Y0338415D01*
X0012742Y0338328D01*
X0012864Y0338244D01*
X0012988Y0338163D01*
X0016748Y0319424D02*
X0017988Y0318184D01*
X0017988Y0309424D01*
X0020193Y0307219D01*
X0022988Y0307219D01*
X0025311Y0291924D02*
X0025924Y0292003D01*
X0026536Y0292097D01*
X0027145Y0292205D01*
X0027752Y0292328D01*
X0028355Y0292465D01*
X0028955Y0292616D01*
X0029551Y0292782D01*
X0030143Y0292961D01*
X0030731Y0293155D01*
X0031313Y0293363D01*
X0031891Y0293585D01*
X0032463Y0293820D01*
X0033030Y0294069D01*
X0033590Y0294331D01*
X0034144Y0294606D01*
X0034691Y0294895D01*
X0035232Y0295197D01*
X0035765Y0295511D01*
X0036290Y0295838D01*
X0036807Y0296177D01*
X0037316Y0296529D01*
X0037817Y0296892D01*
X0038309Y0297267D01*
X0038792Y0297654D01*
X0039265Y0298053D01*
X0039729Y0298462D01*
X0040183Y0298883D01*
X0040627Y0299314D01*
X0041060Y0299755D01*
X0041483Y0300207D01*
X0041895Y0300668D01*
X0042296Y0301140D01*
X0042685Y0301621D01*
X0042685Y0289120D02*
X0013303Y0259739D01*
X0012988Y0259739D01*
X0022988Y0291628D02*
X0023284Y0291924D01*
X0025311Y0291924D01*
X0024228Y0319424D02*
X0030488Y0319424D01*
X0036985Y0358465D02*
X0036988Y0358750D01*
X0036999Y0359034D01*
X0037015Y0359318D01*
X0037039Y0359602D01*
X0037070Y0359885D01*
X0037107Y0360168D01*
X0037151Y0360449D01*
X0037201Y0360729D01*
X0037258Y0361008D01*
X0037322Y0361285D01*
X0037393Y0361561D01*
X0037470Y0361835D01*
X0037553Y0362108D01*
X0037643Y0362378D01*
X0037739Y0362646D01*
X0037842Y0362911D01*
X0037951Y0363174D01*
X0038066Y0363435D01*
X0038187Y0363692D01*
X0038315Y0363947D01*
X0038448Y0364198D01*
X0038588Y0364447D01*
X0038733Y0364691D01*
X0038884Y0364933D01*
X0039041Y0365170D01*
X0039203Y0365404D01*
X0039371Y0365634D01*
X0039544Y0365860D01*
X0039723Y0366082D01*
X0039907Y0366299D01*
X0040096Y0366512D01*
X0040290Y0366720D01*
X0040489Y0366924D01*
X0051453Y0380388D02*
X0056748Y0375093D01*
X0056748Y0373164D01*
X0068721Y0361192D01*
X0070488Y0356924D02*
X0070488Y0351924D01*
X0065488Y0339853D02*
X0065488Y0332959D01*
X0067988Y0326924D02*
X0069453Y0325459D01*
X0067988Y0326923D02*
X0067842Y0327073D01*
X0067699Y0327227D01*
X0067560Y0327384D01*
X0067426Y0327544D01*
X0067295Y0327707D01*
X0067168Y0327874D01*
X0067045Y0328044D01*
X0066927Y0328217D01*
X0066812Y0328392D01*
X0066702Y0328571D01*
X0066597Y0328752D01*
X0066496Y0328935D01*
X0066399Y0329121D01*
X0066308Y0329309D01*
X0066220Y0329500D01*
X0066138Y0329692D01*
X0066060Y0329887D01*
X0065987Y0330083D01*
X0065919Y0330281D01*
X0065856Y0330481D01*
X0065797Y0330682D01*
X0065744Y0330885D01*
X0065695Y0331089D01*
X0065652Y0331294D01*
X0065614Y0331500D01*
X0065580Y0331707D01*
X0065552Y0331914D01*
X0065529Y0332122D01*
X0065511Y0332331D01*
X0065498Y0332540D01*
X0065491Y0332750D01*
X0065488Y0332959D01*
X0068721Y0347656D02*
X0068828Y0347765D01*
X0068932Y0347878D01*
X0069033Y0347992D01*
X0069131Y0348110D01*
X0069226Y0348229D01*
X0069318Y0348351D01*
X0069407Y0348476D01*
X0069493Y0348602D01*
X0069575Y0348731D01*
X0069655Y0348862D01*
X0069731Y0348995D01*
X0069803Y0349129D01*
X0069872Y0349266D01*
X0069938Y0349404D01*
X0070000Y0349544D01*
X0070058Y0349685D01*
X0070113Y0349828D01*
X0070165Y0349972D01*
X0070212Y0350117D01*
X0070256Y0350264D01*
X0070296Y0350411D01*
X0070333Y0350560D01*
X0070365Y0350709D01*
X0070394Y0350859D01*
X0070419Y0351010D01*
X0070441Y0351161D01*
X0070458Y0351313D01*
X0070472Y0351466D01*
X0070481Y0351618D01*
X0070487Y0351771D01*
X0070489Y0351924D01*
X0071953Y0365459D02*
X0064228Y0373184D01*
X0064228Y0375093D01*
X0072988Y0379424D02*
X0072986Y0379564D01*
X0072980Y0379704D01*
X0072970Y0379844D01*
X0072957Y0379984D01*
X0072939Y0380123D01*
X0072917Y0380262D01*
X0072892Y0380399D01*
X0072863Y0380537D01*
X0072830Y0380673D01*
X0072793Y0380808D01*
X0072752Y0380942D01*
X0072707Y0381075D01*
X0072659Y0381207D01*
X0072607Y0381337D01*
X0072552Y0381466D01*
X0072493Y0381593D01*
X0072430Y0381719D01*
X0072364Y0381843D01*
X0072295Y0381964D01*
X0072222Y0382084D01*
X0072145Y0382202D01*
X0072066Y0382317D01*
X0071983Y0382431D01*
X0071897Y0382541D01*
X0071808Y0382650D01*
X0071716Y0382756D01*
X0071621Y0382859D01*
X0071524Y0382960D01*
X0071423Y0383057D01*
X0071320Y0383152D01*
X0071214Y0383244D01*
X0071105Y0383333D01*
X0070995Y0383419D01*
X0070881Y0383502D01*
X0070766Y0383581D01*
X0070648Y0383658D01*
X0070528Y0383731D01*
X0070407Y0383800D01*
X0070283Y0383866D01*
X0070157Y0383929D01*
X0070030Y0383988D01*
X0069901Y0384043D01*
X0069771Y0384095D01*
X0069639Y0384143D01*
X0069506Y0384188D01*
X0069372Y0384229D01*
X0069237Y0384266D01*
X0069101Y0384299D01*
X0068963Y0384328D01*
X0068826Y0384353D01*
X0068687Y0384375D01*
X0068548Y0384393D01*
X0068408Y0384406D01*
X0068268Y0384416D01*
X0068128Y0384422D01*
X0067988Y0384424D01*
X0065488Y0384424D01*
X0076221Y0392656D01*
X0080488Y0399424D02*
X0080488Y0406924D01*
X0080490Y0407064D01*
X0080496Y0407204D01*
X0080506Y0407344D01*
X0080519Y0407484D01*
X0080537Y0407623D01*
X0080559Y0407762D01*
X0080584Y0407899D01*
X0080613Y0408037D01*
X0080646Y0408173D01*
X0080683Y0408308D01*
X0080724Y0408442D01*
X0080769Y0408575D01*
X0080817Y0408707D01*
X0080869Y0408837D01*
X0080924Y0408966D01*
X0080983Y0409093D01*
X0081046Y0409219D01*
X0081112Y0409343D01*
X0081181Y0409464D01*
X0081254Y0409584D01*
X0081331Y0409702D01*
X0081410Y0409817D01*
X0081493Y0409931D01*
X0081579Y0410041D01*
X0081668Y0410150D01*
X0081760Y0410256D01*
X0081855Y0410359D01*
X0081952Y0410460D01*
X0082053Y0410557D01*
X0082156Y0410652D01*
X0082262Y0410744D01*
X0082371Y0410833D01*
X0082481Y0410919D01*
X0082595Y0411002D01*
X0082710Y0411081D01*
X0082828Y0411158D01*
X0082948Y0411231D01*
X0083069Y0411300D01*
X0083193Y0411366D01*
X0083319Y0411429D01*
X0083446Y0411488D01*
X0083575Y0411543D01*
X0083705Y0411595D01*
X0083837Y0411643D01*
X0083970Y0411688D01*
X0084104Y0411729D01*
X0084239Y0411766D01*
X0084375Y0411799D01*
X0084513Y0411828D01*
X0084650Y0411853D01*
X0084789Y0411875D01*
X0084928Y0411893D01*
X0085068Y0411906D01*
X0085208Y0411916D01*
X0085348Y0411922D01*
X0085488Y0411924D01*
X0088388Y0411924D01*
X0088388Y0416924D02*
X0088349Y0416926D01*
X0088310Y0416932D01*
X0088272Y0416941D01*
X0088235Y0416954D01*
X0088199Y0416971D01*
X0088166Y0416991D01*
X0088134Y0417015D01*
X0088105Y0417041D01*
X0088079Y0417070D01*
X0088055Y0417102D01*
X0088035Y0417135D01*
X0088018Y0417171D01*
X0088005Y0417208D01*
X0087996Y0417246D01*
X0087990Y0417285D01*
X0087988Y0417324D01*
X0087988Y0421924D01*
X0087990Y0422022D01*
X0087996Y0422120D01*
X0088005Y0422218D01*
X0088019Y0422315D01*
X0088036Y0422412D01*
X0088057Y0422508D01*
X0088082Y0422603D01*
X0088110Y0422697D01*
X0088143Y0422789D01*
X0088178Y0422881D01*
X0088218Y0422971D01*
X0088260Y0423059D01*
X0088307Y0423146D01*
X0088356Y0423230D01*
X0088409Y0423313D01*
X0088465Y0423393D01*
X0088525Y0423472D01*
X0088587Y0423548D01*
X0088652Y0423621D01*
X0088720Y0423692D01*
X0088791Y0423760D01*
X0088864Y0423825D01*
X0088940Y0423887D01*
X0089019Y0423947D01*
X0089099Y0424003D01*
X0089182Y0424056D01*
X0089266Y0424105D01*
X0089353Y0424152D01*
X0089441Y0424194D01*
X0089531Y0424234D01*
X0089623Y0424269D01*
X0089715Y0424302D01*
X0089809Y0424330D01*
X0089904Y0424355D01*
X0090000Y0424376D01*
X0090097Y0424393D01*
X0090194Y0424407D01*
X0090292Y0424416D01*
X0090390Y0424422D01*
X0090488Y0424424D01*
X0094248Y0424424D01*
X0093579Y0436254D02*
X0086728Y0436254D01*
X0085488Y0444424D02*
X0097988Y0444424D01*
X0098108Y0444422D01*
X0098228Y0444416D01*
X0098347Y0444407D01*
X0098466Y0444393D01*
X0098585Y0444376D01*
X0098703Y0444355D01*
X0098820Y0444330D01*
X0098937Y0444302D01*
X0099052Y0444269D01*
X0099167Y0444233D01*
X0099280Y0444194D01*
X0099391Y0444151D01*
X0099502Y0444104D01*
X0099611Y0444054D01*
X0099718Y0444000D01*
X0099823Y0443943D01*
X0099927Y0443882D01*
X0100028Y0443818D01*
X0100128Y0443751D01*
X0100225Y0443681D01*
X0100320Y0443608D01*
X0100412Y0443532D01*
X0100502Y0443453D01*
X0100590Y0443371D01*
X0100675Y0443286D01*
X0100757Y0443198D01*
X0100836Y0443108D01*
X0100912Y0443016D01*
X0100985Y0442921D01*
X0101055Y0442824D01*
X0101122Y0442724D01*
X0101186Y0442623D01*
X0101247Y0442519D01*
X0101304Y0442414D01*
X0101358Y0442307D01*
X0101408Y0442198D01*
X0101455Y0442087D01*
X0101498Y0441976D01*
X0101537Y0441863D01*
X0101573Y0441748D01*
X0101606Y0441633D01*
X0101634Y0441516D01*
X0101659Y0441399D01*
X0101680Y0441281D01*
X0101697Y0441162D01*
X0101711Y0441043D01*
X0101720Y0440924D01*
X0101726Y0440804D01*
X0101728Y0440684D01*
X0101728Y0436924D01*
X0110488Y0449424D02*
X0110455Y0449646D01*
X0110416Y0449867D01*
X0110372Y0450087D01*
X0110322Y0450305D01*
X0110267Y0450523D01*
X0110207Y0450739D01*
X0110141Y0450953D01*
X0110070Y0451166D01*
X0109994Y0451377D01*
X0109913Y0451586D01*
X0109827Y0451793D01*
X0109735Y0451998D01*
X0109639Y0452201D01*
X0109538Y0452401D01*
X0109432Y0452598D01*
X0109321Y0452793D01*
X0109205Y0452985D01*
X0109084Y0453175D01*
X0108959Y0453361D01*
X0108830Y0453544D01*
X0108696Y0453724D01*
X0108558Y0453900D01*
X0108415Y0454073D01*
X0108268Y0454243D01*
X0108117Y0454409D01*
X0107962Y0454571D01*
X0107803Y0454729D01*
X0107640Y0454883D01*
X0107474Y0455034D01*
X0107303Y0455180D01*
X0107130Y0455322D01*
X0106953Y0455459D01*
X0110488Y0449424D02*
X0110488Y0441924D01*
X0110488Y0428184D01*
X0110486Y0428063D01*
X0110480Y0427943D01*
X0110471Y0427823D01*
X0110457Y0427703D01*
X0110440Y0427584D01*
X0110419Y0427465D01*
X0110394Y0427347D01*
X0110365Y0427230D01*
X0110333Y0427114D01*
X0110296Y0426999D01*
X0110257Y0426885D01*
X0110213Y0426773D01*
X0110166Y0426662D01*
X0110116Y0426553D01*
X0110062Y0426445D01*
X0110004Y0426339D01*
X0109943Y0426235D01*
X0109879Y0426133D01*
X0109812Y0426033D01*
X0109741Y0425935D01*
X0109668Y0425840D01*
X0109591Y0425747D01*
X0109511Y0425656D01*
X0109429Y0425568D01*
X0109344Y0425483D01*
X0109256Y0425401D01*
X0109165Y0425321D01*
X0109072Y0425244D01*
X0108977Y0425171D01*
X0108879Y0425100D01*
X0108779Y0425033D01*
X0108677Y0424969D01*
X0108573Y0424908D01*
X0108467Y0424850D01*
X0108359Y0424796D01*
X0108250Y0424746D01*
X0108139Y0424699D01*
X0108027Y0424655D01*
X0107913Y0424616D01*
X0107798Y0424579D01*
X0107682Y0424547D01*
X0107565Y0424518D01*
X0107447Y0424493D01*
X0107328Y0424472D01*
X0107209Y0424455D01*
X0107089Y0424441D01*
X0106969Y0424432D01*
X0106849Y0424426D01*
X0106728Y0424424D01*
X0101728Y0424424D01*
X0105488Y0401924D02*
X0112588Y0401924D01*
X0112588Y0406924D02*
X0120488Y0406924D01*
X0121728Y0424424D02*
X0121728Y0440684D01*
X0121726Y0440754D01*
X0121720Y0440823D01*
X0121710Y0440892D01*
X0121697Y0440960D01*
X0121680Y0441027D01*
X0121658Y0441094D01*
X0121634Y0441159D01*
X0121605Y0441222D01*
X0121573Y0441284D01*
X0121538Y0441344D01*
X0121499Y0441402D01*
X0121457Y0441457D01*
X0121413Y0441510D01*
X0121365Y0441561D01*
X0121314Y0441609D01*
X0121261Y0441653D01*
X0121206Y0441695D01*
X0121148Y0441734D01*
X0121088Y0441769D01*
X0121026Y0441801D01*
X0120963Y0441830D01*
X0120898Y0441854D01*
X0120831Y0441876D01*
X0120764Y0441893D01*
X0120696Y0441906D01*
X0120627Y0441916D01*
X0120558Y0441922D01*
X0120488Y0441924D01*
X0110488Y0428184D02*
X0110490Y0428063D01*
X0110496Y0427943D01*
X0110505Y0427823D01*
X0110519Y0427703D01*
X0110536Y0427584D01*
X0110557Y0427465D01*
X0110582Y0427347D01*
X0110611Y0427230D01*
X0110643Y0427114D01*
X0110680Y0426999D01*
X0110719Y0426885D01*
X0110763Y0426773D01*
X0110810Y0426662D01*
X0110860Y0426553D01*
X0110914Y0426445D01*
X0110972Y0426339D01*
X0111033Y0426235D01*
X0111097Y0426133D01*
X0111164Y0426033D01*
X0111235Y0425935D01*
X0111308Y0425840D01*
X0111385Y0425747D01*
X0111465Y0425656D01*
X0111547Y0425568D01*
X0111632Y0425483D01*
X0111720Y0425401D01*
X0111811Y0425321D01*
X0111904Y0425244D01*
X0111999Y0425171D01*
X0112097Y0425100D01*
X0112197Y0425033D01*
X0112299Y0424969D01*
X0112403Y0424908D01*
X0112509Y0424850D01*
X0112617Y0424796D01*
X0112726Y0424746D01*
X0112837Y0424699D01*
X0112949Y0424655D01*
X0113063Y0424616D01*
X0113178Y0424579D01*
X0113294Y0424547D01*
X0113411Y0424518D01*
X0113529Y0424493D01*
X0113648Y0424472D01*
X0113767Y0424455D01*
X0113887Y0424441D01*
X0114007Y0424432D01*
X0114127Y0424426D01*
X0114248Y0424424D01*
X0114248Y0418584D01*
X0114246Y0418505D01*
X0114240Y0418426D01*
X0114231Y0418348D01*
X0114218Y0418270D01*
X0114201Y0418193D01*
X0114181Y0418116D01*
X0114157Y0418041D01*
X0114129Y0417967D01*
X0114098Y0417894D01*
X0114063Y0417823D01*
X0114026Y0417754D01*
X0113984Y0417687D01*
X0113940Y0417621D01*
X0113893Y0417558D01*
X0113843Y0417497D01*
X0113789Y0417438D01*
X0113734Y0417383D01*
X0113675Y0417329D01*
X0113614Y0417279D01*
X0113551Y0417232D01*
X0113485Y0417188D01*
X0113418Y0417146D01*
X0113349Y0417109D01*
X0113278Y0417074D01*
X0113205Y0417043D01*
X0113131Y0417015D01*
X0113056Y0416991D01*
X0112979Y0416971D01*
X0112902Y0416954D01*
X0112824Y0416941D01*
X0112746Y0416932D01*
X0112667Y0416926D01*
X0112588Y0416924D01*
X0110488Y0416924D01*
X0112588Y0416924D02*
X0114453Y0416924D01*
X0105488Y0401924D02*
X0105348Y0401922D01*
X0105208Y0401916D01*
X0105068Y0401906D01*
X0104928Y0401893D01*
X0104789Y0401875D01*
X0104650Y0401853D01*
X0104513Y0401828D01*
X0104375Y0401799D01*
X0104239Y0401766D01*
X0104104Y0401729D01*
X0103970Y0401688D01*
X0103837Y0401643D01*
X0103705Y0401595D01*
X0103575Y0401543D01*
X0103446Y0401488D01*
X0103319Y0401429D01*
X0103193Y0401366D01*
X0103069Y0401300D01*
X0102948Y0401231D01*
X0102828Y0401158D01*
X0102710Y0401081D01*
X0102595Y0401002D01*
X0102481Y0400919D01*
X0102371Y0400833D01*
X0102262Y0400744D01*
X0102156Y0400652D01*
X0102053Y0400557D01*
X0101952Y0400460D01*
X0101855Y0400359D01*
X0101760Y0400256D01*
X0101668Y0400150D01*
X0101579Y0400041D01*
X0101493Y0399931D01*
X0101410Y0399817D01*
X0101331Y0399702D01*
X0101254Y0399584D01*
X0101181Y0399464D01*
X0101112Y0399343D01*
X0101046Y0399219D01*
X0100983Y0399093D01*
X0100924Y0398966D01*
X0100869Y0398837D01*
X0100817Y0398707D01*
X0100769Y0398575D01*
X0100724Y0398442D01*
X0100683Y0398308D01*
X0100646Y0398173D01*
X0100613Y0398037D01*
X0100584Y0397899D01*
X0100559Y0397762D01*
X0100537Y0397623D01*
X0100519Y0397484D01*
X0100506Y0397344D01*
X0100496Y0397204D01*
X0100490Y0397064D01*
X0100488Y0396924D01*
X0100488Y0351924D01*
X0102256Y0347656D02*
X0102327Y0347588D01*
X0102400Y0347523D01*
X0102476Y0347461D01*
X0102555Y0347401D01*
X0102635Y0347345D01*
X0102718Y0347292D01*
X0102802Y0347243D01*
X0102889Y0347196D01*
X0102977Y0347154D01*
X0103067Y0347114D01*
X0103159Y0347079D01*
X0103251Y0347046D01*
X0103345Y0347018D01*
X0103440Y0346993D01*
X0103536Y0346972D01*
X0103633Y0346955D01*
X0103730Y0346941D01*
X0103828Y0346932D01*
X0103926Y0346926D01*
X0104024Y0346924D01*
X0112588Y0346924D01*
X0112588Y0351924D02*
X0120488Y0351924D01*
X0120488Y0360459D02*
X0120488Y0389424D01*
X0120444Y0389526D01*
X0120396Y0389627D01*
X0120345Y0389726D01*
X0120290Y0389823D01*
X0120232Y0389918D01*
X0120171Y0390012D01*
X0120107Y0390103D01*
X0120039Y0390192D01*
X0119969Y0390278D01*
X0119896Y0390362D01*
X0119820Y0390444D01*
X0119741Y0390523D01*
X0119659Y0390599D01*
X0119575Y0390672D01*
X0119489Y0390742D01*
X0119400Y0390810D01*
X0119309Y0390874D01*
X0119215Y0390935D01*
X0119120Y0390993D01*
X0119023Y0391048D01*
X0118924Y0391099D01*
X0118823Y0391147D01*
X0118721Y0391191D01*
X0118721Y0391192D02*
X0118650Y0391260D01*
X0118577Y0391325D01*
X0118501Y0391387D01*
X0118422Y0391447D01*
X0118342Y0391503D01*
X0118259Y0391556D01*
X0118175Y0391605D01*
X0118088Y0391652D01*
X0118000Y0391694D01*
X0117910Y0391734D01*
X0117818Y0391769D01*
X0117726Y0391802D01*
X0117632Y0391830D01*
X0117537Y0391855D01*
X0117441Y0391876D01*
X0117344Y0391893D01*
X0117247Y0391907D01*
X0117149Y0391916D01*
X0117051Y0391922D01*
X0116953Y0391924D01*
X0112988Y0381924D02*
X0112988Y0375664D01*
X0111728Y0368184D02*
X0111572Y0368186D01*
X0111417Y0368192D01*
X0111262Y0368201D01*
X0111107Y0368215D01*
X0110952Y0368232D01*
X0110798Y0368254D01*
X0110644Y0368279D01*
X0110492Y0368308D01*
X0110339Y0368340D01*
X0110188Y0368377D01*
X0110038Y0368417D01*
X0109889Y0368461D01*
X0109741Y0368509D01*
X0109594Y0368560D01*
X0109448Y0368615D01*
X0109304Y0368674D01*
X0109162Y0368736D01*
X0109021Y0368802D01*
X0108881Y0368871D01*
X0108744Y0368944D01*
X0108608Y0369020D01*
X0108474Y0369099D01*
X0108343Y0369182D01*
X0108213Y0369268D01*
X0108085Y0369358D01*
X0107960Y0369450D01*
X0107837Y0369545D01*
X0107717Y0369644D01*
X0107599Y0369745D01*
X0107484Y0369850D01*
X0107371Y0369957D01*
X0107261Y0370067D01*
X0107154Y0370180D01*
X0107049Y0370295D01*
X0106948Y0370413D01*
X0106849Y0370533D01*
X0106754Y0370656D01*
X0106662Y0370781D01*
X0106572Y0370909D01*
X0106486Y0371039D01*
X0106403Y0371170D01*
X0106324Y0371304D01*
X0106248Y0371440D01*
X0106175Y0371577D01*
X0106106Y0371717D01*
X0106040Y0371858D01*
X0105978Y0372000D01*
X0105919Y0372144D01*
X0105864Y0372290D01*
X0105813Y0372437D01*
X0105765Y0372585D01*
X0105721Y0372734D01*
X0105681Y0372884D01*
X0105644Y0373035D01*
X0105612Y0373188D01*
X0105583Y0373340D01*
X0105558Y0373494D01*
X0105536Y0373648D01*
X0105519Y0373803D01*
X0105505Y0373958D01*
X0105496Y0374113D01*
X0105490Y0374268D01*
X0105488Y0374424D01*
X0111728Y0368184D02*
X0112988Y0368184D01*
X0112988Y0362324D01*
X0115488Y0356923D02*
X0115641Y0356925D01*
X0115794Y0356931D01*
X0115946Y0356940D01*
X0116099Y0356954D01*
X0116251Y0356971D01*
X0116402Y0356993D01*
X0116553Y0357018D01*
X0116703Y0357047D01*
X0116852Y0357079D01*
X0117001Y0357116D01*
X0117148Y0357156D01*
X0117295Y0357200D01*
X0117440Y0357247D01*
X0117584Y0357299D01*
X0117727Y0357354D01*
X0117868Y0357412D01*
X0118008Y0357474D01*
X0118146Y0357540D01*
X0118283Y0357609D01*
X0118417Y0357681D01*
X0118550Y0357757D01*
X0118681Y0357837D01*
X0118810Y0357919D01*
X0118936Y0358005D01*
X0119061Y0358094D01*
X0119183Y0358186D01*
X0119302Y0358281D01*
X0119420Y0358379D01*
X0119534Y0358480D01*
X0119647Y0358584D01*
X0119756Y0358691D01*
X0119824Y0358762D01*
X0119889Y0358835D01*
X0119951Y0358911D01*
X0120011Y0358990D01*
X0120067Y0359070D01*
X0120120Y0359153D01*
X0120169Y0359237D01*
X0120216Y0359324D01*
X0120258Y0359412D01*
X0120298Y0359502D01*
X0120333Y0359594D01*
X0120366Y0359686D01*
X0120394Y0359780D01*
X0120419Y0359875D01*
X0120440Y0359971D01*
X0120457Y0360068D01*
X0120471Y0360165D01*
X0120480Y0360263D01*
X0120486Y0360361D01*
X0120488Y0360459D01*
X0115488Y0341924D02*
X0112588Y0341924D01*
X0112588Y0336924D02*
X0105488Y0336924D01*
X0102256Y0347656D02*
X0102149Y0347765D01*
X0102045Y0347878D01*
X0101944Y0347992D01*
X0101846Y0348110D01*
X0101751Y0348229D01*
X0101659Y0348351D01*
X0101570Y0348476D01*
X0101484Y0348602D01*
X0101402Y0348731D01*
X0101322Y0348862D01*
X0101246Y0348995D01*
X0101174Y0349129D01*
X0101105Y0349266D01*
X0101039Y0349404D01*
X0100977Y0349544D01*
X0100919Y0349685D01*
X0100864Y0349828D01*
X0100812Y0349972D01*
X0100765Y0350117D01*
X0100721Y0350264D01*
X0100681Y0350411D01*
X0100644Y0350560D01*
X0100612Y0350709D01*
X0100583Y0350859D01*
X0100558Y0351010D01*
X0100536Y0351161D01*
X0100519Y0351313D01*
X0100505Y0351466D01*
X0100496Y0351618D01*
X0100490Y0351771D01*
X0100488Y0351924D01*
X0095488Y0356924D02*
X0095488Y0341924D01*
X0095488Y0336924D01*
X0095488Y0341924D02*
X0088388Y0341924D01*
X0088388Y0346924D02*
X0080488Y0346924D01*
X0068720Y0347657D02*
X0068537Y0347469D01*
X0068358Y0347276D01*
X0068184Y0347080D01*
X0068014Y0346880D01*
X0067849Y0346675D01*
X0067689Y0346467D01*
X0067534Y0346255D01*
X0067385Y0346039D01*
X0067240Y0345820D01*
X0067101Y0345597D01*
X0066967Y0345371D01*
X0066838Y0345142D01*
X0066715Y0344910D01*
X0066597Y0344675D01*
X0066485Y0344438D01*
X0066379Y0344197D01*
X0066279Y0343955D01*
X0066184Y0343710D01*
X0066095Y0343463D01*
X0066012Y0343213D01*
X0065935Y0342962D01*
X0065864Y0342709D01*
X0065799Y0342455D01*
X0065740Y0342199D01*
X0065687Y0341942D01*
X0065641Y0341683D01*
X0065600Y0341424D01*
X0065566Y0341163D01*
X0065538Y0340902D01*
X0065516Y0340640D01*
X0065501Y0340378D01*
X0065491Y0340116D01*
X0065488Y0339853D01*
X0070489Y0356924D02*
X0070487Y0357077D01*
X0070481Y0357230D01*
X0070472Y0357382D01*
X0070458Y0357535D01*
X0070441Y0357687D01*
X0070419Y0357838D01*
X0070394Y0357989D01*
X0070365Y0358139D01*
X0070333Y0358288D01*
X0070296Y0358437D01*
X0070256Y0358584D01*
X0070212Y0358731D01*
X0070165Y0358876D01*
X0070113Y0359020D01*
X0070058Y0359163D01*
X0070000Y0359304D01*
X0069938Y0359444D01*
X0069872Y0359582D01*
X0069803Y0359719D01*
X0069731Y0359853D01*
X0069655Y0359986D01*
X0069575Y0360117D01*
X0069493Y0360246D01*
X0069407Y0360372D01*
X0069318Y0360497D01*
X0069226Y0360619D01*
X0069131Y0360738D01*
X0069033Y0360856D01*
X0068932Y0360970D01*
X0068828Y0361083D01*
X0068721Y0361192D01*
X0072988Y0375684D02*
X0072988Y0379424D01*
X0072988Y0375684D02*
X0072990Y0375616D01*
X0072995Y0375548D01*
X0073005Y0375480D01*
X0073017Y0375413D01*
X0073034Y0375347D01*
X0073054Y0375282D01*
X0073077Y0375218D01*
X0073104Y0375155D01*
X0073135Y0375094D01*
X0073168Y0375034D01*
X0073205Y0374977D01*
X0073245Y0374921D01*
X0073288Y0374868D01*
X0073333Y0374817D01*
X0073381Y0374769D01*
X0073432Y0374724D01*
X0073485Y0374681D01*
X0073541Y0374641D01*
X0073598Y0374604D01*
X0073658Y0374571D01*
X0073719Y0374540D01*
X0073782Y0374513D01*
X0073846Y0374490D01*
X0073911Y0374470D01*
X0073977Y0374453D01*
X0074044Y0374441D01*
X0074112Y0374431D01*
X0074180Y0374426D01*
X0074248Y0374424D01*
X0071953Y0365460D02*
X0072165Y0365253D01*
X0072382Y0365051D01*
X0072604Y0364855D01*
X0072830Y0364664D01*
X0073062Y0364479D01*
X0073297Y0364299D01*
X0073537Y0364126D01*
X0073782Y0363958D01*
X0074030Y0363797D01*
X0074282Y0363641D01*
X0074538Y0363492D01*
X0074798Y0363349D01*
X0075061Y0363213D01*
X0075327Y0363083D01*
X0075596Y0362960D01*
X0075869Y0362843D01*
X0076144Y0362733D01*
X0076421Y0362630D01*
X0076702Y0362533D01*
X0076984Y0362444D01*
X0077269Y0362361D01*
X0077555Y0362286D01*
X0077843Y0362217D01*
X0078133Y0362156D01*
X0078424Y0362102D01*
X0078717Y0362055D01*
X0079010Y0362015D01*
X0079305Y0361982D01*
X0079600Y0361957D01*
X0079896Y0361939D01*
X0080192Y0361928D01*
X0080488Y0361924D01*
X0088388Y0361924D01*
X0092988Y0361924D01*
X0093721Y0361192D01*
X0095488Y0374424D02*
X0081728Y0374424D01*
X0080488Y0386924D02*
X0080490Y0387064D01*
X0080496Y0387204D01*
X0080506Y0387344D01*
X0080519Y0387484D01*
X0080537Y0387623D01*
X0080559Y0387762D01*
X0080584Y0387899D01*
X0080613Y0388037D01*
X0080646Y0388173D01*
X0080683Y0388308D01*
X0080724Y0388442D01*
X0080769Y0388575D01*
X0080817Y0388707D01*
X0080869Y0388837D01*
X0080924Y0388966D01*
X0080983Y0389093D01*
X0081046Y0389219D01*
X0081112Y0389343D01*
X0081181Y0389464D01*
X0081254Y0389584D01*
X0081331Y0389702D01*
X0081410Y0389817D01*
X0081493Y0389931D01*
X0081579Y0390041D01*
X0081668Y0390150D01*
X0081760Y0390256D01*
X0081855Y0390359D01*
X0081952Y0390460D01*
X0082053Y0390557D01*
X0082156Y0390652D01*
X0082262Y0390744D01*
X0082371Y0390833D01*
X0082481Y0390919D01*
X0082595Y0391002D01*
X0082710Y0391081D01*
X0082828Y0391158D01*
X0082948Y0391231D01*
X0083069Y0391300D01*
X0083193Y0391366D01*
X0083319Y0391429D01*
X0083446Y0391488D01*
X0083575Y0391543D01*
X0083705Y0391595D01*
X0083837Y0391643D01*
X0083970Y0391688D01*
X0084104Y0391729D01*
X0084239Y0391766D01*
X0084375Y0391799D01*
X0084513Y0391828D01*
X0084650Y0391853D01*
X0084789Y0391875D01*
X0084928Y0391893D01*
X0085068Y0391906D01*
X0085208Y0391916D01*
X0085348Y0391922D01*
X0085488Y0391924D01*
X0088388Y0386924D02*
X0095488Y0386924D01*
X0093721Y0361192D02*
X0093828Y0361083D01*
X0093932Y0360970D01*
X0094033Y0360856D01*
X0094131Y0360738D01*
X0094226Y0360619D01*
X0094318Y0360497D01*
X0094407Y0360372D01*
X0094493Y0360246D01*
X0094575Y0360117D01*
X0094655Y0359986D01*
X0094731Y0359853D01*
X0094803Y0359719D01*
X0094872Y0359582D01*
X0094938Y0359444D01*
X0095000Y0359304D01*
X0095058Y0359163D01*
X0095113Y0359020D01*
X0095165Y0358876D01*
X0095212Y0358731D01*
X0095256Y0358584D01*
X0095296Y0358437D01*
X0095333Y0358288D01*
X0095365Y0358139D01*
X0095394Y0357989D01*
X0095419Y0357838D01*
X0095441Y0357687D01*
X0095458Y0357535D01*
X0095472Y0357382D01*
X0095481Y0357230D01*
X0095487Y0357077D01*
X0095489Y0356924D01*
X0095489Y0336924D02*
X0095487Y0336771D01*
X0095481Y0336618D01*
X0095472Y0336466D01*
X0095458Y0336313D01*
X0095441Y0336161D01*
X0095419Y0336010D01*
X0095394Y0335859D01*
X0095365Y0335709D01*
X0095333Y0335560D01*
X0095296Y0335411D01*
X0095256Y0335264D01*
X0095212Y0335117D01*
X0095165Y0334972D01*
X0095113Y0334828D01*
X0095058Y0334685D01*
X0095000Y0334544D01*
X0094938Y0334404D01*
X0094872Y0334266D01*
X0094803Y0334129D01*
X0094731Y0333995D01*
X0094655Y0333862D01*
X0094575Y0333731D01*
X0094493Y0333602D01*
X0094407Y0333476D01*
X0094318Y0333351D01*
X0094226Y0333229D01*
X0094131Y0333110D01*
X0094033Y0332992D01*
X0093932Y0332878D01*
X0093828Y0332765D01*
X0093721Y0332656D01*
X0091953Y0331924D02*
X0088388Y0331924D01*
X0076217Y0331924D01*
X0073992Y0334148D01*
X0069453Y0325460D02*
X0069665Y0325253D01*
X0069882Y0325051D01*
X0070104Y0324855D01*
X0070330Y0324664D01*
X0070562Y0324479D01*
X0070797Y0324299D01*
X0071037Y0324126D01*
X0071282Y0323958D01*
X0071530Y0323797D01*
X0071782Y0323641D01*
X0072038Y0323492D01*
X0072298Y0323349D01*
X0072561Y0323213D01*
X0072827Y0323083D01*
X0073096Y0322960D01*
X0073369Y0322843D01*
X0073644Y0322733D01*
X0073921Y0322630D01*
X0074202Y0322533D01*
X0074484Y0322444D01*
X0074769Y0322361D01*
X0075055Y0322286D01*
X0075343Y0322217D01*
X0075633Y0322156D01*
X0075924Y0322102D01*
X0076217Y0322055D01*
X0076510Y0322015D01*
X0076805Y0321982D01*
X0077100Y0321957D01*
X0077396Y0321939D01*
X0077692Y0321928D01*
X0077988Y0321924D01*
X0081748Y0321924D01*
X0095488Y0314424D02*
X0095444Y0314239D01*
X0095395Y0314055D01*
X0095342Y0313872D01*
X0095285Y0313690D01*
X0095223Y0313510D01*
X0095157Y0313332D01*
X0095087Y0313155D01*
X0095013Y0312979D01*
X0094934Y0312806D01*
X0094852Y0312634D01*
X0094765Y0312465D01*
X0094674Y0312297D01*
X0094579Y0312132D01*
X0094481Y0311969D01*
X0094379Y0311809D01*
X0094272Y0311651D01*
X0094162Y0311495D01*
X0094049Y0311342D01*
X0093932Y0311192D01*
X0093811Y0311045D01*
X0093687Y0310901D01*
X0093559Y0310759D01*
X0093428Y0310621D01*
X0093294Y0310486D01*
X0093156Y0310354D01*
X0093016Y0310226D01*
X0092872Y0310101D01*
X0092726Y0309979D01*
X0092577Y0309861D01*
X0092425Y0309746D01*
X0092270Y0309635D01*
X0092113Y0309528D01*
X0091953Y0309424D01*
X0055488Y0309424D01*
X0055488Y0294424D02*
X0064248Y0294424D01*
X0055488Y0309423D02*
X0055014Y0309343D01*
X0054542Y0309252D01*
X0054073Y0309149D01*
X0053606Y0309034D01*
X0053142Y0308908D01*
X0052681Y0308771D01*
X0052224Y0308622D01*
X0051770Y0308463D01*
X0051321Y0308292D01*
X0050876Y0308110D01*
X0050435Y0307917D01*
X0049999Y0307714D01*
X0049569Y0307500D01*
X0049144Y0307275D01*
X0048724Y0307040D01*
X0048311Y0306795D01*
X0047903Y0306540D01*
X0047502Y0306275D01*
X0047108Y0306000D01*
X0046720Y0305715D01*
X0046340Y0305421D01*
X0045967Y0305118D01*
X0045601Y0304806D01*
X0045243Y0304485D01*
X0044893Y0304155D01*
X0044552Y0303816D01*
X0044218Y0303470D01*
X0043894Y0303115D01*
X0043578Y0302753D01*
X0043271Y0302382D01*
X0042974Y0302005D01*
X0042685Y0301620D01*
X0042684Y0289121D02*
X0042993Y0289422D01*
X0043308Y0289715D01*
X0043630Y0290001D01*
X0043959Y0290280D01*
X0044295Y0290550D01*
X0044637Y0290812D01*
X0044985Y0291067D01*
X0045339Y0291312D01*
X0045699Y0291550D01*
X0046064Y0291778D01*
X0046435Y0291998D01*
X0046810Y0292209D01*
X0047191Y0292411D01*
X0047576Y0292604D01*
X0047966Y0292788D01*
X0048360Y0292962D01*
X0048758Y0293127D01*
X0049160Y0293282D01*
X0049566Y0293428D01*
X0049975Y0293564D01*
X0050387Y0293691D01*
X0050802Y0293807D01*
X0051219Y0293914D01*
X0051639Y0294010D01*
X0052061Y0294097D01*
X0052485Y0294173D01*
X0052911Y0294240D01*
X0053338Y0294296D01*
X0053767Y0294342D01*
X0054196Y0294378D01*
X0054626Y0294403D01*
X0055057Y0294419D01*
X0055488Y0294424D01*
X0056414Y0281924D02*
X0084248Y0281924D01*
X0084248Y0271924D01*
X0091728Y0268164D02*
X0091755Y0267922D01*
X0091777Y0267680D01*
X0091792Y0267437D01*
X0091802Y0267194D01*
X0091806Y0266951D01*
X0091804Y0266707D01*
X0091796Y0266464D01*
X0091782Y0266221D01*
X0091762Y0265979D01*
X0091737Y0265737D01*
X0091706Y0265496D01*
X0091668Y0265255D01*
X0091625Y0265016D01*
X0091577Y0264777D01*
X0091522Y0264540D01*
X0091462Y0264304D01*
X0091396Y0264070D01*
X0091325Y0263838D01*
X0091247Y0263607D01*
X0091165Y0263378D01*
X0091077Y0263151D01*
X0090983Y0262927D01*
X0090884Y0262705D01*
X0090779Y0262485D01*
X0090670Y0262268D01*
X0090555Y0262053D01*
X0090435Y0261842D01*
X0090310Y0261633D01*
X0090180Y0261427D01*
X0090045Y0261225D01*
X0089905Y0261026D01*
X0089760Y0260830D01*
X0089611Y0260638D01*
X0089457Y0260450D01*
X0089298Y0260265D01*
X0089135Y0260084D01*
X0088968Y0259908D01*
X0088797Y0259735D01*
X0088621Y0259567D01*
X0088442Y0259402D01*
X0088258Y0259243D01*
X0088071Y0259087D01*
X0087880Y0258937D01*
X0087685Y0258790D01*
X0087487Y0258649D01*
X0087286Y0258513D01*
X0087081Y0258381D01*
X0086874Y0258254D01*
X0086663Y0258133D01*
X0086449Y0258016D01*
X0086233Y0257905D01*
X0086014Y0257799D01*
X0085792Y0257698D01*
X0085569Y0257603D01*
X0085342Y0257513D01*
X0085114Y0257429D01*
X0084884Y0257350D01*
X0084652Y0257277D01*
X0084418Y0257209D01*
X0084183Y0257147D01*
X0083946Y0257091D01*
X0083708Y0257041D01*
X0083469Y0256996D01*
X0083229Y0256957D01*
X0082988Y0256924D01*
X0074445Y0256924D01*
X0074403Y0256926D01*
X0074362Y0256932D01*
X0074321Y0256941D01*
X0074281Y0256955D01*
X0074243Y0256971D01*
X0074207Y0256992D01*
X0074172Y0257015D01*
X0074140Y0257042D01*
X0074110Y0257072D01*
X0074083Y0257104D01*
X0074060Y0257139D01*
X0074039Y0257175D01*
X0074023Y0257213D01*
X0074009Y0257253D01*
X0074000Y0257294D01*
X0073994Y0257335D01*
X0073992Y0257377D01*
X0095488Y0254424D02*
X0095871Y0254961D01*
X0096240Y0255507D01*
X0096597Y0256062D01*
X0096940Y0256625D01*
X0097270Y0257196D01*
X0097586Y0257775D01*
X0097888Y0258361D01*
X0098176Y0258954D01*
X0098450Y0259554D01*
X0098710Y0260160D01*
X0098955Y0260772D01*
X0099185Y0261390D01*
X0099401Y0262013D01*
X0099602Y0262641D01*
X0099787Y0263273D01*
X0099958Y0263910D01*
X0100114Y0264551D01*
X0100254Y0265195D01*
X0100379Y0265843D01*
X0100488Y0266493D01*
X0100582Y0267146D01*
X0100660Y0267800D01*
X0100723Y0268457D01*
X0100770Y0269114D01*
X0100801Y0269773D01*
X0100817Y0270432D01*
X0100817Y0271092D01*
X0100801Y0271751D01*
X0100770Y0272409D01*
X0100723Y0273067D01*
X0100660Y0273723D01*
X0100582Y0274378D01*
X0100488Y0275031D01*
X0100488Y0275030D02*
X0100488Y0298754D01*
X0099819Y0299424D01*
X0095488Y0314424D02*
X0095488Y0316924D01*
X0091728Y0303164D02*
X0092219Y0303139D01*
X0092711Y0303127D01*
X0093203Y0303126D01*
X0093695Y0303138D01*
X0094187Y0303161D01*
X0094678Y0303197D01*
X0095167Y0303245D01*
X0095656Y0303305D01*
X0096143Y0303376D01*
X0096627Y0303460D01*
X0097110Y0303555D01*
X0097590Y0303663D01*
X0098068Y0303782D01*
X0098542Y0303913D01*
X0099013Y0304055D01*
X0099481Y0304209D01*
X0099944Y0304374D01*
X0100403Y0304551D01*
X0100858Y0304739D01*
X0101308Y0304938D01*
X0101753Y0305147D01*
X0102193Y0305368D01*
X0102627Y0305600D01*
X0103056Y0305842D01*
X0103478Y0306094D01*
X0103894Y0306357D01*
X0104303Y0306630D01*
X0104706Y0306913D01*
X0105101Y0307206D01*
X0105490Y0307508D01*
X0105870Y0307820D01*
X0106243Y0308141D01*
X0106608Y0308471D01*
X0106965Y0308810D01*
X0107313Y0309157D01*
X0107653Y0309514D01*
X0107984Y0309878D01*
X0108306Y0310250D01*
X0108618Y0310630D01*
X0108921Y0311018D01*
X0109215Y0311413D01*
X0109499Y0311815D01*
X0109772Y0312223D01*
X0110036Y0312639D01*
X0110289Y0313061D01*
X0110532Y0313489D01*
X0110765Y0313922D01*
X0110986Y0314362D01*
X0111197Y0314806D01*
X0111397Y0315256D01*
X0111586Y0315710D01*
X0111764Y0316169D01*
X0111930Y0316632D01*
X0112085Y0317099D01*
X0112228Y0317570D01*
X0112360Y0318044D01*
X0112480Y0318521D01*
X0112588Y0319001D01*
X0112684Y0319484D01*
X0112769Y0319969D01*
X0112842Y0320455D01*
X0112903Y0320944D01*
X0112951Y0321433D01*
X0112988Y0321924D01*
X0112988Y0331524D01*
X0112986Y0331563D01*
X0112980Y0331602D01*
X0112971Y0331640D01*
X0112958Y0331677D01*
X0112941Y0331713D01*
X0112921Y0331746D01*
X0112897Y0331778D01*
X0112871Y0331807D01*
X0112842Y0331833D01*
X0112810Y0331857D01*
X0112777Y0331877D01*
X0112741Y0331894D01*
X0112704Y0331907D01*
X0112666Y0331916D01*
X0112627Y0331922D01*
X0112588Y0331924D01*
X0120488Y0336924D02*
X0120486Y0337064D01*
X0120480Y0337204D01*
X0120470Y0337344D01*
X0120457Y0337484D01*
X0120439Y0337623D01*
X0120417Y0337762D01*
X0120392Y0337899D01*
X0120363Y0338037D01*
X0120330Y0338173D01*
X0120293Y0338308D01*
X0120252Y0338442D01*
X0120207Y0338575D01*
X0120159Y0338707D01*
X0120107Y0338837D01*
X0120052Y0338966D01*
X0119993Y0339093D01*
X0119930Y0339219D01*
X0119864Y0339343D01*
X0119795Y0339464D01*
X0119722Y0339584D01*
X0119645Y0339702D01*
X0119566Y0339817D01*
X0119483Y0339931D01*
X0119397Y0340041D01*
X0119308Y0340150D01*
X0119216Y0340256D01*
X0119121Y0340359D01*
X0119024Y0340460D01*
X0118923Y0340557D01*
X0118820Y0340652D01*
X0118714Y0340744D01*
X0118605Y0340833D01*
X0118495Y0340919D01*
X0118381Y0341002D01*
X0118266Y0341081D01*
X0118148Y0341158D01*
X0118028Y0341231D01*
X0117907Y0341300D01*
X0117783Y0341366D01*
X0117657Y0341429D01*
X0117530Y0341488D01*
X0117401Y0341543D01*
X0117271Y0341595D01*
X0117139Y0341643D01*
X0117006Y0341688D01*
X0116872Y0341729D01*
X0116737Y0341766D01*
X0116601Y0341799D01*
X0116463Y0341828D01*
X0116326Y0341853D01*
X0116187Y0341875D01*
X0116048Y0341893D01*
X0115908Y0341906D01*
X0115768Y0341916D01*
X0115628Y0341922D01*
X0115488Y0341924D01*
X0120488Y0336924D02*
X0120488Y0261924D01*
X0116649Y0248085D02*
X0096120Y0227556D01*
X0096121Y0227556D02*
X0095984Y0227513D01*
X0095849Y0227466D01*
X0095715Y0227416D01*
X0095582Y0227361D01*
X0095451Y0227304D01*
X0095322Y0227243D01*
X0095194Y0227178D01*
X0095068Y0227110D01*
X0094944Y0227038D01*
X0094822Y0226964D01*
X0094702Y0226885D01*
X0094584Y0226804D01*
X0094469Y0226720D01*
X0094356Y0226632D01*
X0094245Y0226541D01*
X0094136Y0226448D01*
X0094031Y0226351D01*
X0093928Y0226252D01*
X0093827Y0226150D01*
X0093730Y0226045D01*
X0093635Y0225938D01*
X0093543Y0225828D01*
X0093454Y0225716D01*
X0093369Y0225601D01*
X0093286Y0225484D01*
X0093207Y0225365D01*
X0093131Y0225244D01*
X0093058Y0225120D01*
X0092989Y0224995D01*
X0091158Y0218184D02*
X0091728Y0217613D01*
X0091728Y0211924D01*
X0091728Y0212613D01*
X0091728Y0211924D02*
X0091728Y0204424D01*
X0091728Y0194424D02*
X0091728Y0188164D01*
X0091726Y0188008D01*
X0091720Y0187853D01*
X0091711Y0187698D01*
X0091697Y0187543D01*
X0091680Y0187388D01*
X0091658Y0187234D01*
X0091633Y0187080D01*
X0091604Y0186928D01*
X0091572Y0186775D01*
X0091535Y0186624D01*
X0091495Y0186474D01*
X0091451Y0186325D01*
X0091403Y0186177D01*
X0091352Y0186030D01*
X0091297Y0185884D01*
X0091238Y0185740D01*
X0091176Y0185598D01*
X0091110Y0185457D01*
X0091041Y0185317D01*
X0090968Y0185180D01*
X0090892Y0185044D01*
X0090813Y0184910D01*
X0090730Y0184779D01*
X0090644Y0184649D01*
X0090554Y0184521D01*
X0090462Y0184396D01*
X0090367Y0184273D01*
X0090268Y0184153D01*
X0090167Y0184035D01*
X0090062Y0183920D01*
X0089955Y0183807D01*
X0089845Y0183697D01*
X0089732Y0183590D01*
X0089617Y0183485D01*
X0089499Y0183384D01*
X0089379Y0183285D01*
X0089256Y0183190D01*
X0089131Y0183098D01*
X0089003Y0183008D01*
X0088873Y0182922D01*
X0088742Y0182839D01*
X0088608Y0182760D01*
X0088472Y0182684D01*
X0088335Y0182611D01*
X0088195Y0182542D01*
X0088054Y0182476D01*
X0087912Y0182414D01*
X0087768Y0182355D01*
X0087622Y0182300D01*
X0087475Y0182249D01*
X0087327Y0182201D01*
X0087178Y0182157D01*
X0087028Y0182117D01*
X0086877Y0182080D01*
X0086724Y0182048D01*
X0086572Y0182019D01*
X0086418Y0181994D01*
X0086264Y0181972D01*
X0086109Y0181955D01*
X0085954Y0181941D01*
X0085799Y0181932D01*
X0085644Y0181926D01*
X0085488Y0181924D01*
X0075311Y0181924D01*
X0075240Y0181922D01*
X0075168Y0181916D01*
X0075098Y0181907D01*
X0075027Y0181893D01*
X0074958Y0181876D01*
X0074890Y0181855D01*
X0074823Y0181830D01*
X0074757Y0181802D01*
X0074693Y0181770D01*
X0074631Y0181735D01*
X0074571Y0181697D01*
X0074513Y0181655D01*
X0074457Y0181610D01*
X0074404Y0181563D01*
X0074353Y0181512D01*
X0074306Y0181459D01*
X0074261Y0181403D01*
X0074219Y0181345D01*
X0074181Y0181285D01*
X0074146Y0181223D01*
X0074114Y0181159D01*
X0074086Y0181093D01*
X0074061Y0181026D01*
X0074040Y0180958D01*
X0074023Y0180889D01*
X0074009Y0180818D01*
X0074000Y0180748D01*
X0073994Y0180676D01*
X0073992Y0180605D01*
X0095489Y0179424D02*
X0095842Y0179889D01*
X0096185Y0180362D01*
X0096516Y0180843D01*
X0096835Y0181332D01*
X0097143Y0181829D01*
X0097439Y0182332D01*
X0097723Y0182843D01*
X0097995Y0183360D01*
X0098254Y0183883D01*
X0098500Y0184413D01*
X0098734Y0184948D01*
X0098956Y0185489D01*
X0099164Y0186034D01*
X0099359Y0186585D01*
X0099541Y0187140D01*
X0099710Y0187699D01*
X0099866Y0188262D01*
X0100008Y0188829D01*
X0100136Y0189398D01*
X0100251Y0189971D01*
X0100352Y0190546D01*
X0100440Y0191124D01*
X0100514Y0191703D01*
X0100574Y0192284D01*
X0100620Y0192867D01*
X0100652Y0193450D01*
X0100670Y0194034D01*
X0100675Y0194618D01*
X0100665Y0195202D01*
X0100642Y0195786D01*
X0100605Y0196368D01*
X0100554Y0196950D01*
X0100489Y0197531D01*
X0100488Y0197530D02*
X0100488Y0216254D01*
X0099819Y0221924D01*
X0091158Y0218184D02*
X0089898Y0216924D01*
X0071728Y0216924D01*
X0064248Y0216924D02*
X0052988Y0216924D01*
X0055685Y0204424D02*
X0084248Y0204424D01*
X0084248Y0194424D01*
X0116624Y0173631D02*
X0091158Y0148164D01*
X0091158Y0140684D02*
X0091728Y0140113D01*
X0091728Y0126924D01*
X0091728Y0116924D02*
X0091728Y0110664D01*
X0091728Y0115664D02*
X0091728Y0116924D01*
X0091728Y0110664D02*
X0091726Y0110508D01*
X0091720Y0110353D01*
X0091711Y0110198D01*
X0091697Y0110043D01*
X0091680Y0109888D01*
X0091658Y0109734D01*
X0091633Y0109580D01*
X0091604Y0109428D01*
X0091572Y0109275D01*
X0091535Y0109124D01*
X0091495Y0108974D01*
X0091451Y0108825D01*
X0091403Y0108677D01*
X0091352Y0108530D01*
X0091297Y0108384D01*
X0091238Y0108240D01*
X0091176Y0108098D01*
X0091110Y0107957D01*
X0091041Y0107817D01*
X0090968Y0107680D01*
X0090892Y0107544D01*
X0090813Y0107410D01*
X0090730Y0107279D01*
X0090644Y0107149D01*
X0090554Y0107021D01*
X0090462Y0106896D01*
X0090367Y0106773D01*
X0090268Y0106653D01*
X0090167Y0106535D01*
X0090062Y0106420D01*
X0089955Y0106307D01*
X0089845Y0106197D01*
X0089732Y0106090D01*
X0089617Y0105985D01*
X0089499Y0105884D01*
X0089379Y0105785D01*
X0089256Y0105690D01*
X0089131Y0105598D01*
X0089003Y0105508D01*
X0088873Y0105422D01*
X0088742Y0105339D01*
X0088608Y0105260D01*
X0088472Y0105184D01*
X0088335Y0105111D01*
X0088195Y0105042D01*
X0088054Y0104976D01*
X0087912Y0104914D01*
X0087768Y0104855D01*
X0087622Y0104800D01*
X0087475Y0104749D01*
X0087327Y0104701D01*
X0087178Y0104657D01*
X0087028Y0104617D01*
X0086877Y0104580D01*
X0086724Y0104548D01*
X0086572Y0104519D01*
X0086418Y0104494D01*
X0086264Y0104472D01*
X0086109Y0104455D01*
X0085954Y0104441D01*
X0085799Y0104432D01*
X0085644Y0104426D01*
X0085488Y0104424D01*
X0074583Y0104424D01*
X0074537Y0104422D01*
X0074491Y0104417D01*
X0074445Y0104408D01*
X0074400Y0104395D01*
X0074357Y0104379D01*
X0074315Y0104360D01*
X0074274Y0104337D01*
X0074236Y0104311D01*
X0074199Y0104282D01*
X0074165Y0104251D01*
X0074134Y0104217D01*
X0074105Y0104180D01*
X0074079Y0104142D01*
X0074056Y0104101D01*
X0074037Y0104059D01*
X0074021Y0104016D01*
X0074008Y0103971D01*
X0073999Y0103925D01*
X0073994Y0103879D01*
X0073992Y0103833D01*
X0084248Y0116924D02*
X0084248Y0126924D01*
X0056020Y0126924D01*
X0055976Y0126926D01*
X0055933Y0126931D01*
X0055890Y0126940D01*
X0055848Y0126953D01*
X0055807Y0126969D01*
X0055767Y0126988D01*
X0055730Y0127010D01*
X0055694Y0127036D01*
X0055660Y0127064D01*
X0055629Y0127095D01*
X0055601Y0127129D01*
X0055575Y0127165D01*
X0055553Y0127202D01*
X0055534Y0127242D01*
X0055518Y0127283D01*
X0055505Y0127325D01*
X0055496Y0127368D01*
X0055491Y0127411D01*
X0055489Y0127455D01*
X0097989Y0114423D02*
X0098399Y0115479D01*
X0098784Y0116544D01*
X0099144Y0117618D01*
X0099477Y0118700D01*
X0099785Y0119790D01*
X0100067Y0120887D01*
X0100323Y0121991D01*
X0100553Y0123100D01*
X0100755Y0124214D01*
X0100932Y0125333D01*
X0101081Y0126455D01*
X0101204Y0127581D01*
X0101300Y0128710D01*
X0101369Y0129840D01*
X0101411Y0130972D01*
X0101426Y0132105D01*
X0101414Y0133237D01*
X0101375Y0134369D01*
X0101309Y0135500D01*
X0101216Y0136629D01*
X0101097Y0137755D01*
X0100950Y0138878D01*
X0100777Y0139997D01*
X0100577Y0141112D01*
X0100351Y0142222D01*
X0100098Y0143326D01*
X0099819Y0144424D01*
X0091158Y0140684D02*
X0089898Y0139424D01*
X0071728Y0139424D01*
X0064248Y0139424D02*
X0052988Y0139424D01*
X0052557Y0139419D01*
X0052126Y0139403D01*
X0051696Y0139378D01*
X0051267Y0139342D01*
X0050838Y0139296D01*
X0050411Y0139240D01*
X0049985Y0139173D01*
X0049561Y0139097D01*
X0049139Y0139010D01*
X0048719Y0138914D01*
X0048302Y0138807D01*
X0047887Y0138691D01*
X0047475Y0138564D01*
X0047066Y0138428D01*
X0046660Y0138282D01*
X0046258Y0138127D01*
X0045860Y0137962D01*
X0045466Y0137788D01*
X0045076Y0137604D01*
X0044691Y0137411D01*
X0044310Y0137209D01*
X0043935Y0136998D01*
X0043564Y0136778D01*
X0043199Y0136550D01*
X0042839Y0136312D01*
X0042485Y0136067D01*
X0042137Y0135812D01*
X0041795Y0135550D01*
X0041459Y0135280D01*
X0041130Y0135001D01*
X0040808Y0134715D01*
X0040493Y0134422D01*
X0040184Y0134121D01*
X0040185Y0134120D02*
X0012988Y0106924D01*
X0012988Y0106195D01*
X0012988Y0182967D02*
X0012988Y0184424D01*
X0040185Y0211620D01*
X0040184Y0211621D02*
X0040493Y0211922D01*
X0040808Y0212215D01*
X0041130Y0212501D01*
X0041459Y0212780D01*
X0041795Y0213050D01*
X0042137Y0213312D01*
X0042485Y0213567D01*
X0042839Y0213812D01*
X0043199Y0214050D01*
X0043564Y0214278D01*
X0043935Y0214498D01*
X0044310Y0214709D01*
X0044691Y0214911D01*
X0045076Y0215104D01*
X0045466Y0215288D01*
X0045860Y0215462D01*
X0046258Y0215627D01*
X0046660Y0215782D01*
X0047066Y0215928D01*
X0047475Y0216064D01*
X0047887Y0216191D01*
X0048302Y0216307D01*
X0048719Y0216414D01*
X0049139Y0216510D01*
X0049561Y0216597D01*
X0049985Y0216673D01*
X0050411Y0216740D01*
X0050838Y0216796D01*
X0051267Y0216842D01*
X0051696Y0216878D01*
X0052126Y0216903D01*
X0052557Y0216919D01*
X0052988Y0216924D01*
X0055685Y0204424D02*
X0055659Y0204422D01*
X0055634Y0204417D01*
X0055610Y0204409D01*
X0055587Y0204398D01*
X0055565Y0204383D01*
X0055546Y0204366D01*
X0055529Y0204347D01*
X0055514Y0204326D01*
X0055503Y0204302D01*
X0055495Y0204278D01*
X0055490Y0204253D01*
X0055488Y0204227D01*
X0055489Y0280999D02*
X0055491Y0281057D01*
X0055496Y0281115D01*
X0055505Y0281172D01*
X0055518Y0281229D01*
X0055534Y0281285D01*
X0055554Y0281340D01*
X0055577Y0281393D01*
X0055603Y0281445D01*
X0055633Y0281495D01*
X0055666Y0281543D01*
X0055701Y0281589D01*
X0055740Y0281632D01*
X0055781Y0281673D01*
X0055824Y0281712D01*
X0055870Y0281747D01*
X0055918Y0281780D01*
X0055968Y0281810D01*
X0056020Y0281836D01*
X0056073Y0281859D01*
X0056128Y0281879D01*
X0056184Y0281895D01*
X0056241Y0281908D01*
X0056298Y0281917D01*
X0056356Y0281922D01*
X0056414Y0281924D01*
X0071728Y0294424D02*
X0089898Y0294424D01*
X0091158Y0295684D01*
X0091728Y0295113D01*
X0091728Y0281924D01*
X0091728Y0271924D02*
X0091728Y0268164D01*
X0120488Y0261924D02*
X0120539Y0261466D01*
X0120578Y0261007D01*
X0120606Y0260547D01*
X0120623Y0260087D01*
X0120628Y0259627D01*
X0120622Y0259166D01*
X0120605Y0258706D01*
X0120576Y0258246D01*
X0120537Y0257787D01*
X0120485Y0257330D01*
X0120423Y0256873D01*
X0120350Y0256419D01*
X0120265Y0255966D01*
X0120170Y0255516D01*
X0120063Y0255068D01*
X0119945Y0254622D01*
X0119817Y0254180D01*
X0119677Y0253741D01*
X0119527Y0253306D01*
X0119367Y0252874D01*
X0119195Y0252447D01*
X0119014Y0252024D01*
X0118822Y0251605D01*
X0118619Y0251191D01*
X0118407Y0250783D01*
X0118185Y0250379D01*
X0117953Y0249982D01*
X0117711Y0249590D01*
X0117459Y0249204D01*
X0117199Y0248824D01*
X0116929Y0248451D01*
X0116649Y0248085D01*
X0117988Y0179424D02*
X0118015Y0179241D01*
X0118039Y0179057D01*
X0118057Y0178873D01*
X0118072Y0178689D01*
X0118082Y0178504D01*
X0118088Y0178319D01*
X0118089Y0178134D01*
X0118086Y0177949D01*
X0118078Y0177764D01*
X0118066Y0177579D01*
X0118050Y0177395D01*
X0118029Y0177211D01*
X0118004Y0177028D01*
X0117975Y0176845D01*
X0117941Y0176663D01*
X0117903Y0176482D01*
X0117860Y0176302D01*
X0117814Y0176123D01*
X0117763Y0175945D01*
X0117707Y0175768D01*
X0117648Y0175593D01*
X0117585Y0175419D01*
X0117517Y0175247D01*
X0117445Y0175076D01*
X0117370Y0174907D01*
X0117290Y0174740D01*
X0117206Y0174575D01*
X0117119Y0174412D01*
X0117027Y0174251D01*
X0116932Y0174093D01*
X0116833Y0173936D01*
X0116730Y0173782D01*
X0116624Y0173631D01*
X0095488Y0101924D02*
X0095495Y0101328D01*
X0095516Y0100733D01*
X0095552Y0100138D01*
X0095602Y0099544D01*
X0095665Y0098952D01*
X0095743Y0098361D01*
X0095835Y0097772D01*
X0095941Y0097186D01*
X0096061Y0096603D01*
X0096195Y0096022D01*
X0096342Y0095445D01*
X0096504Y0094871D01*
X0096678Y0094301D01*
X0096867Y0093736D01*
X0097069Y0093176D01*
X0097284Y0092620D01*
X0097512Y0092070D01*
X0097753Y0091525D01*
X0098008Y0090986D01*
X0098275Y0090453D01*
X0098554Y0089927D01*
X0098847Y0089408D01*
X0099151Y0088896D01*
X0099468Y0088391D01*
X0099796Y0087894D01*
X0100136Y0087405D01*
X0100488Y0086924D01*
X0085488Y0076924D02*
X0085490Y0076768D01*
X0085496Y0076612D01*
X0085506Y0076456D01*
X0085519Y0076301D01*
X0085537Y0076146D01*
X0085558Y0075991D01*
X0085583Y0075837D01*
X0085612Y0075684D01*
X0085645Y0075531D01*
X0085682Y0075379D01*
X0085722Y0075229D01*
X0085766Y0075079D01*
X0085814Y0074930D01*
X0085866Y0074783D01*
X0085921Y0074637D01*
X0085980Y0074492D01*
X0086042Y0074349D01*
X0086108Y0074208D01*
X0086177Y0074068D01*
X0086250Y0073930D01*
X0086327Y0073794D01*
X0086406Y0073660D01*
X0086489Y0073528D01*
X0086576Y0073398D01*
X0086665Y0073270D01*
X0086758Y0073144D01*
X0086854Y0073021D01*
X0086953Y0072900D01*
X0087054Y0072782D01*
X0087159Y0072666D01*
X0087267Y0072553D01*
X0087377Y0072443D01*
X0087490Y0072335D01*
X0087606Y0072230D01*
X0087724Y0072129D01*
X0087845Y0072030D01*
X0087968Y0071934D01*
X0088094Y0071841D01*
X0088222Y0071752D01*
X0088352Y0071665D01*
X0088484Y0071582D01*
X0088618Y0071503D01*
X0088754Y0071426D01*
X0088892Y0071353D01*
X0089032Y0071284D01*
X0089173Y0071218D01*
X0089316Y0071156D01*
X0089461Y0071097D01*
X0089607Y0071042D01*
X0089754Y0070990D01*
X0089903Y0070942D01*
X0090053Y0070898D01*
X0090203Y0070858D01*
X0090355Y0070821D01*
X0090508Y0070788D01*
X0090661Y0070759D01*
X0090815Y0070734D01*
X0090970Y0070713D01*
X0091125Y0070695D01*
X0091280Y0070682D01*
X0091436Y0070672D01*
X0091592Y0070666D01*
X0091748Y0070664D01*
X0091158Y0070664D01*
X0091158Y0063184D02*
X0089898Y0061924D01*
X0071728Y0061924D01*
X0064248Y0061924D02*
X0052988Y0061924D01*
X0055488Y0050684D02*
X0055490Y0050616D01*
X0055495Y0050548D01*
X0055505Y0050480D01*
X0055517Y0050413D01*
X0055534Y0050347D01*
X0055554Y0050282D01*
X0055577Y0050218D01*
X0055604Y0050155D01*
X0055635Y0050094D01*
X0055668Y0050034D01*
X0055705Y0049977D01*
X0055745Y0049921D01*
X0055788Y0049868D01*
X0055833Y0049817D01*
X0055881Y0049769D01*
X0055932Y0049724D01*
X0055985Y0049681D01*
X0056041Y0049641D01*
X0056098Y0049604D01*
X0056158Y0049571D01*
X0056219Y0049540D01*
X0056282Y0049513D01*
X0056346Y0049490D01*
X0056411Y0049470D01*
X0056477Y0049453D01*
X0056544Y0049441D01*
X0056612Y0049431D01*
X0056680Y0049426D01*
X0056748Y0049424D01*
X0084248Y0049424D01*
X0084248Y0039424D01*
X0091728Y0030664D02*
X0091726Y0030544D01*
X0091720Y0030424D01*
X0091711Y0030305D01*
X0091697Y0030186D01*
X0091680Y0030067D01*
X0091659Y0029949D01*
X0091634Y0029832D01*
X0091606Y0029715D01*
X0091573Y0029600D01*
X0091537Y0029485D01*
X0091498Y0029372D01*
X0091455Y0029261D01*
X0091408Y0029150D01*
X0091358Y0029041D01*
X0091304Y0028934D01*
X0091247Y0028829D01*
X0091186Y0028725D01*
X0091122Y0028624D01*
X0091055Y0028524D01*
X0090985Y0028427D01*
X0090912Y0028332D01*
X0090836Y0028240D01*
X0090757Y0028150D01*
X0090675Y0028062D01*
X0090590Y0027977D01*
X0090502Y0027895D01*
X0090412Y0027816D01*
X0090320Y0027740D01*
X0090225Y0027667D01*
X0090128Y0027597D01*
X0090028Y0027530D01*
X0089927Y0027466D01*
X0089823Y0027405D01*
X0089718Y0027348D01*
X0089611Y0027294D01*
X0089502Y0027244D01*
X0089391Y0027197D01*
X0089280Y0027154D01*
X0089167Y0027115D01*
X0089052Y0027079D01*
X0088937Y0027046D01*
X0088820Y0027018D01*
X0088703Y0026993D01*
X0088585Y0026972D01*
X0088466Y0026955D01*
X0088347Y0026941D01*
X0088228Y0026932D01*
X0088108Y0026926D01*
X0087988Y0026924D01*
X0074130Y0026924D01*
X0074108Y0026926D01*
X0074087Y0026931D01*
X0074067Y0026939D01*
X0074049Y0026950D01*
X0074032Y0026964D01*
X0074018Y0026981D01*
X0074007Y0026999D01*
X0073999Y0027019D01*
X0073994Y0027040D01*
X0073992Y0027062D01*
X0085488Y0076924D02*
X0085488Y0091924D01*
X0100488Y0086924D02*
X0100718Y0086605D01*
X0100939Y0086281D01*
X0101153Y0085952D01*
X0101359Y0085618D01*
X0101556Y0085279D01*
X0101745Y0084935D01*
X0101926Y0084586D01*
X0102098Y0084233D01*
X0102262Y0083876D01*
X0102417Y0083516D01*
X0102563Y0083151D01*
X0102700Y0082783D01*
X0102828Y0082412D01*
X0102946Y0082038D01*
X0103056Y0081661D01*
X0103157Y0081282D01*
X0103248Y0080900D01*
X0103330Y0080516D01*
X0103403Y0080130D01*
X0103466Y0079743D01*
X0103519Y0079354D01*
X0103564Y0078964D01*
X0103598Y0078573D01*
X0103623Y0078181D01*
X0103639Y0077789D01*
X0103645Y0077396D01*
X0103641Y0077004D01*
X0103628Y0076611D01*
X0103606Y0076219D01*
X0103573Y0075828D01*
X0103532Y0075438D01*
X0103480Y0075048D01*
X0103420Y0074661D01*
X0103349Y0074274D01*
X0103270Y0073890D01*
X0103181Y0073508D01*
X0103083Y0073127D01*
X0102975Y0072750D01*
X0102859Y0072375D01*
X0102733Y0072003D01*
X0102598Y0071634D01*
X0102455Y0071269D01*
X0102302Y0070907D01*
X0102141Y0070549D01*
X0101971Y0070196D01*
X0101792Y0069846D01*
X0101605Y0069501D01*
X0101410Y0069160D01*
X0101206Y0068825D01*
X0100995Y0068494D01*
X0100775Y0068169D01*
X0100547Y0067849D01*
X0100312Y0067535D01*
X0100069Y0067226D01*
X0099819Y0066924D01*
X0091728Y0062613D02*
X0091728Y0049424D01*
X0091728Y0039424D02*
X0091728Y0030664D01*
X0091728Y0062613D02*
X0091158Y0063184D01*
X0095488Y0101924D02*
X0095497Y0102679D01*
X0095523Y0103433D01*
X0095567Y0104186D01*
X0095628Y0104939D01*
X0095707Y0105689D01*
X0095803Y0106438D01*
X0095916Y0107184D01*
X0096047Y0107927D01*
X0096195Y0108667D01*
X0096360Y0109404D01*
X0096543Y0110136D01*
X0096742Y0110864D01*
X0096958Y0111587D01*
X0097191Y0112305D01*
X0097440Y0113018D01*
X0097706Y0113724D01*
X0097988Y0114424D01*
X0052988Y0061924D02*
X0052557Y0061919D01*
X0052126Y0061903D01*
X0051696Y0061878D01*
X0051267Y0061842D01*
X0050838Y0061796D01*
X0050411Y0061740D01*
X0049985Y0061673D01*
X0049561Y0061597D01*
X0049139Y0061510D01*
X0048719Y0061414D01*
X0048302Y0061307D01*
X0047887Y0061191D01*
X0047475Y0061064D01*
X0047066Y0060928D01*
X0046660Y0060782D01*
X0046258Y0060627D01*
X0045860Y0060462D01*
X0045466Y0060288D01*
X0045076Y0060104D01*
X0044691Y0059911D01*
X0044310Y0059709D01*
X0043935Y0059498D01*
X0043564Y0059278D01*
X0043199Y0059050D01*
X0042839Y0058812D01*
X0042485Y0058567D01*
X0042137Y0058312D01*
X0041795Y0058050D01*
X0041459Y0057780D01*
X0041130Y0057501D01*
X0040808Y0057215D01*
X0040493Y0056922D01*
X0040184Y0056621D01*
X0040185Y0056620D02*
X0012988Y0029424D01*
X0091158Y0303164D02*
X0091728Y0303164D01*
X0095488Y0316924D02*
X0095486Y0317064D01*
X0095480Y0317204D01*
X0095470Y0317344D01*
X0095457Y0317484D01*
X0095439Y0317623D01*
X0095417Y0317762D01*
X0095392Y0317899D01*
X0095363Y0318037D01*
X0095330Y0318173D01*
X0095293Y0318308D01*
X0095252Y0318442D01*
X0095207Y0318575D01*
X0095159Y0318707D01*
X0095107Y0318837D01*
X0095052Y0318966D01*
X0094993Y0319093D01*
X0094930Y0319219D01*
X0094864Y0319343D01*
X0094795Y0319464D01*
X0094722Y0319584D01*
X0094645Y0319702D01*
X0094566Y0319817D01*
X0094483Y0319931D01*
X0094397Y0320041D01*
X0094308Y0320150D01*
X0094216Y0320256D01*
X0094121Y0320359D01*
X0094024Y0320460D01*
X0093923Y0320557D01*
X0093820Y0320652D01*
X0093714Y0320744D01*
X0093605Y0320833D01*
X0093495Y0320919D01*
X0093381Y0321002D01*
X0093266Y0321081D01*
X0093148Y0321158D01*
X0093028Y0321231D01*
X0092907Y0321300D01*
X0092783Y0321366D01*
X0092657Y0321429D01*
X0092530Y0321488D01*
X0092401Y0321543D01*
X0092271Y0321595D01*
X0092139Y0321643D01*
X0092006Y0321688D01*
X0091872Y0321729D01*
X0091737Y0321766D01*
X0091601Y0321799D01*
X0091463Y0321828D01*
X0091326Y0321853D01*
X0091187Y0321875D01*
X0091048Y0321893D01*
X0090908Y0321906D01*
X0090768Y0321916D01*
X0090628Y0321922D01*
X0090488Y0321924D01*
X0089228Y0321924D01*
X0091953Y0331924D02*
X0092051Y0331926D01*
X0092149Y0331932D01*
X0092247Y0331941D01*
X0092344Y0331955D01*
X0092441Y0331972D01*
X0092537Y0331993D01*
X0092632Y0332018D01*
X0092726Y0332046D01*
X0092818Y0332079D01*
X0092910Y0332114D01*
X0093000Y0332154D01*
X0093088Y0332196D01*
X0093175Y0332243D01*
X0093259Y0332292D01*
X0093342Y0332345D01*
X0093422Y0332401D01*
X0093501Y0332461D01*
X0093577Y0332523D01*
X0093650Y0332588D01*
X0093721Y0332656D01*
X0085488Y0351924D02*
X0085348Y0351926D01*
X0085208Y0351932D01*
X0085068Y0351942D01*
X0084928Y0351955D01*
X0084789Y0351973D01*
X0084650Y0351995D01*
X0084513Y0352020D01*
X0084375Y0352049D01*
X0084239Y0352082D01*
X0084104Y0352119D01*
X0083970Y0352160D01*
X0083837Y0352205D01*
X0083705Y0352253D01*
X0083575Y0352305D01*
X0083446Y0352360D01*
X0083319Y0352419D01*
X0083193Y0352482D01*
X0083069Y0352548D01*
X0082948Y0352617D01*
X0082828Y0352690D01*
X0082710Y0352767D01*
X0082595Y0352846D01*
X0082481Y0352929D01*
X0082371Y0353015D01*
X0082262Y0353104D01*
X0082156Y0353196D01*
X0082053Y0353291D01*
X0081952Y0353388D01*
X0081855Y0353489D01*
X0081760Y0353592D01*
X0081668Y0353698D01*
X0081579Y0353807D01*
X0081493Y0353917D01*
X0081410Y0354031D01*
X0081331Y0354146D01*
X0081254Y0354264D01*
X0081181Y0354384D01*
X0081112Y0354505D01*
X0081046Y0354629D01*
X0080983Y0354755D01*
X0080924Y0354882D01*
X0080869Y0355011D01*
X0080817Y0355141D01*
X0080769Y0355273D01*
X0080724Y0355406D01*
X0080683Y0355540D01*
X0080646Y0355675D01*
X0080613Y0355811D01*
X0080584Y0355949D01*
X0080559Y0356086D01*
X0080537Y0356225D01*
X0080519Y0356364D01*
X0080506Y0356504D01*
X0080496Y0356644D01*
X0080490Y0356784D01*
X0080488Y0356924D01*
X0076221Y0392656D02*
X0076422Y0392802D01*
X0076620Y0392953D01*
X0076814Y0393109D01*
X0077005Y0393269D01*
X0077191Y0393433D01*
X0077374Y0393602D01*
X0077553Y0393775D01*
X0077727Y0393953D01*
X0077897Y0394134D01*
X0078063Y0394320D01*
X0078224Y0394509D01*
X0078381Y0394703D01*
X0078533Y0394899D01*
X0078680Y0395100D01*
X0078823Y0395304D01*
X0078961Y0395511D01*
X0079093Y0395721D01*
X0079221Y0395935D01*
X0079344Y0396152D01*
X0079461Y0396371D01*
X0079573Y0396593D01*
X0079680Y0396818D01*
X0079781Y0397045D01*
X0079877Y0397274D01*
X0079968Y0397506D01*
X0080053Y0397740D01*
X0080132Y0397976D01*
X0080206Y0398213D01*
X0080274Y0398453D01*
X0080336Y0398694D01*
X0080393Y0398936D01*
X0080443Y0399180D01*
X0080488Y0399424D01*
X0087989Y0421924D02*
X0088023Y0422053D01*
X0088054Y0422183D01*
X0088081Y0422314D01*
X0088104Y0422445D01*
X0088123Y0422578D01*
X0088139Y0422710D01*
X0088150Y0422843D01*
X0088158Y0422977D01*
X0088162Y0423110D01*
X0088161Y0423244D01*
X0088157Y0423378D01*
X0088150Y0423511D01*
X0088138Y0423644D01*
X0088122Y0423777D01*
X0088103Y0423909D01*
X0088080Y0424040D01*
X0088052Y0424171D01*
X0088022Y0424301D01*
X0087987Y0424430D01*
X0087948Y0424558D01*
X0087906Y0424685D01*
X0087861Y0424810D01*
X0087811Y0424935D01*
X0087758Y0425057D01*
X0087702Y0425178D01*
X0087642Y0425298D01*
X0087578Y0425415D01*
X0087511Y0425531D01*
X0087441Y0425645D01*
X0087367Y0425756D01*
X0087291Y0425865D01*
X0087211Y0425973D01*
X0087128Y0426077D01*
X0087042Y0426180D01*
X0086953Y0426279D01*
X0086861Y0426376D01*
X0086767Y0426471D01*
X0086670Y0426562D01*
X0086570Y0426651D01*
X0086467Y0426737D01*
X0086363Y0426820D01*
X0086255Y0426900D01*
X0086146Y0426976D01*
X0086034Y0427049D01*
X0085920Y0427119D01*
X0085805Y0427186D01*
X0085687Y0427250D01*
X0085568Y0427309D01*
X0085446Y0427366D01*
X0085324Y0427419D01*
X0085200Y0427468D01*
X0085074Y0427513D01*
X0084947Y0427555D01*
X0084819Y0427594D01*
X0084819Y0427593D02*
X0082988Y0427593D01*
X0079248Y0436254D02*
X0079092Y0436256D01*
X0078936Y0436262D01*
X0078780Y0436272D01*
X0078625Y0436285D01*
X0078470Y0436303D01*
X0078315Y0436324D01*
X0078161Y0436349D01*
X0078008Y0436378D01*
X0077855Y0436411D01*
X0077703Y0436448D01*
X0077553Y0436488D01*
X0077403Y0436532D01*
X0077254Y0436580D01*
X0077107Y0436632D01*
X0076961Y0436687D01*
X0076816Y0436746D01*
X0076673Y0436808D01*
X0076532Y0436874D01*
X0076392Y0436943D01*
X0076254Y0437016D01*
X0076118Y0437093D01*
X0075984Y0437172D01*
X0075852Y0437255D01*
X0075722Y0437342D01*
X0075594Y0437431D01*
X0075468Y0437524D01*
X0075345Y0437620D01*
X0075224Y0437719D01*
X0075106Y0437820D01*
X0074990Y0437925D01*
X0074877Y0438033D01*
X0074767Y0438143D01*
X0074659Y0438256D01*
X0074554Y0438372D01*
X0074453Y0438490D01*
X0074354Y0438611D01*
X0074258Y0438734D01*
X0074165Y0438860D01*
X0074076Y0438988D01*
X0073989Y0439118D01*
X0073906Y0439250D01*
X0073827Y0439384D01*
X0073750Y0439520D01*
X0073677Y0439658D01*
X0073608Y0439798D01*
X0073542Y0439939D01*
X0073480Y0440082D01*
X0073421Y0440227D01*
X0073366Y0440373D01*
X0073314Y0440520D01*
X0073266Y0440669D01*
X0073222Y0440819D01*
X0073182Y0440969D01*
X0073145Y0441121D01*
X0073112Y0441274D01*
X0073083Y0441427D01*
X0073058Y0441581D01*
X0073037Y0441736D01*
X0073019Y0441891D01*
X0073006Y0442046D01*
X0072996Y0442202D01*
X0072990Y0442358D01*
X0072988Y0442514D01*
X0072988Y0466924D01*
X0055488Y0444424D02*
X0055488Y0434542D01*
X0055488Y0402790D02*
X0055488Y0400290D01*
X0061158Y0384424D02*
X0065488Y0384424D01*
X0061158Y0384423D02*
X0061108Y0384421D01*
X0061058Y0384416D01*
X0061009Y0384406D01*
X0060961Y0384393D01*
X0060914Y0384377D01*
X0060868Y0384357D01*
X0060824Y0384333D01*
X0060781Y0384307D01*
X0060741Y0384277D01*
X0060703Y0384244D01*
X0060668Y0384209D01*
X0060635Y0384171D01*
X0060605Y0384131D01*
X0060579Y0384089D01*
X0060555Y0384044D01*
X0060535Y0383998D01*
X0060519Y0383951D01*
X0060506Y0383903D01*
X0060496Y0383854D01*
X0060491Y0383804D01*
X0060489Y0383754D01*
X0035494Y0439418D02*
X0023579Y0448833D01*
X0022988Y0449424D01*
X0022988Y0451333D01*
X0026728Y0436924D02*
X0026728Y0429424D01*
X0026728Y0428164D01*
X0025488Y0426924D01*
X0025488Y0419424D01*
X0035494Y0439418D02*
X0036526Y0438566D01*
X0037536Y0437688D01*
X0038524Y0436786D01*
X0039490Y0435860D01*
X0040433Y0434911D01*
X0041352Y0433938D01*
X0042248Y0432944D01*
X0043118Y0431927D01*
X0043963Y0430890D01*
X0044783Y0429832D01*
X0045576Y0428755D01*
X0046343Y0427658D01*
X0047083Y0426543D01*
X0047795Y0425410D01*
X0048479Y0424259D01*
X0049134Y0423093D01*
X0049761Y0421910D01*
X0050358Y0420713D01*
X0050926Y0419501D01*
X0051464Y0418276D01*
X0051972Y0417038D01*
X0052449Y0415788D01*
X0052896Y0414526D01*
X0053311Y0413254D01*
X0053695Y0411972D01*
X0054047Y0410682D01*
X0054368Y0409382D01*
X0054657Y0408076D01*
X0054913Y0406762D01*
X0055137Y0405443D01*
X0055329Y0404119D01*
X0055488Y0402790D01*
X0093579Y0436255D02*
X0093629Y0436257D01*
X0093679Y0436262D01*
X0093728Y0436272D01*
X0093776Y0436285D01*
X0093823Y0436301D01*
X0093869Y0436321D01*
X0093914Y0436345D01*
X0093956Y0436371D01*
X0093996Y0436401D01*
X0094034Y0436434D01*
X0094069Y0436469D01*
X0094102Y0436507D01*
X0094132Y0436547D01*
X0094158Y0436590D01*
X0094182Y0436634D01*
X0094202Y0436680D01*
X0094218Y0436727D01*
X0094231Y0436775D01*
X0094241Y0436824D01*
X0094246Y0436874D01*
X0094248Y0436924D01*
X0106953Y0455460D02*
X0106734Y0455667D01*
X0106519Y0455879D01*
X0106310Y0456097D01*
X0106106Y0456319D01*
X0105908Y0456547D01*
X0105715Y0456779D01*
X0105528Y0457016D01*
X0105347Y0457257D01*
X0105172Y0457503D01*
X0105003Y0457753D01*
X0104840Y0458007D01*
X0104684Y0458265D01*
X0104533Y0458527D01*
X0104390Y0458792D01*
X0104253Y0459061D01*
X0104122Y0459333D01*
X0103998Y0459609D01*
X0103881Y0459887D01*
X0103771Y0460168D01*
X0103668Y0460451D01*
X0103572Y0460737D01*
X0103483Y0461026D01*
X0103401Y0461316D01*
X0103326Y0461608D01*
X0103258Y0461903D01*
X0103198Y0462198D01*
X0103145Y0462495D01*
X0103099Y0462794D01*
X0103060Y0463093D01*
X0103029Y0463393D01*
X0103005Y0463694D01*
X0102989Y0463995D01*
D28*
X0120488Y0406924D03*
X0112988Y0381924D03*
X0105488Y0374424D03*
X0095488Y0374424D03*
X0095488Y0386924D03*
X0080488Y0386924D03*
X0080488Y0356924D03*
X0080488Y0346924D03*
X0095488Y0314424D03*
X0105488Y0336924D03*
X0120488Y0351924D03*
X0095488Y0254424D03*
X0095488Y0179424D03*
X0117988Y0179424D03*
X0095488Y0101924D03*
X0085488Y0091924D03*
X0030488Y0319424D03*
D29*
X0059238Y0156924D03*
M02*
