%
M48
M72
T01C0.02362
T02C0.03200
T03C0.04000
T04C0.05906
T05C0.06693
T06C0.09843
T07C0.11811
%
T01
X59238Y156924
X85488Y91924
X95488Y101924
X117988Y179424
X95488Y179424
X95488Y254424
X95488Y314424
X105488Y336924
X105488Y374424
X112988Y381924
X120488Y406924
X120488Y351924
X95488Y374424
X95488Y386924
X80488Y386924
X80488Y356924
X80488Y346924
X30488Y319424
T02
X12988Y29424
X22988Y29424
X22988Y106195
X12988Y106195
X12988Y182967
X22988Y182967
X22988Y259739
X12988Y259739
X17988Y346924
X25488Y346924
X25488Y376924
X25488Y389424
X17988Y389424
X17988Y376924
X17988Y419424
X25488Y419424
X55488Y444424
X85488Y444424
X110488Y441924
X120488Y441924
T03
X102988Y466924
X102988Y476924
X92988Y476924
X92988Y466924
X82988Y466924
X82988Y476924
X72988Y476924
X72988Y466924
X62988Y466924
X62988Y476924
T04
X73992Y27062
X73992Y103833
X73992Y180605
X73992Y257377
X73992Y334148
X73992Y410920
T05
X22988Y291628
X22988Y307219
X22988Y451333
X22988Y466924
X22988Y482514
T06
X36984Y27062
X55488Y16432
X55488Y50684
X55488Y93203
X55488Y127455
X55488Y169975
X55488Y204227
X55488Y246747
X55488Y280999
X55488Y323518
X55488Y357770
X55488Y400290
X55488Y434542
X36984Y410920
X36984Y334148
X36984Y257377
X36984Y180605
X36984Y103833
T07
X20488Y69424
X20488Y221924
M30
