G75*
%MOIN*%
%OFA0B0*%
%FSLAX25Y25*%
%IPPOS*%
%LPD*%
%AMOC8*
5,1,8,0,0,1.08239X$1,22.5*
%
%ADD10C,0.01600*%
%ADD11C,0.01000*%
%ADD12C,0.02200*%
%ADD13C,0.00600*%
%ADD14R,0.02000X0.08000*%
%ADD15R,0.02500X0.02000*%
%ADD16R,0.08000X0.02000*%
%ADD17R,0.02000X0.02500*%
%ADD18C,0.00500*%
%ADD19C,0.00800*%
D10*
X0002988Y0006924D02*
X0002988Y0486924D01*
X0002990Y0487063D01*
X0002996Y0487202D01*
X0003006Y0487341D01*
X0003019Y0487479D01*
X0003037Y0487617D01*
X0003058Y0487755D01*
X0003083Y0487892D01*
X0003112Y0488028D01*
X0003145Y0488163D01*
X0003182Y0488297D01*
X0003222Y0488431D01*
X0003266Y0488563D01*
X0003314Y0488693D01*
X0003366Y0488822D01*
X0003421Y0488950D01*
X0003479Y0489076D01*
X0003541Y0489201D01*
X0003607Y0489324D01*
X0003676Y0489445D01*
X0003748Y0489563D01*
X0003824Y0489680D01*
X0003903Y0489795D01*
X0003985Y0489907D01*
X0004070Y0490017D01*
X0004159Y0490125D01*
X0004250Y0490230D01*
X0004344Y0490332D01*
X0004441Y0490432D01*
X0004541Y0490529D01*
X0004643Y0490623D01*
X0004748Y0490714D01*
X0004856Y0490803D01*
X0004966Y0490888D01*
X0005078Y0490970D01*
X0005193Y0491049D01*
X0005310Y0491125D01*
X0005428Y0491197D01*
X0005549Y0491266D01*
X0005672Y0491332D01*
X0005797Y0491394D01*
X0005923Y0491452D01*
X0006051Y0491507D01*
X0006180Y0491559D01*
X0006310Y0491607D01*
X0006442Y0491651D01*
X0006576Y0491691D01*
X0006710Y0491728D01*
X0006845Y0491761D01*
X0006981Y0491790D01*
X0007118Y0491815D01*
X0007256Y0491836D01*
X0007394Y0491854D01*
X0007532Y0491867D01*
X0007671Y0491877D01*
X0007810Y0491883D01*
X0007949Y0491885D01*
X0007949Y0491884D02*
X0125488Y0491884D01*
X0125628Y0491882D01*
X0125768Y0491876D01*
X0125908Y0491866D01*
X0126048Y0491853D01*
X0126187Y0491835D01*
X0126326Y0491813D01*
X0126463Y0491788D01*
X0126601Y0491759D01*
X0126737Y0491726D01*
X0126872Y0491689D01*
X0127006Y0491648D01*
X0127139Y0491603D01*
X0127271Y0491555D01*
X0127401Y0491503D01*
X0127530Y0491448D01*
X0127657Y0491389D01*
X0127783Y0491326D01*
X0127907Y0491260D01*
X0128028Y0491191D01*
X0128148Y0491118D01*
X0128266Y0491041D01*
X0128381Y0490962D01*
X0128495Y0490879D01*
X0128605Y0490793D01*
X0128714Y0490704D01*
X0128820Y0490612D01*
X0128923Y0490517D01*
X0129024Y0490420D01*
X0129121Y0490319D01*
X0129216Y0490216D01*
X0129308Y0490110D01*
X0129397Y0490001D01*
X0129483Y0489891D01*
X0129566Y0489777D01*
X0129645Y0489662D01*
X0129722Y0489544D01*
X0129795Y0489424D01*
X0129864Y0489303D01*
X0129930Y0489179D01*
X0129993Y0489053D01*
X0130052Y0488926D01*
X0130107Y0488797D01*
X0130159Y0488667D01*
X0130207Y0488535D01*
X0130252Y0488402D01*
X0130293Y0488268D01*
X0130330Y0488133D01*
X0130363Y0487997D01*
X0130392Y0487859D01*
X0130417Y0487722D01*
X0130439Y0487583D01*
X0130457Y0487444D01*
X0130470Y0487304D01*
X0130480Y0487164D01*
X0130486Y0487024D01*
X0130488Y0486884D01*
X0130488Y0164424D01*
X0126221Y0155156D02*
X0112256Y0141192D01*
X0110488Y0136924D02*
X0110488Y0006924D01*
X0110486Y0006784D01*
X0110480Y0006644D01*
X0110470Y0006504D01*
X0110457Y0006364D01*
X0110439Y0006225D01*
X0110417Y0006086D01*
X0110392Y0005949D01*
X0110363Y0005811D01*
X0110330Y0005675D01*
X0110293Y0005540D01*
X0110252Y0005406D01*
X0110207Y0005273D01*
X0110159Y0005141D01*
X0110107Y0005011D01*
X0110052Y0004882D01*
X0109993Y0004755D01*
X0109930Y0004629D01*
X0109864Y0004505D01*
X0109795Y0004384D01*
X0109722Y0004264D01*
X0109645Y0004146D01*
X0109566Y0004031D01*
X0109483Y0003917D01*
X0109397Y0003807D01*
X0109308Y0003698D01*
X0109216Y0003592D01*
X0109121Y0003489D01*
X0109024Y0003388D01*
X0108923Y0003291D01*
X0108820Y0003196D01*
X0108714Y0003104D01*
X0108605Y0003015D01*
X0108495Y0002929D01*
X0108381Y0002846D01*
X0108266Y0002767D01*
X0108148Y0002690D01*
X0108028Y0002617D01*
X0107907Y0002548D01*
X0107783Y0002482D01*
X0107657Y0002419D01*
X0107530Y0002360D01*
X0107401Y0002305D01*
X0107271Y0002253D01*
X0107139Y0002205D01*
X0107006Y0002160D01*
X0106872Y0002119D01*
X0106737Y0002082D01*
X0106601Y0002049D01*
X0106463Y0002020D01*
X0106326Y0001995D01*
X0106187Y0001973D01*
X0106048Y0001955D01*
X0105908Y0001942D01*
X0105768Y0001932D01*
X0105628Y0001926D01*
X0105488Y0001924D01*
X0010488Y0001924D01*
X0010332Y0001895D01*
X0010175Y0001869D01*
X0010017Y0001848D01*
X0009860Y0001830D01*
X0009701Y0001817D01*
X0009543Y0001807D01*
X0009384Y0001802D01*
X0009225Y0001800D01*
X0009066Y0001802D01*
X0008907Y0001809D01*
X0008749Y0001819D01*
X0008590Y0001833D01*
X0008432Y0001851D01*
X0008275Y0001873D01*
X0008118Y0001899D01*
X0007962Y0001929D01*
X0007807Y0001963D01*
X0007652Y0002000D01*
X0007499Y0002042D01*
X0007347Y0002087D01*
X0007195Y0002136D01*
X0007046Y0002189D01*
X0006897Y0002245D01*
X0006750Y0002306D01*
X0006604Y0002370D01*
X0006461Y0002437D01*
X0006318Y0002508D01*
X0006178Y0002583D01*
X0006040Y0002661D01*
X0005903Y0002742D01*
X0005769Y0002827D01*
X0005637Y0002915D01*
X0005507Y0003006D01*
X0005379Y0003101D01*
X0005254Y0003199D01*
X0005131Y0003300D01*
X0005011Y0003404D01*
X0004893Y0003511D01*
X0004778Y0003620D01*
X0004666Y0003733D01*
X0004557Y0003848D01*
X0004450Y0003966D01*
X0004347Y0004087D01*
X0004246Y0004210D01*
X0004149Y0004336D01*
X0004055Y0004464D01*
X0003964Y0004594D01*
X0003877Y0004727D01*
X0003792Y0004862D01*
X0003711Y0004998D01*
X0003634Y0005137D01*
X0003560Y0005278D01*
X0003490Y0005420D01*
X0003423Y0005564D01*
X0003359Y0005710D01*
X0003300Y0005858D01*
X0003244Y0006006D01*
X0003192Y0006156D01*
X0003143Y0006308D01*
X0003099Y0006460D01*
X0003058Y0006614D01*
X0003021Y0006769D01*
X0002988Y0006924D01*
X0057988Y0150924D02*
X0060488Y0150924D01*
X0110488Y0136924D02*
X0110490Y0137077D01*
X0110496Y0137230D01*
X0110505Y0137382D01*
X0110519Y0137535D01*
X0110536Y0137687D01*
X0110558Y0137838D01*
X0110583Y0137989D01*
X0110612Y0138139D01*
X0110644Y0138288D01*
X0110681Y0138437D01*
X0110721Y0138584D01*
X0110765Y0138731D01*
X0110812Y0138876D01*
X0110864Y0139020D01*
X0110919Y0139163D01*
X0110977Y0139304D01*
X0111039Y0139444D01*
X0111105Y0139582D01*
X0111174Y0139719D01*
X0111246Y0139853D01*
X0111322Y0139986D01*
X0111402Y0140117D01*
X0111484Y0140246D01*
X0111570Y0140372D01*
X0111659Y0140497D01*
X0111751Y0140619D01*
X0111846Y0140738D01*
X0111944Y0140856D01*
X0112045Y0140970D01*
X0112149Y0141083D01*
X0112256Y0141192D01*
X0126220Y0155157D02*
X0126451Y0155375D01*
X0126676Y0155598D01*
X0126895Y0155827D01*
X0127109Y0156061D01*
X0127318Y0156301D01*
X0127521Y0156545D01*
X0127718Y0156793D01*
X0127909Y0157047D01*
X0128093Y0157305D01*
X0128272Y0157567D01*
X0128444Y0157833D01*
X0128610Y0158104D01*
X0128770Y0158378D01*
X0128923Y0158656D01*
X0129069Y0158937D01*
X0129209Y0159222D01*
X0129341Y0159510D01*
X0129467Y0159802D01*
X0129586Y0160096D01*
X0129698Y0160393D01*
X0129802Y0160692D01*
X0129900Y0160994D01*
X0129990Y0161298D01*
X0130073Y0161605D01*
X0130149Y0161913D01*
X0130218Y0162222D01*
X0130279Y0162534D01*
X0130332Y0162846D01*
X0130378Y0163160D01*
X0130417Y0163475D01*
X0130448Y0163791D01*
X0130472Y0164107D01*
X0130488Y0164424D01*
D11*
X0124488Y0187424D02*
X0120485Y0187424D01*
X0120485Y0189425D01*
X0121152Y0190093D01*
X0122487Y0190093D01*
X0123154Y0189425D01*
X0123154Y0187424D01*
X0123821Y0192028D02*
X0124488Y0192695D01*
X0124488Y0194029D01*
X0123821Y0194697D01*
X0124488Y0196632D02*
X0124488Y0198633D01*
X0123821Y0199301D01*
X0123154Y0199301D01*
X0122487Y0198633D01*
X0122487Y0196632D01*
X0124488Y0196632D02*
X0120485Y0196632D01*
X0120485Y0198633D01*
X0121152Y0199301D01*
X0121819Y0199301D01*
X0122487Y0198633D01*
X0121152Y0194697D02*
X0120485Y0194029D01*
X0120485Y0192695D01*
X0121152Y0192028D01*
X0123821Y0192028D01*
X0118488Y0192028D02*
X0118488Y0193362D01*
X0118488Y0192695D02*
X0115819Y0192695D01*
X0115819Y0192028D01*
X0114485Y0192695D02*
X0113818Y0192695D01*
X0115152Y0190093D02*
X0114485Y0189425D01*
X0114485Y0188091D01*
X0115152Y0187424D01*
X0115819Y0187424D01*
X0116487Y0188091D01*
X0116487Y0189425D01*
X0117154Y0190093D01*
X0117821Y0190093D01*
X0118488Y0189425D01*
X0118488Y0188091D01*
X0117821Y0187424D01*
X0118488Y0195097D02*
X0115819Y0195097D01*
X0115819Y0195764D01*
X0116487Y0196431D01*
X0115819Y0197099D01*
X0116487Y0197766D01*
X0118488Y0197766D01*
X0118488Y0196431D02*
X0116487Y0196431D01*
X0115819Y0199701D02*
X0115819Y0201703D01*
X0116487Y0202370D01*
X0117821Y0202370D01*
X0118488Y0201703D01*
X0118488Y0199701D01*
X0119823Y0199701D02*
X0115819Y0199701D01*
X0114485Y0204305D02*
X0114485Y0204972D01*
X0118488Y0204972D01*
X0118488Y0204305D02*
X0118488Y0205639D01*
X0117821Y0207374D02*
X0118488Y0208041D01*
X0118488Y0209376D01*
X0117154Y0210043D02*
X0117154Y0207374D01*
X0117821Y0207374D02*
X0116487Y0207374D01*
X0115819Y0208041D01*
X0115819Y0209376D01*
X0116487Y0210043D01*
X0117154Y0210043D01*
X0120485Y0206507D02*
X0124488Y0206507D01*
X0124488Y0207174D02*
X0124488Y0205839D01*
X0123821Y0208909D02*
X0124488Y0209576D01*
X0124488Y0211578D01*
X0122487Y0211578D01*
X0121819Y0210910D01*
X0121819Y0209576D01*
X0123154Y0209576D02*
X0123154Y0211578D01*
X0123154Y0209576D02*
X0123821Y0208909D01*
X0123821Y0213513D02*
X0121819Y0213513D01*
X0123821Y0213513D02*
X0124488Y0214180D01*
X0124488Y0216182D01*
X0125156Y0216182D02*
X0125823Y0215514D01*
X0125823Y0214847D01*
X0125156Y0216182D02*
X0121819Y0216182D01*
X0122487Y0218117D02*
X0123821Y0218117D01*
X0124488Y0218784D01*
X0124488Y0220118D01*
X0123821Y0220786D01*
X0122487Y0220786D01*
X0121819Y0220118D01*
X0121819Y0218784D01*
X0122487Y0218117D01*
X0121819Y0222721D02*
X0123821Y0222721D01*
X0124488Y0223388D01*
X0124488Y0225389D01*
X0121819Y0225389D01*
X0121819Y0227324D02*
X0121819Y0228659D01*
X0121152Y0227992D02*
X0123821Y0227992D01*
X0124488Y0228659D01*
X0124488Y0234998D02*
X0124488Y0236999D01*
X0123821Y0237667D01*
X0122487Y0237667D01*
X0121819Y0236999D01*
X0121819Y0234998D01*
X0120485Y0234998D02*
X0124488Y0234998D01*
X0123821Y0239602D02*
X0124488Y0240269D01*
X0124488Y0242271D01*
X0125156Y0242271D02*
X0125823Y0241603D01*
X0125823Y0240936D01*
X0125156Y0242271D02*
X0121819Y0242271D01*
X0121819Y0239602D02*
X0123821Y0239602D01*
X0124488Y0248809D02*
X0120485Y0248809D01*
X0120485Y0250811D01*
X0121152Y0251478D01*
X0122487Y0251478D01*
X0123154Y0250811D01*
X0123154Y0248809D01*
X0123154Y0250144D02*
X0124488Y0251478D01*
X0123821Y0253413D02*
X0124488Y0254081D01*
X0124488Y0255415D01*
X0123821Y0256082D01*
X0122487Y0256082D01*
X0121819Y0255415D01*
X0121819Y0254081D01*
X0122487Y0253413D01*
X0123821Y0253413D01*
X0123821Y0258017D02*
X0122487Y0258017D01*
X0121819Y0258685D01*
X0121819Y0260686D01*
X0125156Y0260686D01*
X0125823Y0260019D01*
X0125823Y0259352D01*
X0124488Y0258685D02*
X0124488Y0260686D01*
X0124488Y0262621D02*
X0124488Y0263956D01*
X0124488Y0263288D02*
X0120485Y0263288D01*
X0120485Y0262621D01*
X0118488Y0263389D02*
X0114485Y0263389D01*
X0114485Y0266057D01*
X0116487Y0264723D02*
X0116487Y0263389D01*
X0116487Y0267992D02*
X0117821Y0267992D01*
X0118488Y0268660D01*
X0118488Y0269994D01*
X0117821Y0270661D01*
X0116487Y0270661D01*
X0115819Y0269994D01*
X0115819Y0268660D01*
X0116487Y0267992D01*
X0115819Y0272596D02*
X0115819Y0274598D01*
X0116487Y0275265D01*
X0118488Y0275265D01*
X0118488Y0277200D02*
X0118488Y0278535D01*
X0118488Y0277868D02*
X0115819Y0277868D01*
X0115819Y0277200D01*
X0114485Y0277868D02*
X0113818Y0277868D01*
X0114485Y0280270D02*
X0118488Y0280270D01*
X0117154Y0280270D02*
X0118488Y0282271D01*
X0117154Y0280270D02*
X0115819Y0282271D01*
X0115152Y0288710D02*
X0114485Y0289377D01*
X0114485Y0290712D01*
X0115152Y0291379D01*
X0115819Y0291379D01*
X0118488Y0288710D01*
X0118488Y0291379D01*
X0117821Y0293314D02*
X0118488Y0293981D01*
X0118488Y0295316D01*
X0117821Y0295983D01*
X0115152Y0295983D01*
X0117821Y0293314D01*
X0115152Y0293314D01*
X0114485Y0293981D01*
X0114485Y0295316D01*
X0115152Y0295983D01*
X0115152Y0297918D02*
X0114485Y0298585D01*
X0114485Y0299920D01*
X0115152Y0300587D01*
X0117821Y0297918D01*
X0118488Y0298585D01*
X0118488Y0299920D01*
X0117821Y0300587D01*
X0115152Y0300587D01*
X0115152Y0302522D02*
X0115819Y0302522D01*
X0116487Y0303189D01*
X0116487Y0305191D01*
X0117821Y0305191D02*
X0115152Y0305191D01*
X0114485Y0304524D01*
X0114485Y0303189D01*
X0115152Y0302522D01*
X0115152Y0297918D02*
X0117821Y0297918D01*
X0117821Y0302522D02*
X0118488Y0303189D01*
X0118488Y0304524D01*
X0117821Y0305191D01*
X0120485Y0307026D02*
X0120485Y0308360D01*
X0121152Y0309027D01*
X0123821Y0306358D01*
X0124488Y0307026D01*
X0124488Y0308360D01*
X0123821Y0309027D01*
X0121152Y0309027D01*
X0120485Y0307026D02*
X0121152Y0306358D01*
X0123821Y0306358D01*
X0121819Y0304423D02*
X0124488Y0303089D01*
X0121819Y0301755D01*
X0121152Y0295216D02*
X0123821Y0292547D01*
X0124488Y0292547D01*
X0124488Y0290612D02*
X0124488Y0287943D01*
X0124488Y0289277D02*
X0120485Y0289277D01*
X0121819Y0287943D01*
X0121152Y0286008D02*
X0123821Y0283339D01*
X0124488Y0284006D01*
X0124488Y0285341D01*
X0123821Y0286008D01*
X0121152Y0286008D01*
X0120485Y0285341D01*
X0120485Y0284006D01*
X0121152Y0283339D01*
X0123821Y0283339D01*
X0124488Y0281404D02*
X0124488Y0278735D01*
X0121819Y0281404D01*
X0121152Y0281404D01*
X0120485Y0280737D01*
X0120485Y0279402D01*
X0121152Y0278735D01*
X0121819Y0272296D02*
X0123154Y0270294D01*
X0124488Y0272296D01*
X0124488Y0270294D02*
X0120485Y0270294D01*
X0122487Y0268359D02*
X0121819Y0267692D01*
X0121819Y0266358D01*
X0122487Y0265690D01*
X0123821Y0265690D01*
X0124488Y0266358D01*
X0124488Y0267692D01*
X0123821Y0268359D01*
X0122487Y0268359D01*
X0118488Y0272596D02*
X0115819Y0272596D01*
X0115819Y0256850D02*
X0119156Y0256850D01*
X0119823Y0256182D01*
X0119823Y0255515D01*
X0118488Y0254848D02*
X0118488Y0256850D01*
X0118488Y0254848D02*
X0117821Y0254181D01*
X0115819Y0254181D01*
X0116487Y0252246D02*
X0115819Y0251578D01*
X0115819Y0249577D01*
X0114485Y0249577D02*
X0118488Y0249577D01*
X0118488Y0251578D01*
X0117821Y0252246D01*
X0116487Y0252246D01*
X0115819Y0243138D02*
X0115819Y0242471D01*
X0117154Y0241136D01*
X0118488Y0241136D02*
X0115819Y0241136D01*
X0116487Y0239201D02*
X0117154Y0239201D01*
X0117154Y0236532D01*
X0117821Y0236532D02*
X0116487Y0236532D01*
X0115819Y0237200D01*
X0115819Y0238534D01*
X0116487Y0239201D01*
X0118488Y0237200D02*
X0117821Y0236532D01*
X0118488Y0237200D02*
X0118488Y0238534D01*
X0118488Y0234597D02*
X0118488Y0232596D01*
X0117821Y0231928D01*
X0116487Y0231928D01*
X0115819Y0232596D01*
X0115819Y0234597D01*
X0114485Y0234597D02*
X0118488Y0234597D01*
X0118488Y0230194D02*
X0118488Y0228859D01*
X0118488Y0229526D02*
X0115819Y0229526D01*
X0115819Y0228859D01*
X0114485Y0229526D02*
X0113818Y0229526D01*
X0115819Y0226924D02*
X0118488Y0225590D01*
X0115819Y0224255D01*
X0115819Y0221853D02*
X0118488Y0221853D01*
X0118488Y0221186D02*
X0118488Y0222520D01*
X0117821Y0219251D02*
X0115152Y0219251D01*
X0114485Y0218584D01*
X0114485Y0216582D01*
X0118488Y0216582D01*
X0118488Y0218584D01*
X0117821Y0219251D01*
X0115819Y0221186D02*
X0115819Y0221853D01*
X0114485Y0221853D02*
X0113818Y0221853D01*
X0107792Y0206427D02*
X0107792Y0202424D01*
X0108459Y0204425D02*
X0105790Y0204425D01*
X0107792Y0206427D01*
X0108459Y0196427D02*
X0105790Y0196427D01*
X0105790Y0194425D01*
X0107125Y0195093D01*
X0107792Y0195093D01*
X0108459Y0194425D01*
X0108459Y0193091D01*
X0107792Y0192424D01*
X0106457Y0192424D01*
X0105790Y0193091D01*
X0103855Y0192424D02*
X0101186Y0192424D01*
X0102521Y0192424D02*
X0102521Y0196427D01*
X0101186Y0195093D01*
X0099251Y0195760D02*
X0099251Y0194425D01*
X0098584Y0193758D01*
X0096582Y0193758D01*
X0096582Y0192424D02*
X0096582Y0196427D01*
X0098584Y0196427D01*
X0099251Y0195760D01*
X0097917Y0193758D02*
X0099251Y0192424D01*
X0099251Y0202424D02*
X0097917Y0203758D01*
X0098584Y0203758D02*
X0096582Y0203758D01*
X0096582Y0202424D02*
X0096582Y0206427D01*
X0098584Y0206427D01*
X0099251Y0205760D01*
X0099251Y0204425D01*
X0098584Y0203758D01*
X0101186Y0202424D02*
X0103855Y0202424D01*
X0102521Y0202424D02*
X0102521Y0206427D01*
X0101186Y0205093D01*
X0086157Y0220591D02*
X0085490Y0219924D01*
X0084156Y0219924D01*
X0083488Y0220591D01*
X0083488Y0221925D02*
X0084823Y0222593D01*
X0085490Y0222593D01*
X0086157Y0221925D01*
X0086157Y0220591D01*
X0083488Y0221925D02*
X0083488Y0223927D01*
X0086157Y0223927D01*
X0081553Y0223260D02*
X0081553Y0220591D01*
X0080886Y0219924D01*
X0079552Y0219924D01*
X0078884Y0220591D01*
X0078884Y0223260D01*
X0079552Y0223927D01*
X0080886Y0223927D01*
X0081553Y0223260D01*
X0080219Y0221258D02*
X0081553Y0219924D01*
X0075487Y0234825D02*
X0072818Y0234825D01*
X0075487Y0237494D01*
X0075487Y0238162D01*
X0074820Y0238829D01*
X0073485Y0238829D01*
X0072818Y0238162D01*
X0070883Y0238829D02*
X0068214Y0234825D01*
X0066279Y0238829D02*
X0063610Y0238829D01*
X0063610Y0234825D01*
X0063610Y0236827D02*
X0064944Y0236827D01*
X0063584Y0225427D02*
X0061582Y0225427D01*
X0061582Y0221424D01*
X0061582Y0222758D02*
X0063584Y0222758D01*
X0064251Y0223425D01*
X0064251Y0224760D01*
X0063584Y0225427D01*
X0062917Y0222758D02*
X0064251Y0221424D01*
X0066186Y0221424D02*
X0068855Y0221424D01*
X0067521Y0221424D02*
X0067521Y0225427D01*
X0066186Y0224093D01*
X0070790Y0224760D02*
X0071457Y0225427D01*
X0072792Y0225427D01*
X0073459Y0224760D01*
X0073459Y0224093D01*
X0072792Y0223425D01*
X0073459Y0222758D01*
X0073459Y0222091D01*
X0072792Y0221424D01*
X0071457Y0221424D01*
X0070790Y0222091D01*
X0072125Y0223425D02*
X0072792Y0223425D01*
X0070883Y0162057D02*
X0068214Y0158054D01*
X0066279Y0162057D02*
X0063610Y0162057D01*
X0063610Y0158054D01*
X0063610Y0160055D02*
X0064944Y0160055D01*
X0063584Y0147927D02*
X0061582Y0147927D01*
X0061582Y0143924D01*
X0061582Y0145258D02*
X0063584Y0145258D01*
X0064251Y0145925D01*
X0064251Y0147260D01*
X0063584Y0147927D01*
X0062917Y0145258D02*
X0064251Y0143924D01*
X0066186Y0143924D02*
X0068855Y0143924D01*
X0067521Y0143924D02*
X0067521Y0147927D01*
X0066186Y0146593D01*
X0070790Y0145925D02*
X0070790Y0144591D01*
X0071457Y0143924D01*
X0072792Y0143924D01*
X0073459Y0144591D01*
X0073459Y0145258D01*
X0072792Y0145925D01*
X0070790Y0145925D01*
X0072125Y0147260D01*
X0073459Y0147927D01*
X0074820Y0158054D02*
X0074820Y0162057D01*
X0072818Y0160055D01*
X0075487Y0160055D01*
X0079552Y0146427D02*
X0080886Y0146427D01*
X0081553Y0145760D01*
X0081553Y0143091D01*
X0080886Y0142424D01*
X0079552Y0142424D01*
X0078884Y0143091D01*
X0078884Y0145760D01*
X0079552Y0146427D01*
X0080219Y0143758D02*
X0081553Y0142424D01*
X0083488Y0143091D02*
X0084156Y0142424D01*
X0085490Y0142424D01*
X0086157Y0143091D01*
X0086157Y0143758D01*
X0085490Y0144425D01*
X0083488Y0144425D01*
X0083488Y0143091D01*
X0083488Y0144425D02*
X0084823Y0145760D01*
X0086157Y0146427D01*
X0096582Y0128927D02*
X0096582Y0124924D01*
X0096582Y0126258D02*
X0098584Y0126258D01*
X0099251Y0126925D01*
X0099251Y0128260D01*
X0098584Y0128927D01*
X0096582Y0128927D01*
X0097917Y0126258D02*
X0099251Y0124924D01*
X0101186Y0124924D02*
X0103855Y0124924D01*
X0102521Y0124924D02*
X0102521Y0128927D01*
X0101186Y0127593D01*
X0102521Y0118927D02*
X0101186Y0117593D01*
X0102521Y0118927D02*
X0102521Y0114924D01*
X0103855Y0114924D02*
X0101186Y0114924D01*
X0099251Y0114924D02*
X0097917Y0116258D01*
X0098584Y0116258D02*
X0096582Y0116258D01*
X0096582Y0114924D02*
X0096582Y0118927D01*
X0098584Y0118927D01*
X0099251Y0118260D01*
X0099251Y0116925D01*
X0098584Y0116258D01*
X0105790Y0116258D02*
X0106457Y0116925D01*
X0107792Y0116925D01*
X0108459Y0116258D01*
X0108459Y0115591D01*
X0107792Y0114924D01*
X0106457Y0114924D01*
X0105790Y0115591D01*
X0105790Y0116258D01*
X0106457Y0116925D02*
X0105790Y0117593D01*
X0105790Y0118260D01*
X0106457Y0118927D01*
X0107792Y0118927D01*
X0108459Y0118260D01*
X0108459Y0117593D01*
X0107792Y0116925D01*
X0105790Y0124924D02*
X0105790Y0125591D01*
X0108459Y0128260D01*
X0108459Y0128927D01*
X0105790Y0128927D01*
X0086157Y0068927D02*
X0086157Y0068260D01*
X0083488Y0065591D01*
X0083488Y0064924D01*
X0083488Y0068927D02*
X0086157Y0068927D01*
X0081553Y0068260D02*
X0081553Y0065591D01*
X0080886Y0064924D01*
X0079552Y0064924D01*
X0078884Y0065591D01*
X0078884Y0068260D01*
X0079552Y0068927D01*
X0080886Y0068927D01*
X0081553Y0068260D01*
X0080219Y0066258D02*
X0081553Y0064924D01*
X0074820Y0081282D02*
X0073485Y0081282D01*
X0072818Y0081949D01*
X0072818Y0082617D01*
X0073485Y0083284D01*
X0074820Y0083284D01*
X0075487Y0082617D01*
X0075487Y0081949D01*
X0074820Y0081282D01*
X0074820Y0083284D02*
X0075487Y0083951D01*
X0075487Y0084618D01*
X0074820Y0085285D01*
X0073485Y0085285D01*
X0072818Y0084618D01*
X0072818Y0083951D01*
X0073485Y0083284D01*
X0070883Y0085285D02*
X0068214Y0081282D01*
X0066279Y0085285D02*
X0063610Y0085285D01*
X0063610Y0081282D01*
X0063610Y0083284D02*
X0064944Y0083284D01*
X0063584Y0070427D02*
X0061582Y0070427D01*
X0061582Y0066424D01*
X0061582Y0067758D02*
X0063584Y0067758D01*
X0064251Y0068425D01*
X0064251Y0069760D01*
X0063584Y0070427D01*
X0062917Y0067758D02*
X0064251Y0066424D01*
X0066186Y0066424D02*
X0068855Y0066424D01*
X0067521Y0066424D02*
X0067521Y0070427D01*
X0066186Y0069093D01*
X0070790Y0069093D02*
X0071457Y0068425D01*
X0073459Y0068425D01*
X0073459Y0067091D02*
X0073459Y0069760D01*
X0072792Y0070427D01*
X0071457Y0070427D01*
X0070790Y0069760D01*
X0070790Y0069093D01*
X0070790Y0067091D02*
X0071457Y0066424D01*
X0072792Y0066424D01*
X0073459Y0067091D01*
X0075289Y0008514D02*
X0073954Y0007847D01*
X0072620Y0006512D01*
X0074621Y0006512D01*
X0075289Y0005845D01*
X0075289Y0005178D01*
X0074621Y0004510D01*
X0073287Y0004510D01*
X0072620Y0005178D01*
X0072620Y0006512D01*
X0070685Y0004510D02*
X0068016Y0004510D01*
X0069350Y0004510D02*
X0069350Y0008514D01*
X0068016Y0007179D01*
X0066081Y0008514D02*
X0063412Y0004510D01*
X0061477Y0008514D02*
X0058808Y0008514D01*
X0058808Y0004510D01*
X0058808Y0006512D02*
X0060142Y0006512D01*
X0025761Y0011525D02*
X0023092Y0011525D01*
X0025094Y0013527D01*
X0025094Y0009524D01*
X0021157Y0010191D02*
X0020490Y0009524D01*
X0018488Y0009524D01*
X0018488Y0013527D01*
X0020490Y0013527D01*
X0021157Y0012860D01*
X0021157Y0010191D01*
X0016553Y0009524D02*
X0013884Y0009524D01*
X0013884Y0013527D01*
X0016553Y0013527D01*
X0015219Y0011525D02*
X0013884Y0011525D01*
X0011949Y0009524D02*
X0009280Y0009524D01*
X0009280Y0013527D01*
X0027988Y0021924D02*
X0027801Y0021681D01*
X0027609Y0021443D01*
X0027410Y0021210D01*
X0027206Y0020982D01*
X0026997Y0020759D01*
X0026782Y0020541D01*
X0026562Y0020328D01*
X0026337Y0020121D01*
X0026106Y0019919D01*
X0025871Y0019723D01*
X0025631Y0019533D01*
X0025387Y0019349D01*
X0025138Y0019171D01*
X0024884Y0018999D01*
X0024627Y0018833D01*
X0024366Y0018673D01*
X0024101Y0018520D01*
X0023832Y0018374D01*
X0023559Y0018234D01*
X0023284Y0018101D01*
X0023005Y0017975D01*
X0022723Y0017855D01*
X0022438Y0017743D01*
X0022151Y0017638D01*
X0021861Y0017539D01*
X0021569Y0017448D01*
X0021274Y0017364D01*
X0020978Y0017287D01*
X0020680Y0017217D01*
X0020380Y0017155D01*
X0020079Y0017100D01*
X0019777Y0017053D01*
X0019473Y0017013D01*
X0019169Y0016980D01*
X0018864Y0016955D01*
X0018558Y0016937D01*
X0018252Y0016927D01*
X0017946Y0016924D01*
X0017640Y0016929D01*
X0017334Y0016941D01*
X0017028Y0016961D01*
X0016724Y0016988D01*
X0016419Y0017023D01*
X0016116Y0017065D01*
X0015814Y0017114D01*
X0015513Y0017171D01*
X0015214Y0017236D01*
X0014916Y0017307D01*
X0014621Y0017386D01*
X0014327Y0017472D01*
X0014035Y0017565D01*
X0013746Y0017666D01*
X0013459Y0017773D01*
X0013175Y0017888D01*
X0012894Y0018009D01*
X0012616Y0018137D01*
X0012341Y0018272D01*
X0012070Y0018414D01*
X0011802Y0018562D01*
X0011538Y0018717D01*
X0011278Y0018878D01*
X0011022Y0019045D01*
X0010769Y0019219D01*
X0010522Y0019399D01*
X0010278Y0019585D01*
X0010040Y0019776D01*
X0009806Y0019974D01*
X0009577Y0020177D01*
X0009353Y0020386D01*
X0009134Y0020600D01*
X0008921Y0020820D01*
X0008713Y0021044D01*
X0008510Y0021274D01*
X0008314Y0021508D01*
X0008123Y0021748D01*
X0007938Y0021991D01*
X0007759Y0022240D01*
X0007586Y0022492D01*
X0007419Y0022749D01*
X0007259Y0023010D01*
X0007105Y0023275D01*
X0006958Y0023543D01*
X0006817Y0023815D01*
X0006683Y0024090D01*
X0006556Y0024369D01*
X0006435Y0024650D01*
X0006322Y0024935D01*
X0006216Y0025222D01*
X0006116Y0025511D01*
X0006024Y0025803D01*
X0005939Y0026097D01*
X0005861Y0026393D01*
X0005790Y0026691D01*
X0005727Y0026991D01*
X0005671Y0027292D01*
X0005623Y0027594D01*
X0005582Y0027897D01*
X0005548Y0028201D01*
X0005522Y0028506D01*
X0005503Y0028812D01*
X0005492Y0029118D01*
X0005488Y0029424D01*
X0005492Y0029730D01*
X0005503Y0030036D01*
X0005522Y0030342D01*
X0005548Y0030647D01*
X0005582Y0030951D01*
X0005623Y0031254D01*
X0005671Y0031556D01*
X0005727Y0031857D01*
X0005790Y0032157D01*
X0005861Y0032455D01*
X0005939Y0032751D01*
X0006024Y0033045D01*
X0006116Y0033337D01*
X0006216Y0033626D01*
X0006322Y0033913D01*
X0006435Y0034198D01*
X0006556Y0034479D01*
X0006683Y0034758D01*
X0006817Y0035033D01*
X0006958Y0035305D01*
X0007105Y0035573D01*
X0007259Y0035838D01*
X0007419Y0036099D01*
X0007586Y0036356D01*
X0007759Y0036608D01*
X0007938Y0036857D01*
X0008123Y0037100D01*
X0008314Y0037340D01*
X0008510Y0037574D01*
X0008713Y0037804D01*
X0008921Y0038028D01*
X0009134Y0038248D01*
X0009353Y0038462D01*
X0009577Y0038671D01*
X0009806Y0038874D01*
X0010040Y0039072D01*
X0010278Y0039263D01*
X0010522Y0039449D01*
X0010769Y0039629D01*
X0011022Y0039803D01*
X0011278Y0039970D01*
X0011538Y0040131D01*
X0011802Y0040286D01*
X0012070Y0040434D01*
X0012341Y0040576D01*
X0012616Y0040711D01*
X0012894Y0040839D01*
X0013175Y0040960D01*
X0013459Y0041075D01*
X0013746Y0041182D01*
X0014035Y0041283D01*
X0014327Y0041376D01*
X0014621Y0041462D01*
X0014916Y0041541D01*
X0015214Y0041612D01*
X0015513Y0041677D01*
X0015814Y0041734D01*
X0016116Y0041783D01*
X0016419Y0041825D01*
X0016724Y0041860D01*
X0017028Y0041887D01*
X0017334Y0041907D01*
X0017640Y0041919D01*
X0017946Y0041924D01*
X0018252Y0041921D01*
X0018558Y0041911D01*
X0018864Y0041893D01*
X0019169Y0041868D01*
X0019473Y0041835D01*
X0019777Y0041795D01*
X0020079Y0041748D01*
X0020380Y0041693D01*
X0020680Y0041631D01*
X0020978Y0041561D01*
X0021274Y0041484D01*
X0021569Y0041400D01*
X0021861Y0041309D01*
X0022151Y0041210D01*
X0022438Y0041105D01*
X0022723Y0040993D01*
X0023005Y0040873D01*
X0023284Y0040747D01*
X0023559Y0040614D01*
X0023832Y0040474D01*
X0024101Y0040328D01*
X0024366Y0040175D01*
X0024627Y0040015D01*
X0024884Y0039849D01*
X0025138Y0039677D01*
X0025387Y0039499D01*
X0025631Y0039315D01*
X0025871Y0039125D01*
X0026106Y0038929D01*
X0026337Y0038727D01*
X0026562Y0038520D01*
X0026782Y0038307D01*
X0026997Y0038089D01*
X0027206Y0037866D01*
X0027410Y0037638D01*
X0027609Y0037405D01*
X0027801Y0037167D01*
X0027988Y0036924D01*
X0025094Y0086295D02*
X0023759Y0086295D01*
X0023092Y0086963D01*
X0024427Y0088297D02*
X0025094Y0088297D01*
X0025761Y0087630D01*
X0025761Y0086963D01*
X0025094Y0086295D01*
X0025094Y0088297D02*
X0025761Y0088964D01*
X0025761Y0089632D01*
X0025094Y0090299D01*
X0023759Y0090299D01*
X0023092Y0089632D01*
X0021157Y0089632D02*
X0020490Y0090299D01*
X0018488Y0090299D01*
X0018488Y0086295D01*
X0020490Y0086295D01*
X0021157Y0086963D01*
X0021157Y0089632D01*
X0016553Y0090299D02*
X0013884Y0090299D01*
X0013884Y0086295D01*
X0016553Y0086295D01*
X0015219Y0088297D02*
X0013884Y0088297D01*
X0011949Y0086295D02*
X0009280Y0086295D01*
X0009280Y0090299D01*
X0027988Y0098695D02*
X0027801Y0098452D01*
X0027609Y0098214D01*
X0027410Y0097981D01*
X0027206Y0097753D01*
X0026997Y0097530D01*
X0026782Y0097312D01*
X0026562Y0097099D01*
X0026337Y0096892D01*
X0026106Y0096690D01*
X0025871Y0096494D01*
X0025631Y0096304D01*
X0025387Y0096120D01*
X0025138Y0095942D01*
X0024884Y0095770D01*
X0024627Y0095604D01*
X0024366Y0095444D01*
X0024101Y0095291D01*
X0023832Y0095145D01*
X0023559Y0095005D01*
X0023284Y0094872D01*
X0023005Y0094746D01*
X0022723Y0094626D01*
X0022438Y0094514D01*
X0022151Y0094409D01*
X0021861Y0094310D01*
X0021569Y0094219D01*
X0021274Y0094135D01*
X0020978Y0094058D01*
X0020680Y0093988D01*
X0020380Y0093926D01*
X0020079Y0093871D01*
X0019777Y0093824D01*
X0019473Y0093784D01*
X0019169Y0093751D01*
X0018864Y0093726D01*
X0018558Y0093708D01*
X0018252Y0093698D01*
X0017946Y0093695D01*
X0017640Y0093700D01*
X0017334Y0093712D01*
X0017028Y0093732D01*
X0016724Y0093759D01*
X0016419Y0093794D01*
X0016116Y0093836D01*
X0015814Y0093885D01*
X0015513Y0093942D01*
X0015214Y0094007D01*
X0014916Y0094078D01*
X0014621Y0094157D01*
X0014327Y0094243D01*
X0014035Y0094336D01*
X0013746Y0094437D01*
X0013459Y0094544D01*
X0013175Y0094659D01*
X0012894Y0094780D01*
X0012616Y0094908D01*
X0012341Y0095043D01*
X0012070Y0095185D01*
X0011802Y0095333D01*
X0011538Y0095488D01*
X0011278Y0095649D01*
X0011022Y0095816D01*
X0010769Y0095990D01*
X0010522Y0096170D01*
X0010278Y0096356D01*
X0010040Y0096547D01*
X0009806Y0096745D01*
X0009577Y0096948D01*
X0009353Y0097157D01*
X0009134Y0097371D01*
X0008921Y0097591D01*
X0008713Y0097815D01*
X0008510Y0098045D01*
X0008314Y0098279D01*
X0008123Y0098519D01*
X0007938Y0098762D01*
X0007759Y0099011D01*
X0007586Y0099263D01*
X0007419Y0099520D01*
X0007259Y0099781D01*
X0007105Y0100046D01*
X0006958Y0100314D01*
X0006817Y0100586D01*
X0006683Y0100861D01*
X0006556Y0101140D01*
X0006435Y0101421D01*
X0006322Y0101706D01*
X0006216Y0101993D01*
X0006116Y0102282D01*
X0006024Y0102574D01*
X0005939Y0102868D01*
X0005861Y0103164D01*
X0005790Y0103462D01*
X0005727Y0103762D01*
X0005671Y0104063D01*
X0005623Y0104365D01*
X0005582Y0104668D01*
X0005548Y0104972D01*
X0005522Y0105277D01*
X0005503Y0105583D01*
X0005492Y0105889D01*
X0005488Y0106195D01*
X0005492Y0106501D01*
X0005503Y0106807D01*
X0005522Y0107113D01*
X0005548Y0107418D01*
X0005582Y0107722D01*
X0005623Y0108025D01*
X0005671Y0108327D01*
X0005727Y0108628D01*
X0005790Y0108928D01*
X0005861Y0109226D01*
X0005939Y0109522D01*
X0006024Y0109816D01*
X0006116Y0110108D01*
X0006216Y0110397D01*
X0006322Y0110684D01*
X0006435Y0110969D01*
X0006556Y0111250D01*
X0006683Y0111529D01*
X0006817Y0111804D01*
X0006958Y0112076D01*
X0007105Y0112344D01*
X0007259Y0112609D01*
X0007419Y0112870D01*
X0007586Y0113127D01*
X0007759Y0113379D01*
X0007938Y0113628D01*
X0008123Y0113871D01*
X0008314Y0114111D01*
X0008510Y0114345D01*
X0008713Y0114575D01*
X0008921Y0114799D01*
X0009134Y0115019D01*
X0009353Y0115233D01*
X0009577Y0115442D01*
X0009806Y0115645D01*
X0010040Y0115843D01*
X0010278Y0116034D01*
X0010522Y0116220D01*
X0010769Y0116400D01*
X0011022Y0116574D01*
X0011278Y0116741D01*
X0011538Y0116902D01*
X0011802Y0117057D01*
X0012070Y0117205D01*
X0012341Y0117347D01*
X0012616Y0117482D01*
X0012894Y0117610D01*
X0013175Y0117731D01*
X0013459Y0117846D01*
X0013746Y0117953D01*
X0014035Y0118054D01*
X0014327Y0118147D01*
X0014621Y0118233D01*
X0014916Y0118312D01*
X0015214Y0118383D01*
X0015513Y0118448D01*
X0015814Y0118505D01*
X0016116Y0118554D01*
X0016419Y0118596D01*
X0016724Y0118631D01*
X0017028Y0118658D01*
X0017334Y0118678D01*
X0017640Y0118690D01*
X0017946Y0118695D01*
X0018252Y0118692D01*
X0018558Y0118682D01*
X0018864Y0118664D01*
X0019169Y0118639D01*
X0019473Y0118606D01*
X0019777Y0118566D01*
X0020079Y0118519D01*
X0020380Y0118464D01*
X0020680Y0118402D01*
X0020978Y0118332D01*
X0021274Y0118255D01*
X0021569Y0118171D01*
X0021861Y0118080D01*
X0022151Y0117981D01*
X0022438Y0117876D01*
X0022723Y0117764D01*
X0023005Y0117644D01*
X0023284Y0117518D01*
X0023559Y0117385D01*
X0023832Y0117245D01*
X0024101Y0117099D01*
X0024366Y0116946D01*
X0024627Y0116786D01*
X0024884Y0116620D01*
X0025138Y0116448D01*
X0025387Y0116270D01*
X0025631Y0116086D01*
X0025871Y0115896D01*
X0026106Y0115700D01*
X0026337Y0115498D01*
X0026562Y0115291D01*
X0026782Y0115078D01*
X0026997Y0114860D01*
X0027206Y0114637D01*
X0027410Y0114409D01*
X0027609Y0114176D01*
X0027801Y0113938D01*
X0027988Y0113695D01*
X0027904Y0127424D02*
X0027904Y0130093D01*
X0029906Y0130093D01*
X0030573Y0129425D01*
X0030573Y0127424D01*
X0030106Y0134924D02*
X0029439Y0135591D01*
X0029439Y0136925D01*
X0030106Y0137593D01*
X0031440Y0137593D01*
X0032108Y0136925D01*
X0032108Y0136258D01*
X0029439Y0136258D01*
X0030106Y0134924D02*
X0031440Y0134924D01*
X0034043Y0134924D02*
X0034043Y0137593D01*
X0035377Y0137593D02*
X0034043Y0136258D01*
X0035377Y0137593D02*
X0036044Y0137593D01*
X0034510Y0149924D02*
X0033175Y0149924D01*
X0032508Y0150591D01*
X0032508Y0151925D01*
X0034510Y0151925D01*
X0035177Y0151258D01*
X0035177Y0150591D01*
X0034510Y0149924D01*
X0032508Y0151925D02*
X0033842Y0153260D01*
X0035177Y0153927D01*
X0037112Y0153260D02*
X0037779Y0153927D01*
X0039114Y0153927D01*
X0039781Y0153260D01*
X0037112Y0150591D01*
X0037779Y0149924D01*
X0039114Y0149924D01*
X0039781Y0150591D01*
X0039781Y0153260D01*
X0041716Y0152593D02*
X0043050Y0153927D01*
X0043050Y0149924D01*
X0041716Y0149924D02*
X0044385Y0149924D01*
X0047988Y0156924D02*
X0005488Y0156924D01*
X0005488Y0124424D01*
X0047988Y0124424D01*
X0047988Y0156924D01*
X0057988Y0151924D02*
X0059238Y0154424D01*
X0060488Y0151924D01*
X0060546Y0151864D01*
X0060600Y0151801D01*
X0060652Y0151736D01*
X0060700Y0151668D01*
X0060745Y0151598D01*
X0060787Y0151526D01*
X0060826Y0151452D01*
X0060861Y0151376D01*
X0060892Y0151299D01*
X0060919Y0151220D01*
X0060943Y0151141D01*
X0060963Y0151060D01*
X0060980Y0150978D01*
X0060992Y0150896D01*
X0061001Y0150813D01*
X0061005Y0150730D01*
X0061006Y0150646D01*
X0061003Y0150563D01*
X0060995Y0150480D01*
X0060984Y0150397D01*
X0060969Y0150315D01*
X0060950Y0150234D01*
X0060928Y0150154D01*
X0060901Y0150075D01*
X0060871Y0149997D01*
X0060838Y0149921D01*
X0060800Y0149847D01*
X0060760Y0149774D01*
X0060716Y0149703D01*
X0060668Y0149635D01*
X0060618Y0149569D01*
X0060564Y0149505D01*
X0060508Y0149444D01*
X0060448Y0149385D01*
X0060386Y0149330D01*
X0060322Y0149277D01*
X0060255Y0149228D01*
X0060185Y0149181D01*
X0060114Y0149138D01*
X0060041Y0149099D01*
X0059966Y0149063D01*
X0059889Y0149030D01*
X0059811Y0149001D01*
X0059731Y0148976D01*
X0059651Y0148955D01*
X0059569Y0148937D01*
X0059487Y0148924D01*
X0059404Y0148914D01*
X0059321Y0148908D01*
X0059238Y0148906D01*
X0059155Y0148908D01*
X0059072Y0148914D01*
X0058989Y0148924D01*
X0058907Y0148937D01*
X0058825Y0148955D01*
X0058745Y0148976D01*
X0058665Y0149001D01*
X0058587Y0149030D01*
X0058510Y0149063D01*
X0058435Y0149099D01*
X0058362Y0149138D01*
X0058291Y0149181D01*
X0058221Y0149228D01*
X0058154Y0149277D01*
X0058090Y0149330D01*
X0058028Y0149385D01*
X0057968Y0149444D01*
X0057912Y0149505D01*
X0057858Y0149569D01*
X0057808Y0149635D01*
X0057760Y0149703D01*
X0057716Y0149774D01*
X0057676Y0149847D01*
X0057638Y0149921D01*
X0057605Y0149997D01*
X0057575Y0150075D01*
X0057548Y0150154D01*
X0057526Y0150234D01*
X0057507Y0150315D01*
X0057492Y0150397D01*
X0057481Y0150480D01*
X0057473Y0150563D01*
X0057470Y0150646D01*
X0057471Y0150730D01*
X0057475Y0150813D01*
X0057484Y0150896D01*
X0057496Y0150978D01*
X0057513Y0151060D01*
X0057533Y0151141D01*
X0057557Y0151220D01*
X0057584Y0151299D01*
X0057615Y0151376D01*
X0057650Y0151452D01*
X0057689Y0151526D01*
X0057731Y0151598D01*
X0057776Y0151668D01*
X0057824Y0151736D01*
X0057876Y0151801D01*
X0057930Y0151864D01*
X0057988Y0151924D01*
X0037112Y0150591D02*
X0037112Y0153260D01*
X0030573Y0149924D02*
X0027904Y0149924D01*
X0029238Y0149924D02*
X0029238Y0153927D01*
X0027904Y0152593D01*
X0028371Y0145093D02*
X0027037Y0145093D01*
X0026369Y0144425D01*
X0026369Y0143091D01*
X0027037Y0142424D01*
X0028371Y0142424D01*
X0029038Y0143758D02*
X0026369Y0143758D01*
X0024434Y0144425D02*
X0024434Y0142424D01*
X0024434Y0144425D02*
X0023767Y0145093D01*
X0021765Y0145093D01*
X0021765Y0142424D01*
X0019830Y0143091D02*
X0019830Y0144425D01*
X0019163Y0145093D01*
X0017829Y0145093D01*
X0017162Y0144425D01*
X0017162Y0143091D01*
X0017829Y0142424D01*
X0019163Y0142424D01*
X0019830Y0143091D01*
X0022433Y0139594D02*
X0022433Y0138927D01*
X0022433Y0137593D02*
X0022433Y0134924D01*
X0023100Y0134924D02*
X0021765Y0134924D01*
X0021765Y0137593D02*
X0022433Y0137593D01*
X0019830Y0137593D02*
X0018496Y0134924D01*
X0017162Y0137593D01*
X0015427Y0134924D02*
X0014092Y0134924D01*
X0014759Y0134924D02*
X0014759Y0137593D01*
X0014092Y0137593D01*
X0014759Y0138927D02*
X0014759Y0139594D01*
X0014759Y0142424D02*
X0014759Y0146427D01*
X0014092Y0146427D01*
X0012157Y0145760D02*
X0011490Y0146427D01*
X0010156Y0146427D01*
X0009488Y0145760D01*
X0009488Y0143091D01*
X0010156Y0142424D01*
X0011490Y0142424D01*
X0012157Y0143091D01*
X0014092Y0142424D02*
X0015427Y0142424D01*
X0016761Y0149924D02*
X0015427Y0151258D01*
X0016094Y0151258D02*
X0014092Y0151258D01*
X0014092Y0149924D02*
X0014092Y0153927D01*
X0016094Y0153927D01*
X0016761Y0153260D01*
X0016761Y0151925D01*
X0016094Y0151258D01*
X0018696Y0151258D02*
X0020698Y0151258D01*
X0021365Y0151925D01*
X0021365Y0153260D01*
X0020698Y0153927D01*
X0018696Y0153927D01*
X0018696Y0149924D01*
X0018488Y0163067D02*
X0020490Y0163067D01*
X0021157Y0163734D01*
X0021157Y0166403D01*
X0020490Y0167070D01*
X0018488Y0167070D01*
X0018488Y0163067D01*
X0016553Y0163067D02*
X0013884Y0163067D01*
X0013884Y0167070D01*
X0016553Y0167070D01*
X0015219Y0165069D02*
X0013884Y0165069D01*
X0011949Y0163067D02*
X0009280Y0163067D01*
X0009280Y0167070D01*
X0010823Y0153927D02*
X0009488Y0152593D01*
X0009488Y0149924D01*
X0009488Y0151925D02*
X0012157Y0151925D01*
X0012157Y0152593D02*
X0012157Y0149924D01*
X0012157Y0152593D02*
X0010823Y0153927D01*
X0011490Y0138927D02*
X0009488Y0138927D01*
X0009488Y0134924D01*
X0011490Y0134924D01*
X0012157Y0135591D01*
X0012157Y0138260D01*
X0011490Y0138927D01*
X0010823Y0131427D02*
X0012157Y0130093D01*
X0012157Y0127424D01*
X0012157Y0129425D02*
X0009488Y0129425D01*
X0009488Y0130093D02*
X0010823Y0131427D01*
X0009488Y0130093D02*
X0009488Y0127424D01*
X0014092Y0128091D02*
X0014092Y0129425D01*
X0014759Y0130093D01*
X0016761Y0130093D01*
X0016761Y0131427D02*
X0016761Y0127424D01*
X0014759Y0127424D01*
X0014092Y0128091D01*
X0018696Y0128091D02*
X0018696Y0129425D01*
X0019363Y0130093D01*
X0021365Y0130093D01*
X0021365Y0131427D02*
X0021365Y0127424D01*
X0019363Y0127424D01*
X0018696Y0128091D01*
X0023300Y0128091D02*
X0023967Y0127424D01*
X0025302Y0127424D01*
X0025969Y0128091D01*
X0025969Y0129425D01*
X0025302Y0130093D01*
X0023967Y0130093D01*
X0023300Y0129425D01*
X0023300Y0128091D01*
X0025502Y0134924D02*
X0024835Y0135591D01*
X0024835Y0136925D01*
X0025502Y0137593D01*
X0027504Y0137593D01*
X0027504Y0138927D02*
X0027504Y0134924D01*
X0025502Y0134924D01*
X0029038Y0144425D02*
X0028371Y0145093D01*
X0029038Y0144425D02*
X0029038Y0143758D01*
X0025761Y0163067D02*
X0023092Y0163067D01*
X0025761Y0165736D01*
X0025761Y0166403D01*
X0025094Y0167070D01*
X0023759Y0167070D01*
X0023092Y0166403D01*
X0027988Y0175467D02*
X0027801Y0175224D01*
X0027609Y0174986D01*
X0027410Y0174753D01*
X0027206Y0174525D01*
X0026997Y0174302D01*
X0026782Y0174084D01*
X0026562Y0173871D01*
X0026337Y0173664D01*
X0026106Y0173462D01*
X0025871Y0173266D01*
X0025631Y0173076D01*
X0025387Y0172892D01*
X0025138Y0172714D01*
X0024884Y0172542D01*
X0024627Y0172376D01*
X0024366Y0172216D01*
X0024101Y0172063D01*
X0023832Y0171917D01*
X0023559Y0171777D01*
X0023284Y0171644D01*
X0023005Y0171518D01*
X0022723Y0171398D01*
X0022438Y0171286D01*
X0022151Y0171181D01*
X0021861Y0171082D01*
X0021569Y0170991D01*
X0021274Y0170907D01*
X0020978Y0170830D01*
X0020680Y0170760D01*
X0020380Y0170698D01*
X0020079Y0170643D01*
X0019777Y0170596D01*
X0019473Y0170556D01*
X0019169Y0170523D01*
X0018864Y0170498D01*
X0018558Y0170480D01*
X0018252Y0170470D01*
X0017946Y0170467D01*
X0017640Y0170472D01*
X0017334Y0170484D01*
X0017028Y0170504D01*
X0016724Y0170531D01*
X0016419Y0170566D01*
X0016116Y0170608D01*
X0015814Y0170657D01*
X0015513Y0170714D01*
X0015214Y0170779D01*
X0014916Y0170850D01*
X0014621Y0170929D01*
X0014327Y0171015D01*
X0014035Y0171108D01*
X0013746Y0171209D01*
X0013459Y0171316D01*
X0013175Y0171431D01*
X0012894Y0171552D01*
X0012616Y0171680D01*
X0012341Y0171815D01*
X0012070Y0171957D01*
X0011802Y0172105D01*
X0011538Y0172260D01*
X0011278Y0172421D01*
X0011022Y0172588D01*
X0010769Y0172762D01*
X0010522Y0172942D01*
X0010278Y0173128D01*
X0010040Y0173319D01*
X0009806Y0173517D01*
X0009577Y0173720D01*
X0009353Y0173929D01*
X0009134Y0174143D01*
X0008921Y0174363D01*
X0008713Y0174587D01*
X0008510Y0174817D01*
X0008314Y0175051D01*
X0008123Y0175291D01*
X0007938Y0175534D01*
X0007759Y0175783D01*
X0007586Y0176035D01*
X0007419Y0176292D01*
X0007259Y0176553D01*
X0007105Y0176818D01*
X0006958Y0177086D01*
X0006817Y0177358D01*
X0006683Y0177633D01*
X0006556Y0177912D01*
X0006435Y0178193D01*
X0006322Y0178478D01*
X0006216Y0178765D01*
X0006116Y0179054D01*
X0006024Y0179346D01*
X0005939Y0179640D01*
X0005861Y0179936D01*
X0005790Y0180234D01*
X0005727Y0180534D01*
X0005671Y0180835D01*
X0005623Y0181137D01*
X0005582Y0181440D01*
X0005548Y0181744D01*
X0005522Y0182049D01*
X0005503Y0182355D01*
X0005492Y0182661D01*
X0005488Y0182967D01*
X0005492Y0183273D01*
X0005503Y0183579D01*
X0005522Y0183885D01*
X0005548Y0184190D01*
X0005582Y0184494D01*
X0005623Y0184797D01*
X0005671Y0185099D01*
X0005727Y0185400D01*
X0005790Y0185700D01*
X0005861Y0185998D01*
X0005939Y0186294D01*
X0006024Y0186588D01*
X0006116Y0186880D01*
X0006216Y0187169D01*
X0006322Y0187456D01*
X0006435Y0187741D01*
X0006556Y0188022D01*
X0006683Y0188301D01*
X0006817Y0188576D01*
X0006958Y0188848D01*
X0007105Y0189116D01*
X0007259Y0189381D01*
X0007419Y0189642D01*
X0007586Y0189899D01*
X0007759Y0190151D01*
X0007938Y0190400D01*
X0008123Y0190643D01*
X0008314Y0190883D01*
X0008510Y0191117D01*
X0008713Y0191347D01*
X0008921Y0191571D01*
X0009134Y0191791D01*
X0009353Y0192005D01*
X0009577Y0192214D01*
X0009806Y0192417D01*
X0010040Y0192615D01*
X0010278Y0192806D01*
X0010522Y0192992D01*
X0010769Y0193172D01*
X0011022Y0193346D01*
X0011278Y0193513D01*
X0011538Y0193674D01*
X0011802Y0193829D01*
X0012070Y0193977D01*
X0012341Y0194119D01*
X0012616Y0194254D01*
X0012894Y0194382D01*
X0013175Y0194503D01*
X0013459Y0194618D01*
X0013746Y0194725D01*
X0014035Y0194826D01*
X0014327Y0194919D01*
X0014621Y0195005D01*
X0014916Y0195084D01*
X0015214Y0195155D01*
X0015513Y0195220D01*
X0015814Y0195277D01*
X0016116Y0195326D01*
X0016419Y0195368D01*
X0016724Y0195403D01*
X0017028Y0195430D01*
X0017334Y0195450D01*
X0017640Y0195462D01*
X0017946Y0195467D01*
X0018252Y0195464D01*
X0018558Y0195454D01*
X0018864Y0195436D01*
X0019169Y0195411D01*
X0019473Y0195378D01*
X0019777Y0195338D01*
X0020079Y0195291D01*
X0020380Y0195236D01*
X0020680Y0195174D01*
X0020978Y0195104D01*
X0021274Y0195027D01*
X0021569Y0194943D01*
X0021861Y0194852D01*
X0022151Y0194753D01*
X0022438Y0194648D01*
X0022723Y0194536D01*
X0023005Y0194416D01*
X0023284Y0194290D01*
X0023559Y0194157D01*
X0023832Y0194017D01*
X0024101Y0193871D01*
X0024366Y0193718D01*
X0024627Y0193558D01*
X0024884Y0193392D01*
X0025138Y0193220D01*
X0025387Y0193042D01*
X0025631Y0192858D01*
X0025871Y0192668D01*
X0026106Y0192472D01*
X0026337Y0192270D01*
X0026562Y0192063D01*
X0026782Y0191850D01*
X0026997Y0191632D01*
X0027206Y0191409D01*
X0027410Y0191181D01*
X0027609Y0190948D01*
X0027801Y0190710D01*
X0027988Y0190467D01*
X0025761Y0239839D02*
X0023092Y0239839D01*
X0024427Y0239839D02*
X0024427Y0243842D01*
X0023092Y0242508D01*
X0021157Y0243175D02*
X0020490Y0243842D01*
X0018488Y0243842D01*
X0018488Y0239839D01*
X0020490Y0239839D01*
X0021157Y0240506D01*
X0021157Y0243175D01*
X0016553Y0243842D02*
X0013884Y0243842D01*
X0013884Y0239839D01*
X0016553Y0239839D01*
X0015219Y0241840D02*
X0013884Y0241840D01*
X0011949Y0239839D02*
X0009280Y0239839D01*
X0009280Y0243842D01*
X0027988Y0252239D02*
X0027801Y0251996D01*
X0027609Y0251758D01*
X0027410Y0251525D01*
X0027206Y0251297D01*
X0026997Y0251074D01*
X0026782Y0250856D01*
X0026562Y0250643D01*
X0026337Y0250436D01*
X0026106Y0250234D01*
X0025871Y0250038D01*
X0025631Y0249848D01*
X0025387Y0249664D01*
X0025138Y0249486D01*
X0024884Y0249314D01*
X0024627Y0249148D01*
X0024366Y0248988D01*
X0024101Y0248835D01*
X0023832Y0248689D01*
X0023559Y0248549D01*
X0023284Y0248416D01*
X0023005Y0248290D01*
X0022723Y0248170D01*
X0022438Y0248058D01*
X0022151Y0247953D01*
X0021861Y0247854D01*
X0021569Y0247763D01*
X0021274Y0247679D01*
X0020978Y0247602D01*
X0020680Y0247532D01*
X0020380Y0247470D01*
X0020079Y0247415D01*
X0019777Y0247368D01*
X0019473Y0247328D01*
X0019169Y0247295D01*
X0018864Y0247270D01*
X0018558Y0247252D01*
X0018252Y0247242D01*
X0017946Y0247239D01*
X0017640Y0247244D01*
X0017334Y0247256D01*
X0017028Y0247276D01*
X0016724Y0247303D01*
X0016419Y0247338D01*
X0016116Y0247380D01*
X0015814Y0247429D01*
X0015513Y0247486D01*
X0015214Y0247551D01*
X0014916Y0247622D01*
X0014621Y0247701D01*
X0014327Y0247787D01*
X0014035Y0247880D01*
X0013746Y0247981D01*
X0013459Y0248088D01*
X0013175Y0248203D01*
X0012894Y0248324D01*
X0012616Y0248452D01*
X0012341Y0248587D01*
X0012070Y0248729D01*
X0011802Y0248877D01*
X0011538Y0249032D01*
X0011278Y0249193D01*
X0011022Y0249360D01*
X0010769Y0249534D01*
X0010522Y0249714D01*
X0010278Y0249900D01*
X0010040Y0250091D01*
X0009806Y0250289D01*
X0009577Y0250492D01*
X0009353Y0250701D01*
X0009134Y0250915D01*
X0008921Y0251135D01*
X0008713Y0251359D01*
X0008510Y0251589D01*
X0008314Y0251823D01*
X0008123Y0252063D01*
X0007938Y0252306D01*
X0007759Y0252555D01*
X0007586Y0252807D01*
X0007419Y0253064D01*
X0007259Y0253325D01*
X0007105Y0253590D01*
X0006958Y0253858D01*
X0006817Y0254130D01*
X0006683Y0254405D01*
X0006556Y0254684D01*
X0006435Y0254965D01*
X0006322Y0255250D01*
X0006216Y0255537D01*
X0006116Y0255826D01*
X0006024Y0256118D01*
X0005939Y0256412D01*
X0005861Y0256708D01*
X0005790Y0257006D01*
X0005727Y0257306D01*
X0005671Y0257607D01*
X0005623Y0257909D01*
X0005582Y0258212D01*
X0005548Y0258516D01*
X0005522Y0258821D01*
X0005503Y0259127D01*
X0005492Y0259433D01*
X0005488Y0259739D01*
X0005492Y0260045D01*
X0005503Y0260351D01*
X0005522Y0260657D01*
X0005548Y0260962D01*
X0005582Y0261266D01*
X0005623Y0261569D01*
X0005671Y0261871D01*
X0005727Y0262172D01*
X0005790Y0262472D01*
X0005861Y0262770D01*
X0005939Y0263066D01*
X0006024Y0263360D01*
X0006116Y0263652D01*
X0006216Y0263941D01*
X0006322Y0264228D01*
X0006435Y0264513D01*
X0006556Y0264794D01*
X0006683Y0265073D01*
X0006817Y0265348D01*
X0006958Y0265620D01*
X0007105Y0265888D01*
X0007259Y0266153D01*
X0007419Y0266414D01*
X0007586Y0266671D01*
X0007759Y0266923D01*
X0007938Y0267172D01*
X0008123Y0267415D01*
X0008314Y0267655D01*
X0008510Y0267889D01*
X0008713Y0268119D01*
X0008921Y0268343D01*
X0009134Y0268563D01*
X0009353Y0268777D01*
X0009577Y0268986D01*
X0009806Y0269189D01*
X0010040Y0269387D01*
X0010278Y0269578D01*
X0010522Y0269764D01*
X0010769Y0269944D01*
X0011022Y0270118D01*
X0011278Y0270285D01*
X0011538Y0270446D01*
X0011802Y0270601D01*
X0012070Y0270749D01*
X0012341Y0270891D01*
X0012616Y0271026D01*
X0012894Y0271154D01*
X0013175Y0271275D01*
X0013459Y0271390D01*
X0013746Y0271497D01*
X0014035Y0271598D01*
X0014327Y0271691D01*
X0014621Y0271777D01*
X0014916Y0271856D01*
X0015214Y0271927D01*
X0015513Y0271992D01*
X0015814Y0272049D01*
X0016116Y0272098D01*
X0016419Y0272140D01*
X0016724Y0272175D01*
X0017028Y0272202D01*
X0017334Y0272222D01*
X0017640Y0272234D01*
X0017946Y0272239D01*
X0018252Y0272236D01*
X0018558Y0272226D01*
X0018864Y0272208D01*
X0019169Y0272183D01*
X0019473Y0272150D01*
X0019777Y0272110D01*
X0020079Y0272063D01*
X0020380Y0272008D01*
X0020680Y0271946D01*
X0020978Y0271876D01*
X0021274Y0271799D01*
X0021569Y0271715D01*
X0021861Y0271624D01*
X0022151Y0271525D01*
X0022438Y0271420D01*
X0022723Y0271308D01*
X0023005Y0271188D01*
X0023284Y0271062D01*
X0023559Y0270929D01*
X0023832Y0270789D01*
X0024101Y0270643D01*
X0024366Y0270490D01*
X0024627Y0270330D01*
X0024884Y0270164D01*
X0025138Y0269992D01*
X0025387Y0269814D01*
X0025631Y0269630D01*
X0025871Y0269440D01*
X0026106Y0269244D01*
X0026337Y0269042D01*
X0026562Y0268835D01*
X0026782Y0268622D01*
X0026997Y0268404D01*
X0027206Y0268181D01*
X0027410Y0267953D01*
X0027609Y0267720D01*
X0027801Y0267482D01*
X0027988Y0267239D01*
X0012157Y0317424D02*
X0009488Y0317424D01*
X0010823Y0317424D02*
X0010823Y0321427D01*
X0009488Y0320093D01*
X0007553Y0320760D02*
X0007553Y0319425D01*
X0006886Y0318758D01*
X0004884Y0318758D01*
X0004884Y0317424D02*
X0004884Y0321427D01*
X0006886Y0321427D01*
X0007553Y0320760D01*
X0006219Y0318758D02*
X0007553Y0317424D01*
X0007654Y0330320D02*
X0007654Y0332322D01*
X0006987Y0332989D01*
X0005652Y0332989D01*
X0004985Y0332322D01*
X0004985Y0330320D01*
X0008988Y0330320D01*
X0007654Y0331654D02*
X0008988Y0332989D01*
X0008321Y0334924D02*
X0007654Y0334924D01*
X0006987Y0335591D01*
X0006987Y0336925D01*
X0007654Y0337593D01*
X0008321Y0337593D01*
X0008988Y0336925D01*
X0008988Y0335591D01*
X0008321Y0334924D01*
X0006987Y0335591D02*
X0006319Y0334924D01*
X0005652Y0334924D01*
X0004985Y0335591D01*
X0004985Y0336925D01*
X0005652Y0337593D01*
X0006319Y0337593D01*
X0006987Y0336925D01*
X0008485Y0354320D02*
X0008485Y0356322D01*
X0009152Y0356989D01*
X0011821Y0356989D01*
X0012488Y0356322D01*
X0012488Y0354320D01*
X0008485Y0354320D01*
X0009152Y0358924D02*
X0008485Y0359591D01*
X0008485Y0360925D01*
X0009152Y0361593D01*
X0009819Y0361593D01*
X0010487Y0360925D01*
X0011154Y0361593D01*
X0011821Y0361593D01*
X0012488Y0360925D01*
X0012488Y0359591D01*
X0011821Y0358924D01*
X0010487Y0360258D02*
X0010487Y0360925D01*
X0016985Y0336925D02*
X0018987Y0334924D01*
X0018987Y0337593D01*
X0020988Y0336925D02*
X0016985Y0336925D01*
X0017652Y0332989D02*
X0018987Y0332989D01*
X0019654Y0332322D01*
X0019654Y0330320D01*
X0020988Y0330320D02*
X0016985Y0330320D01*
X0016985Y0332322D01*
X0017652Y0332989D01*
X0019654Y0331654D02*
X0020988Y0332989D01*
X0030985Y0354320D02*
X0030985Y0356322D01*
X0031652Y0356989D01*
X0034321Y0356989D01*
X0034988Y0356322D01*
X0034988Y0354320D01*
X0030985Y0354320D01*
X0031652Y0358924D02*
X0030985Y0359591D01*
X0030985Y0360925D01*
X0031652Y0361593D01*
X0032319Y0361593D01*
X0034988Y0358924D01*
X0034988Y0361593D01*
X0038884Y0365591D02*
X0039552Y0364924D01*
X0040886Y0364924D01*
X0041553Y0365591D01*
X0041553Y0368260D01*
X0040886Y0368927D01*
X0039552Y0368927D01*
X0038884Y0368260D01*
X0038884Y0365591D01*
X0040219Y0366258D02*
X0041553Y0364924D01*
X0043488Y0364924D02*
X0046157Y0367593D01*
X0046157Y0368260D01*
X0045490Y0368927D01*
X0044156Y0368927D01*
X0043488Y0368260D01*
X0043488Y0364924D02*
X0046157Y0364924D01*
X0055146Y0387424D02*
X0054478Y0388091D01*
X0054478Y0390760D01*
X0055146Y0391427D01*
X0056480Y0391427D01*
X0057147Y0390760D01*
X0059082Y0391427D02*
X0059082Y0387424D01*
X0061751Y0387424D01*
X0063686Y0388091D02*
X0063686Y0390760D01*
X0064354Y0391427D01*
X0065688Y0391427D01*
X0066355Y0390760D01*
X0066355Y0388091D01*
X0065688Y0387424D01*
X0064354Y0387424D01*
X0063686Y0388091D01*
X0068290Y0388091D02*
X0068957Y0387424D01*
X0070292Y0387424D01*
X0070959Y0388091D01*
X0068290Y0388091D02*
X0068290Y0390760D01*
X0068957Y0391427D01*
X0070292Y0391427D01*
X0070959Y0390760D01*
X0072894Y0391427D02*
X0072894Y0387424D01*
X0072894Y0388758D02*
X0075563Y0391427D01*
X0073561Y0389425D02*
X0075563Y0387424D01*
X0075886Y0368927D02*
X0073884Y0368927D01*
X0073884Y0364924D01*
X0073884Y0366258D02*
X0075886Y0366258D01*
X0076553Y0366925D01*
X0076553Y0368260D01*
X0075886Y0368927D01*
X0078488Y0368927D02*
X0081157Y0368927D01*
X0081157Y0368260D01*
X0078488Y0365591D01*
X0078488Y0364924D01*
X0076553Y0364924D02*
X0075219Y0366258D01*
X0063657Y0366258D02*
X0063657Y0365591D01*
X0062990Y0364924D01*
X0061656Y0364924D01*
X0060988Y0365591D01*
X0062323Y0366925D02*
X0062990Y0366925D01*
X0063657Y0366258D01*
X0062990Y0366925D02*
X0063657Y0367593D01*
X0063657Y0368260D01*
X0062990Y0368927D01*
X0061656Y0368927D01*
X0060988Y0368260D01*
X0059053Y0368260D02*
X0059053Y0365591D01*
X0058386Y0364924D01*
X0057052Y0364924D01*
X0056384Y0365591D01*
X0056384Y0368260D01*
X0057052Y0368927D01*
X0058386Y0368927D01*
X0059053Y0368260D01*
X0057719Y0366258D02*
X0059053Y0364924D01*
X0056480Y0387424D02*
X0055146Y0387424D01*
X0056480Y0387424D02*
X0057147Y0388091D01*
X0065780Y0449924D02*
X0067782Y0449924D01*
X0068449Y0450591D01*
X0068449Y0453260D01*
X0067782Y0453927D01*
X0065780Y0453927D01*
X0065780Y0449924D01*
X0070384Y0449924D02*
X0073053Y0449924D01*
X0071719Y0449924D02*
X0071719Y0453927D01*
X0070384Y0452593D01*
X0079552Y0423927D02*
X0080886Y0423927D01*
X0081553Y0423260D01*
X0081553Y0420591D01*
X0080886Y0419924D01*
X0079552Y0419924D01*
X0078884Y0420591D01*
X0078884Y0423260D01*
X0079552Y0423927D01*
X0080219Y0421258D02*
X0081553Y0419924D01*
X0083488Y0419924D02*
X0086157Y0419924D01*
X0084823Y0419924D02*
X0084823Y0423927D01*
X0083488Y0422593D01*
X0093884Y0428924D02*
X0093884Y0432927D01*
X0095886Y0432927D01*
X0096553Y0432260D01*
X0096553Y0430925D01*
X0095886Y0430258D01*
X0093884Y0430258D01*
X0095219Y0430258D02*
X0096553Y0428924D01*
X0098488Y0428924D02*
X0101157Y0431593D01*
X0101157Y0432260D01*
X0100490Y0432927D01*
X0099156Y0432927D01*
X0098488Y0432260D01*
X0098488Y0428924D02*
X0101157Y0428924D01*
X0100490Y0441424D02*
X0099156Y0441424D01*
X0098488Y0442091D01*
X0099823Y0443425D02*
X0100490Y0443425D01*
X0101157Y0442758D01*
X0101157Y0442091D01*
X0100490Y0441424D01*
X0100490Y0443425D02*
X0101157Y0444093D01*
X0101157Y0444760D01*
X0100490Y0445427D01*
X0099156Y0445427D01*
X0098488Y0444760D01*
X0096553Y0444760D02*
X0095886Y0445427D01*
X0093884Y0445427D01*
X0093884Y0441424D01*
X0093884Y0442758D02*
X0095886Y0442758D01*
X0096553Y0443425D01*
X0096553Y0444760D01*
X0095219Y0442758D02*
X0096553Y0441424D01*
X0104656Y0453424D02*
X0103988Y0454091D01*
X0103988Y0456760D01*
X0104656Y0457427D01*
X0105990Y0457427D01*
X0106657Y0456760D01*
X0108592Y0456093D02*
X0109927Y0457427D01*
X0109927Y0453424D01*
X0111261Y0453424D02*
X0108592Y0453424D01*
X0106657Y0454091D02*
X0105990Y0453424D01*
X0104656Y0453424D01*
X0111652Y0464550D02*
X0114321Y0464550D01*
X0112987Y0463216D02*
X0112987Y0465885D01*
X0112319Y0467820D02*
X0110985Y0469154D01*
X0114988Y0469154D01*
X0114988Y0467820D02*
X0114988Y0470489D01*
X0114321Y0472424D02*
X0114988Y0473091D01*
X0114988Y0474425D01*
X0114321Y0475093D01*
X0112987Y0475093D01*
X0112319Y0474425D01*
X0112319Y0473758D01*
X0112987Y0472424D01*
X0110985Y0472424D01*
X0110985Y0475093D01*
X0110985Y0477028D02*
X0113654Y0477028D01*
X0114988Y0478362D01*
X0113654Y0479697D01*
X0110985Y0479697D01*
X0119552Y0420427D02*
X0118884Y0419760D01*
X0118884Y0417091D01*
X0119552Y0416424D01*
X0120886Y0416424D01*
X0121553Y0417091D01*
X0123488Y0417091D02*
X0124156Y0416424D01*
X0125490Y0416424D01*
X0126157Y0417091D01*
X0126157Y0417758D01*
X0125490Y0418425D01*
X0124823Y0418425D01*
X0125490Y0418425D02*
X0126157Y0419093D01*
X0126157Y0419760D01*
X0125490Y0420427D01*
X0124156Y0420427D01*
X0123488Y0419760D01*
X0121553Y0419760D02*
X0120886Y0420427D01*
X0119552Y0420427D01*
X0119819Y0375489D02*
X0119152Y0375489D01*
X0118485Y0374822D01*
X0118485Y0373487D01*
X0119152Y0372820D01*
X0119152Y0370885D02*
X0118485Y0370218D01*
X0118485Y0368883D01*
X0119152Y0368216D01*
X0121821Y0368216D01*
X0122488Y0368883D01*
X0122488Y0370218D01*
X0121821Y0370885D01*
X0122488Y0372820D02*
X0119819Y0375489D01*
X0122488Y0375489D02*
X0122488Y0372820D01*
X0105192Y0377424D02*
X0102523Y0377424D01*
X0103857Y0377424D02*
X0103857Y0381427D01*
X0102523Y0380093D01*
X0100588Y0380760D02*
X0099921Y0381427D01*
X0098586Y0381427D01*
X0097919Y0380760D01*
X0097919Y0378091D01*
X0098586Y0377424D01*
X0099921Y0377424D01*
X0100588Y0378091D01*
X0096184Y0377424D02*
X0094850Y0377424D01*
X0095517Y0377424D02*
X0095517Y0381427D01*
X0094850Y0381427D02*
X0096184Y0381427D01*
X0096017Y0327427D02*
X0096017Y0323424D01*
X0095350Y0323424D02*
X0096684Y0323424D01*
X0098419Y0324091D02*
X0098419Y0326760D01*
X0099086Y0327427D01*
X0100421Y0327427D01*
X0101088Y0326760D01*
X0103023Y0326760D02*
X0103690Y0327427D01*
X0105025Y0327427D01*
X0105692Y0326760D01*
X0105692Y0326093D01*
X0103023Y0323424D01*
X0105692Y0323424D01*
X0101088Y0324091D02*
X0100421Y0323424D01*
X0099086Y0323424D01*
X0098419Y0324091D01*
X0096684Y0327427D02*
X0095350Y0327427D01*
X0089657Y0315427D02*
X0088323Y0314760D01*
X0086988Y0313425D01*
X0088990Y0313425D01*
X0089657Y0312758D01*
X0089657Y0312091D01*
X0088990Y0311424D01*
X0087656Y0311424D01*
X0086988Y0312091D01*
X0086988Y0313425D01*
X0085053Y0313425D02*
X0084386Y0312758D01*
X0082384Y0312758D01*
X0082384Y0311424D02*
X0082384Y0315427D01*
X0084386Y0315427D01*
X0085053Y0314760D01*
X0085053Y0313425D01*
X0083719Y0312758D02*
X0085053Y0311424D01*
X0085490Y0301427D02*
X0083488Y0299425D01*
X0086157Y0299425D01*
X0085490Y0297424D02*
X0085490Y0301427D01*
X0081553Y0300760D02*
X0081553Y0298091D01*
X0080886Y0297424D01*
X0079552Y0297424D01*
X0078884Y0298091D01*
X0078884Y0300760D01*
X0079552Y0301427D01*
X0080886Y0301427D01*
X0081553Y0300760D01*
X0080219Y0298758D02*
X0081553Y0297424D01*
X0075091Y0315600D02*
X0072422Y0315600D01*
X0073756Y0315600D02*
X0073756Y0311597D01*
X0070487Y0311597D02*
X0067818Y0311597D01*
X0067818Y0315600D01*
X0070487Y0315600D01*
X0069152Y0313599D02*
X0067818Y0313599D01*
X0065883Y0312931D02*
X0065883Y0312264D01*
X0065216Y0311597D01*
X0063881Y0311597D01*
X0063214Y0312264D01*
X0063881Y0313599D02*
X0063214Y0314266D01*
X0063214Y0314933D01*
X0063881Y0315600D01*
X0065216Y0315600D01*
X0065883Y0314933D01*
X0065216Y0313599D02*
X0065883Y0312931D01*
X0065216Y0313599D02*
X0063881Y0313599D01*
X0061279Y0315600D02*
X0058610Y0315600D01*
X0058610Y0311597D01*
X0061279Y0311597D01*
X0059944Y0313599D02*
X0058610Y0313599D01*
X0056675Y0313599D02*
X0056008Y0312931D01*
X0054006Y0312931D01*
X0054006Y0311597D02*
X0054006Y0315600D01*
X0056008Y0315600D01*
X0056675Y0314933D01*
X0056675Y0313599D01*
X0055340Y0312931D02*
X0056675Y0311597D01*
X0061582Y0302927D02*
X0061582Y0298924D01*
X0061582Y0300258D02*
X0063584Y0300258D01*
X0064251Y0300925D01*
X0064251Y0302260D01*
X0063584Y0302927D01*
X0061582Y0302927D01*
X0062917Y0300258D02*
X0064251Y0298924D01*
X0066186Y0298924D02*
X0068855Y0298924D01*
X0067521Y0298924D02*
X0067521Y0302927D01*
X0066186Y0301593D01*
X0070790Y0302260D02*
X0070790Y0299591D01*
X0073459Y0302260D01*
X0073459Y0299591D01*
X0072792Y0298924D01*
X0071457Y0298924D01*
X0070790Y0299591D01*
X0070790Y0302260D02*
X0071457Y0302927D01*
X0072792Y0302927D01*
X0073459Y0302260D01*
X0096582Y0283927D02*
X0096582Y0279924D01*
X0096582Y0281258D02*
X0098584Y0281258D01*
X0099251Y0281925D01*
X0099251Y0283260D01*
X0098584Y0283927D01*
X0096582Y0283927D01*
X0097917Y0281258D02*
X0099251Y0279924D01*
X0101186Y0279924D02*
X0103855Y0279924D01*
X0102521Y0279924D02*
X0102521Y0283927D01*
X0101186Y0282593D01*
X0102521Y0273927D02*
X0101186Y0272593D01*
X0102521Y0273927D02*
X0102521Y0269924D01*
X0103855Y0269924D02*
X0101186Y0269924D01*
X0099251Y0269924D02*
X0097917Y0271258D01*
X0098584Y0271258D02*
X0096582Y0271258D01*
X0096582Y0269924D02*
X0096582Y0273927D01*
X0098584Y0273927D01*
X0099251Y0273260D01*
X0099251Y0271925D01*
X0098584Y0271258D01*
X0105790Y0269924D02*
X0108459Y0272593D01*
X0108459Y0273260D01*
X0107792Y0273927D01*
X0106457Y0273927D01*
X0105790Y0273260D01*
X0105790Y0269924D02*
X0108459Y0269924D01*
X0108459Y0279924D02*
X0105790Y0279924D01*
X0107125Y0279924D02*
X0107125Y0283927D01*
X0105790Y0282593D01*
X0120485Y0292547D02*
X0120485Y0295216D01*
X0121152Y0295216D01*
X0123821Y0310962D02*
X0123821Y0311630D01*
X0124488Y0311630D01*
X0124488Y0310962D01*
X0123821Y0310962D01*
X0123821Y0313264D02*
X0124488Y0313932D01*
X0124488Y0315266D01*
X0123821Y0315933D01*
X0121152Y0315933D01*
X0120485Y0315266D01*
X0120485Y0313932D01*
X0121152Y0313264D01*
X0121819Y0313264D01*
X0122487Y0313932D01*
X0122487Y0315933D01*
X0124488Y0258685D02*
X0123821Y0258017D01*
X0120485Y0206507D02*
X0120485Y0205839D01*
X0107792Y0051427D02*
X0106457Y0051427D01*
X0105790Y0050760D01*
X0105790Y0048091D01*
X0108459Y0050760D01*
X0108459Y0048091D01*
X0107792Y0047424D01*
X0106457Y0047424D01*
X0105790Y0048091D01*
X0103855Y0047424D02*
X0101186Y0047424D01*
X0103855Y0050093D01*
X0103855Y0050760D01*
X0103188Y0051427D01*
X0101854Y0051427D01*
X0101186Y0050760D01*
X0099251Y0050760D02*
X0099251Y0049425D01*
X0098584Y0048758D01*
X0096582Y0048758D01*
X0096582Y0047424D02*
X0096582Y0051427D01*
X0098584Y0051427D01*
X0099251Y0050760D01*
X0097917Y0048758D02*
X0099251Y0047424D01*
X0098584Y0041427D02*
X0099251Y0040760D01*
X0099251Y0039425D01*
X0098584Y0038758D01*
X0096582Y0038758D01*
X0096582Y0037424D02*
X0096582Y0041427D01*
X0098584Y0041427D01*
X0097917Y0038758D02*
X0099251Y0037424D01*
X0101186Y0037424D02*
X0103855Y0040093D01*
X0103855Y0040760D01*
X0103188Y0041427D01*
X0101854Y0041427D01*
X0101186Y0040760D01*
X0101186Y0037424D02*
X0103855Y0037424D01*
X0105790Y0037424D02*
X0108459Y0037424D01*
X0107125Y0037424D02*
X0107125Y0041427D01*
X0105790Y0040093D01*
X0108459Y0050760D02*
X0107792Y0051427D01*
X0034988Y0395320D02*
X0030985Y0395320D01*
X0030985Y0397322D01*
X0031652Y0397989D01*
X0034321Y0397989D01*
X0034988Y0397322D01*
X0034988Y0395320D01*
X0034988Y0401925D02*
X0030985Y0401925D01*
X0032987Y0399924D01*
X0032987Y0402593D01*
X0012990Y0427424D02*
X0013657Y0428091D01*
X0013657Y0429425D01*
X0012990Y0430093D01*
X0012323Y0430093D01*
X0010988Y0429425D01*
X0010988Y0431427D01*
X0013657Y0431427D01*
X0012990Y0434924D02*
X0013657Y0435591D01*
X0013657Y0436925D01*
X0012990Y0437593D01*
X0012323Y0437593D01*
X0010988Y0436925D01*
X0010988Y0438927D01*
X0013657Y0438927D01*
X0012990Y0434924D02*
X0011656Y0434924D01*
X0010988Y0435591D01*
X0009053Y0434924D02*
X0007719Y0436258D01*
X0008386Y0436258D02*
X0006384Y0436258D01*
X0006384Y0434924D02*
X0006384Y0438927D01*
X0008386Y0438927D01*
X0009053Y0438260D01*
X0009053Y0436925D01*
X0008386Y0436258D01*
X0008386Y0431427D02*
X0007052Y0431427D01*
X0006384Y0430760D01*
X0006384Y0428091D01*
X0007052Y0427424D01*
X0008386Y0427424D01*
X0009053Y0428091D01*
X0009053Y0430760D02*
X0008386Y0431427D01*
X0010988Y0428091D02*
X0011656Y0427424D01*
X0012990Y0427424D01*
X0011821Y0402593D02*
X0010487Y0402593D01*
X0009819Y0401925D01*
X0009819Y0401258D01*
X0010487Y0399924D01*
X0008485Y0399924D01*
X0008485Y0402593D01*
X0009152Y0397989D02*
X0008485Y0397322D01*
X0008485Y0395320D01*
X0012488Y0395320D01*
X0012488Y0397322D01*
X0011821Y0397989D01*
X0009152Y0397989D01*
X0011821Y0399924D02*
X0012488Y0400591D01*
X0012488Y0401925D01*
X0011821Y0402593D01*
D12*
X0059238Y0152924D02*
X0059238Y0149924D01*
D13*
X0006988Y0221924D02*
X0006992Y0222255D01*
X0007004Y0222586D01*
X0007025Y0222917D01*
X0007053Y0223247D01*
X0007090Y0223577D01*
X0007134Y0223905D01*
X0007187Y0224232D01*
X0007247Y0224558D01*
X0007316Y0224882D01*
X0007393Y0225204D01*
X0007477Y0225525D01*
X0007569Y0225843D01*
X0007669Y0226159D01*
X0007777Y0226472D01*
X0007893Y0226783D01*
X0008016Y0227090D01*
X0008146Y0227395D01*
X0008284Y0227696D01*
X0008429Y0227994D01*
X0008582Y0228288D01*
X0008742Y0228578D01*
X0008909Y0228864D01*
X0009082Y0229146D01*
X0009263Y0229424D01*
X0009451Y0229697D01*
X0009645Y0229966D01*
X0009845Y0230230D01*
X0010052Y0230488D01*
X0010266Y0230742D01*
X0010485Y0230990D01*
X0010711Y0231233D01*
X0010942Y0231470D01*
X0011179Y0231701D01*
X0011422Y0231927D01*
X0011670Y0232146D01*
X0011924Y0232360D01*
X0012182Y0232567D01*
X0012446Y0232767D01*
X0012715Y0232961D01*
X0012988Y0233149D01*
X0013266Y0233330D01*
X0013548Y0233503D01*
X0013834Y0233670D01*
X0014124Y0233830D01*
X0014418Y0233983D01*
X0014716Y0234128D01*
X0015017Y0234266D01*
X0015322Y0234396D01*
X0015629Y0234519D01*
X0015940Y0234635D01*
X0016253Y0234743D01*
X0016569Y0234843D01*
X0016887Y0234935D01*
X0017208Y0235019D01*
X0017530Y0235096D01*
X0017854Y0235165D01*
X0018180Y0235225D01*
X0018507Y0235278D01*
X0018835Y0235322D01*
X0019165Y0235359D01*
X0019495Y0235387D01*
X0019826Y0235408D01*
X0020157Y0235420D01*
X0020488Y0235424D01*
X0020819Y0235420D01*
X0021150Y0235408D01*
X0021481Y0235387D01*
X0021811Y0235359D01*
X0022141Y0235322D01*
X0022469Y0235278D01*
X0022796Y0235225D01*
X0023122Y0235165D01*
X0023446Y0235096D01*
X0023768Y0235019D01*
X0024089Y0234935D01*
X0024407Y0234843D01*
X0024723Y0234743D01*
X0025036Y0234635D01*
X0025347Y0234519D01*
X0025654Y0234396D01*
X0025959Y0234266D01*
X0026260Y0234128D01*
X0026558Y0233983D01*
X0026852Y0233830D01*
X0027142Y0233670D01*
X0027428Y0233503D01*
X0027710Y0233330D01*
X0027988Y0233149D01*
X0028261Y0232961D01*
X0028530Y0232767D01*
X0028794Y0232567D01*
X0029052Y0232360D01*
X0029306Y0232146D01*
X0029554Y0231927D01*
X0029797Y0231701D01*
X0030034Y0231470D01*
X0030265Y0231233D01*
X0030491Y0230990D01*
X0030710Y0230742D01*
X0030924Y0230488D01*
X0031131Y0230230D01*
X0031331Y0229966D01*
X0031525Y0229697D01*
X0031713Y0229424D01*
X0031894Y0229146D01*
X0032067Y0228864D01*
X0032234Y0228578D01*
X0032394Y0228288D01*
X0032547Y0227994D01*
X0032692Y0227696D01*
X0032830Y0227395D01*
X0032960Y0227090D01*
X0033083Y0226783D01*
X0033199Y0226472D01*
X0033307Y0226159D01*
X0033407Y0225843D01*
X0033499Y0225525D01*
X0033583Y0225204D01*
X0033660Y0224882D01*
X0033729Y0224558D01*
X0033789Y0224232D01*
X0033842Y0223905D01*
X0033886Y0223577D01*
X0033923Y0223247D01*
X0033951Y0222917D01*
X0033972Y0222586D01*
X0033984Y0222255D01*
X0033988Y0221924D01*
X0033984Y0221593D01*
X0033972Y0221262D01*
X0033951Y0220931D01*
X0033923Y0220601D01*
X0033886Y0220271D01*
X0033842Y0219943D01*
X0033789Y0219616D01*
X0033729Y0219290D01*
X0033660Y0218966D01*
X0033583Y0218644D01*
X0033499Y0218323D01*
X0033407Y0218005D01*
X0033307Y0217689D01*
X0033199Y0217376D01*
X0033083Y0217065D01*
X0032960Y0216758D01*
X0032830Y0216453D01*
X0032692Y0216152D01*
X0032547Y0215854D01*
X0032394Y0215560D01*
X0032234Y0215270D01*
X0032067Y0214984D01*
X0031894Y0214702D01*
X0031713Y0214424D01*
X0031525Y0214151D01*
X0031331Y0213882D01*
X0031131Y0213618D01*
X0030924Y0213360D01*
X0030710Y0213106D01*
X0030491Y0212858D01*
X0030265Y0212615D01*
X0030034Y0212378D01*
X0029797Y0212147D01*
X0029554Y0211921D01*
X0029306Y0211702D01*
X0029052Y0211488D01*
X0028794Y0211281D01*
X0028530Y0211081D01*
X0028261Y0210887D01*
X0027988Y0210699D01*
X0027710Y0210518D01*
X0027428Y0210345D01*
X0027142Y0210178D01*
X0026852Y0210018D01*
X0026558Y0209865D01*
X0026260Y0209720D01*
X0025959Y0209582D01*
X0025654Y0209452D01*
X0025347Y0209329D01*
X0025036Y0209213D01*
X0024723Y0209105D01*
X0024407Y0209005D01*
X0024089Y0208913D01*
X0023768Y0208829D01*
X0023446Y0208752D01*
X0023122Y0208683D01*
X0022796Y0208623D01*
X0022469Y0208570D01*
X0022141Y0208526D01*
X0021811Y0208489D01*
X0021481Y0208461D01*
X0021150Y0208440D01*
X0020819Y0208428D01*
X0020488Y0208424D01*
X0020157Y0208428D01*
X0019826Y0208440D01*
X0019495Y0208461D01*
X0019165Y0208489D01*
X0018835Y0208526D01*
X0018507Y0208570D01*
X0018180Y0208623D01*
X0017854Y0208683D01*
X0017530Y0208752D01*
X0017208Y0208829D01*
X0016887Y0208913D01*
X0016569Y0209005D01*
X0016253Y0209105D01*
X0015940Y0209213D01*
X0015629Y0209329D01*
X0015322Y0209452D01*
X0015017Y0209582D01*
X0014716Y0209720D01*
X0014418Y0209865D01*
X0014124Y0210018D01*
X0013834Y0210178D01*
X0013548Y0210345D01*
X0013266Y0210518D01*
X0012988Y0210699D01*
X0012715Y0210887D01*
X0012446Y0211081D01*
X0012182Y0211281D01*
X0011924Y0211488D01*
X0011670Y0211702D01*
X0011422Y0211921D01*
X0011179Y0212147D01*
X0010942Y0212378D01*
X0010711Y0212615D01*
X0010485Y0212858D01*
X0010266Y0213106D01*
X0010052Y0213360D01*
X0009845Y0213618D01*
X0009645Y0213882D01*
X0009451Y0214151D01*
X0009263Y0214424D01*
X0009082Y0214702D01*
X0008909Y0214984D01*
X0008742Y0215270D01*
X0008582Y0215560D01*
X0008429Y0215854D01*
X0008284Y0216152D01*
X0008146Y0216453D01*
X0008016Y0216758D01*
X0007893Y0217065D01*
X0007777Y0217376D01*
X0007669Y0217689D01*
X0007569Y0218005D01*
X0007477Y0218323D01*
X0007393Y0218644D01*
X0007316Y0218966D01*
X0007247Y0219290D01*
X0007187Y0219616D01*
X0007134Y0219943D01*
X0007090Y0220271D01*
X0007053Y0220601D01*
X0007025Y0220931D01*
X0007004Y0221262D01*
X0006992Y0221593D01*
X0006988Y0221924D01*
X0007988Y0259739D02*
X0007991Y0259984D01*
X0008000Y0260230D01*
X0008015Y0260475D01*
X0008036Y0260719D01*
X0008063Y0260963D01*
X0008096Y0261206D01*
X0008135Y0261449D01*
X0008180Y0261690D01*
X0008231Y0261930D01*
X0008288Y0262169D01*
X0008350Y0262406D01*
X0008419Y0262642D01*
X0008493Y0262876D01*
X0008573Y0263108D01*
X0008658Y0263338D01*
X0008749Y0263566D01*
X0008846Y0263791D01*
X0008948Y0264015D01*
X0009056Y0264235D01*
X0009169Y0264453D01*
X0009287Y0264668D01*
X0009411Y0264880D01*
X0009539Y0265089D01*
X0009673Y0265295D01*
X0009812Y0265497D01*
X0009956Y0265696D01*
X0010105Y0265891D01*
X0010258Y0266083D01*
X0010416Y0266271D01*
X0010578Y0266455D01*
X0010746Y0266634D01*
X0010917Y0266810D01*
X0011093Y0266981D01*
X0011272Y0267149D01*
X0011456Y0267311D01*
X0011644Y0267469D01*
X0011836Y0267622D01*
X0012031Y0267771D01*
X0012230Y0267915D01*
X0012432Y0268054D01*
X0012638Y0268188D01*
X0012847Y0268316D01*
X0013059Y0268440D01*
X0013274Y0268558D01*
X0013492Y0268671D01*
X0013712Y0268779D01*
X0013936Y0268881D01*
X0014161Y0268978D01*
X0014389Y0269069D01*
X0014619Y0269154D01*
X0014851Y0269234D01*
X0015085Y0269308D01*
X0015321Y0269377D01*
X0015558Y0269439D01*
X0015797Y0269496D01*
X0016037Y0269547D01*
X0016278Y0269592D01*
X0016521Y0269631D01*
X0016764Y0269664D01*
X0017008Y0269691D01*
X0017252Y0269712D01*
X0017497Y0269727D01*
X0017743Y0269736D01*
X0017988Y0269739D01*
X0018233Y0269736D01*
X0018479Y0269727D01*
X0018724Y0269712D01*
X0018968Y0269691D01*
X0019212Y0269664D01*
X0019455Y0269631D01*
X0019698Y0269592D01*
X0019939Y0269547D01*
X0020179Y0269496D01*
X0020418Y0269439D01*
X0020655Y0269377D01*
X0020891Y0269308D01*
X0021125Y0269234D01*
X0021357Y0269154D01*
X0021587Y0269069D01*
X0021815Y0268978D01*
X0022040Y0268881D01*
X0022264Y0268779D01*
X0022484Y0268671D01*
X0022702Y0268558D01*
X0022917Y0268440D01*
X0023129Y0268316D01*
X0023338Y0268188D01*
X0023544Y0268054D01*
X0023746Y0267915D01*
X0023945Y0267771D01*
X0024140Y0267622D01*
X0024332Y0267469D01*
X0024520Y0267311D01*
X0024704Y0267149D01*
X0024883Y0266981D01*
X0025059Y0266810D01*
X0025230Y0266634D01*
X0025398Y0266455D01*
X0025560Y0266271D01*
X0025718Y0266083D01*
X0025871Y0265891D01*
X0026020Y0265696D01*
X0026164Y0265497D01*
X0026303Y0265295D01*
X0026437Y0265089D01*
X0026565Y0264880D01*
X0026689Y0264668D01*
X0026807Y0264453D01*
X0026920Y0264235D01*
X0027028Y0264015D01*
X0027130Y0263791D01*
X0027227Y0263566D01*
X0027318Y0263338D01*
X0027403Y0263108D01*
X0027483Y0262876D01*
X0027557Y0262642D01*
X0027626Y0262406D01*
X0027688Y0262169D01*
X0027745Y0261930D01*
X0027796Y0261690D01*
X0027841Y0261449D01*
X0027880Y0261206D01*
X0027913Y0260963D01*
X0027940Y0260719D01*
X0027961Y0260475D01*
X0027976Y0260230D01*
X0027985Y0259984D01*
X0027988Y0259739D01*
X0027985Y0259494D01*
X0027976Y0259248D01*
X0027961Y0259003D01*
X0027940Y0258759D01*
X0027913Y0258515D01*
X0027880Y0258272D01*
X0027841Y0258029D01*
X0027796Y0257788D01*
X0027745Y0257548D01*
X0027688Y0257309D01*
X0027626Y0257072D01*
X0027557Y0256836D01*
X0027483Y0256602D01*
X0027403Y0256370D01*
X0027318Y0256140D01*
X0027227Y0255912D01*
X0027130Y0255687D01*
X0027028Y0255463D01*
X0026920Y0255243D01*
X0026807Y0255025D01*
X0026689Y0254810D01*
X0026565Y0254598D01*
X0026437Y0254389D01*
X0026303Y0254183D01*
X0026164Y0253981D01*
X0026020Y0253782D01*
X0025871Y0253587D01*
X0025718Y0253395D01*
X0025560Y0253207D01*
X0025398Y0253023D01*
X0025230Y0252844D01*
X0025059Y0252668D01*
X0024883Y0252497D01*
X0024704Y0252329D01*
X0024520Y0252167D01*
X0024332Y0252009D01*
X0024140Y0251856D01*
X0023945Y0251707D01*
X0023746Y0251563D01*
X0023544Y0251424D01*
X0023338Y0251290D01*
X0023129Y0251162D01*
X0022917Y0251038D01*
X0022702Y0250920D01*
X0022484Y0250807D01*
X0022264Y0250699D01*
X0022040Y0250597D01*
X0021815Y0250500D01*
X0021587Y0250409D01*
X0021357Y0250324D01*
X0021125Y0250244D01*
X0020891Y0250170D01*
X0020655Y0250101D01*
X0020418Y0250039D01*
X0020179Y0249982D01*
X0019939Y0249931D01*
X0019698Y0249886D01*
X0019455Y0249847D01*
X0019212Y0249814D01*
X0018968Y0249787D01*
X0018724Y0249766D01*
X0018479Y0249751D01*
X0018233Y0249742D01*
X0017988Y0249739D01*
X0017743Y0249742D01*
X0017497Y0249751D01*
X0017252Y0249766D01*
X0017008Y0249787D01*
X0016764Y0249814D01*
X0016521Y0249847D01*
X0016278Y0249886D01*
X0016037Y0249931D01*
X0015797Y0249982D01*
X0015558Y0250039D01*
X0015321Y0250101D01*
X0015085Y0250170D01*
X0014851Y0250244D01*
X0014619Y0250324D01*
X0014389Y0250409D01*
X0014161Y0250500D01*
X0013936Y0250597D01*
X0013712Y0250699D01*
X0013492Y0250807D01*
X0013274Y0250920D01*
X0013059Y0251038D01*
X0012847Y0251162D01*
X0012638Y0251290D01*
X0012432Y0251424D01*
X0012230Y0251563D01*
X0012031Y0251707D01*
X0011836Y0251856D01*
X0011644Y0252009D01*
X0011456Y0252167D01*
X0011272Y0252329D01*
X0011093Y0252497D01*
X0010917Y0252668D01*
X0010746Y0252844D01*
X0010578Y0253023D01*
X0010416Y0253207D01*
X0010258Y0253395D01*
X0010105Y0253587D01*
X0009956Y0253782D01*
X0009812Y0253981D01*
X0009673Y0254183D01*
X0009539Y0254389D01*
X0009411Y0254598D01*
X0009287Y0254810D01*
X0009169Y0255025D01*
X0009056Y0255243D01*
X0008948Y0255463D01*
X0008846Y0255687D01*
X0008749Y0255912D01*
X0008658Y0256140D01*
X0008573Y0256370D01*
X0008493Y0256602D01*
X0008419Y0256836D01*
X0008350Y0257072D01*
X0008288Y0257309D01*
X0008231Y0257548D01*
X0008180Y0257788D01*
X0008135Y0258029D01*
X0008096Y0258272D01*
X0008063Y0258515D01*
X0008036Y0258759D01*
X0008015Y0259003D01*
X0008000Y0259248D01*
X0007991Y0259494D01*
X0007988Y0259739D01*
X0007988Y0182967D02*
X0007991Y0183212D01*
X0008000Y0183458D01*
X0008015Y0183703D01*
X0008036Y0183947D01*
X0008063Y0184191D01*
X0008096Y0184434D01*
X0008135Y0184677D01*
X0008180Y0184918D01*
X0008231Y0185158D01*
X0008288Y0185397D01*
X0008350Y0185634D01*
X0008419Y0185870D01*
X0008493Y0186104D01*
X0008573Y0186336D01*
X0008658Y0186566D01*
X0008749Y0186794D01*
X0008846Y0187019D01*
X0008948Y0187243D01*
X0009056Y0187463D01*
X0009169Y0187681D01*
X0009287Y0187896D01*
X0009411Y0188108D01*
X0009539Y0188317D01*
X0009673Y0188523D01*
X0009812Y0188725D01*
X0009956Y0188924D01*
X0010105Y0189119D01*
X0010258Y0189311D01*
X0010416Y0189499D01*
X0010578Y0189683D01*
X0010746Y0189862D01*
X0010917Y0190038D01*
X0011093Y0190209D01*
X0011272Y0190377D01*
X0011456Y0190539D01*
X0011644Y0190697D01*
X0011836Y0190850D01*
X0012031Y0190999D01*
X0012230Y0191143D01*
X0012432Y0191282D01*
X0012638Y0191416D01*
X0012847Y0191544D01*
X0013059Y0191668D01*
X0013274Y0191786D01*
X0013492Y0191899D01*
X0013712Y0192007D01*
X0013936Y0192109D01*
X0014161Y0192206D01*
X0014389Y0192297D01*
X0014619Y0192382D01*
X0014851Y0192462D01*
X0015085Y0192536D01*
X0015321Y0192605D01*
X0015558Y0192667D01*
X0015797Y0192724D01*
X0016037Y0192775D01*
X0016278Y0192820D01*
X0016521Y0192859D01*
X0016764Y0192892D01*
X0017008Y0192919D01*
X0017252Y0192940D01*
X0017497Y0192955D01*
X0017743Y0192964D01*
X0017988Y0192967D01*
X0018233Y0192964D01*
X0018479Y0192955D01*
X0018724Y0192940D01*
X0018968Y0192919D01*
X0019212Y0192892D01*
X0019455Y0192859D01*
X0019698Y0192820D01*
X0019939Y0192775D01*
X0020179Y0192724D01*
X0020418Y0192667D01*
X0020655Y0192605D01*
X0020891Y0192536D01*
X0021125Y0192462D01*
X0021357Y0192382D01*
X0021587Y0192297D01*
X0021815Y0192206D01*
X0022040Y0192109D01*
X0022264Y0192007D01*
X0022484Y0191899D01*
X0022702Y0191786D01*
X0022917Y0191668D01*
X0023129Y0191544D01*
X0023338Y0191416D01*
X0023544Y0191282D01*
X0023746Y0191143D01*
X0023945Y0190999D01*
X0024140Y0190850D01*
X0024332Y0190697D01*
X0024520Y0190539D01*
X0024704Y0190377D01*
X0024883Y0190209D01*
X0025059Y0190038D01*
X0025230Y0189862D01*
X0025398Y0189683D01*
X0025560Y0189499D01*
X0025718Y0189311D01*
X0025871Y0189119D01*
X0026020Y0188924D01*
X0026164Y0188725D01*
X0026303Y0188523D01*
X0026437Y0188317D01*
X0026565Y0188108D01*
X0026689Y0187896D01*
X0026807Y0187681D01*
X0026920Y0187463D01*
X0027028Y0187243D01*
X0027130Y0187019D01*
X0027227Y0186794D01*
X0027318Y0186566D01*
X0027403Y0186336D01*
X0027483Y0186104D01*
X0027557Y0185870D01*
X0027626Y0185634D01*
X0027688Y0185397D01*
X0027745Y0185158D01*
X0027796Y0184918D01*
X0027841Y0184677D01*
X0027880Y0184434D01*
X0027913Y0184191D01*
X0027940Y0183947D01*
X0027961Y0183703D01*
X0027976Y0183458D01*
X0027985Y0183212D01*
X0027988Y0182967D01*
X0027985Y0182722D01*
X0027976Y0182476D01*
X0027961Y0182231D01*
X0027940Y0181987D01*
X0027913Y0181743D01*
X0027880Y0181500D01*
X0027841Y0181257D01*
X0027796Y0181016D01*
X0027745Y0180776D01*
X0027688Y0180537D01*
X0027626Y0180300D01*
X0027557Y0180064D01*
X0027483Y0179830D01*
X0027403Y0179598D01*
X0027318Y0179368D01*
X0027227Y0179140D01*
X0027130Y0178915D01*
X0027028Y0178691D01*
X0026920Y0178471D01*
X0026807Y0178253D01*
X0026689Y0178038D01*
X0026565Y0177826D01*
X0026437Y0177617D01*
X0026303Y0177411D01*
X0026164Y0177209D01*
X0026020Y0177010D01*
X0025871Y0176815D01*
X0025718Y0176623D01*
X0025560Y0176435D01*
X0025398Y0176251D01*
X0025230Y0176072D01*
X0025059Y0175896D01*
X0024883Y0175725D01*
X0024704Y0175557D01*
X0024520Y0175395D01*
X0024332Y0175237D01*
X0024140Y0175084D01*
X0023945Y0174935D01*
X0023746Y0174791D01*
X0023544Y0174652D01*
X0023338Y0174518D01*
X0023129Y0174390D01*
X0022917Y0174266D01*
X0022702Y0174148D01*
X0022484Y0174035D01*
X0022264Y0173927D01*
X0022040Y0173825D01*
X0021815Y0173728D01*
X0021587Y0173637D01*
X0021357Y0173552D01*
X0021125Y0173472D01*
X0020891Y0173398D01*
X0020655Y0173329D01*
X0020418Y0173267D01*
X0020179Y0173210D01*
X0019939Y0173159D01*
X0019698Y0173114D01*
X0019455Y0173075D01*
X0019212Y0173042D01*
X0018968Y0173015D01*
X0018724Y0172994D01*
X0018479Y0172979D01*
X0018233Y0172970D01*
X0017988Y0172967D01*
X0017743Y0172970D01*
X0017497Y0172979D01*
X0017252Y0172994D01*
X0017008Y0173015D01*
X0016764Y0173042D01*
X0016521Y0173075D01*
X0016278Y0173114D01*
X0016037Y0173159D01*
X0015797Y0173210D01*
X0015558Y0173267D01*
X0015321Y0173329D01*
X0015085Y0173398D01*
X0014851Y0173472D01*
X0014619Y0173552D01*
X0014389Y0173637D01*
X0014161Y0173728D01*
X0013936Y0173825D01*
X0013712Y0173927D01*
X0013492Y0174035D01*
X0013274Y0174148D01*
X0013059Y0174266D01*
X0012847Y0174390D01*
X0012638Y0174518D01*
X0012432Y0174652D01*
X0012230Y0174791D01*
X0012031Y0174935D01*
X0011836Y0175084D01*
X0011644Y0175237D01*
X0011456Y0175395D01*
X0011272Y0175557D01*
X0011093Y0175725D01*
X0010917Y0175896D01*
X0010746Y0176072D01*
X0010578Y0176251D01*
X0010416Y0176435D01*
X0010258Y0176623D01*
X0010105Y0176815D01*
X0009956Y0177010D01*
X0009812Y0177209D01*
X0009673Y0177411D01*
X0009539Y0177617D01*
X0009411Y0177826D01*
X0009287Y0178038D01*
X0009169Y0178253D01*
X0009056Y0178471D01*
X0008948Y0178691D01*
X0008846Y0178915D01*
X0008749Y0179140D01*
X0008658Y0179368D01*
X0008573Y0179598D01*
X0008493Y0179830D01*
X0008419Y0180064D01*
X0008350Y0180300D01*
X0008288Y0180537D01*
X0008231Y0180776D01*
X0008180Y0181016D01*
X0008135Y0181257D01*
X0008096Y0181500D01*
X0008063Y0181743D01*
X0008036Y0181987D01*
X0008015Y0182231D01*
X0008000Y0182476D01*
X0007991Y0182722D01*
X0007988Y0182967D01*
X0007988Y0106195D02*
X0007991Y0106440D01*
X0008000Y0106686D01*
X0008015Y0106931D01*
X0008036Y0107175D01*
X0008063Y0107419D01*
X0008096Y0107662D01*
X0008135Y0107905D01*
X0008180Y0108146D01*
X0008231Y0108386D01*
X0008288Y0108625D01*
X0008350Y0108862D01*
X0008419Y0109098D01*
X0008493Y0109332D01*
X0008573Y0109564D01*
X0008658Y0109794D01*
X0008749Y0110022D01*
X0008846Y0110247D01*
X0008948Y0110471D01*
X0009056Y0110691D01*
X0009169Y0110909D01*
X0009287Y0111124D01*
X0009411Y0111336D01*
X0009539Y0111545D01*
X0009673Y0111751D01*
X0009812Y0111953D01*
X0009956Y0112152D01*
X0010105Y0112347D01*
X0010258Y0112539D01*
X0010416Y0112727D01*
X0010578Y0112911D01*
X0010746Y0113090D01*
X0010917Y0113266D01*
X0011093Y0113437D01*
X0011272Y0113605D01*
X0011456Y0113767D01*
X0011644Y0113925D01*
X0011836Y0114078D01*
X0012031Y0114227D01*
X0012230Y0114371D01*
X0012432Y0114510D01*
X0012638Y0114644D01*
X0012847Y0114772D01*
X0013059Y0114896D01*
X0013274Y0115014D01*
X0013492Y0115127D01*
X0013712Y0115235D01*
X0013936Y0115337D01*
X0014161Y0115434D01*
X0014389Y0115525D01*
X0014619Y0115610D01*
X0014851Y0115690D01*
X0015085Y0115764D01*
X0015321Y0115833D01*
X0015558Y0115895D01*
X0015797Y0115952D01*
X0016037Y0116003D01*
X0016278Y0116048D01*
X0016521Y0116087D01*
X0016764Y0116120D01*
X0017008Y0116147D01*
X0017252Y0116168D01*
X0017497Y0116183D01*
X0017743Y0116192D01*
X0017988Y0116195D01*
X0018233Y0116192D01*
X0018479Y0116183D01*
X0018724Y0116168D01*
X0018968Y0116147D01*
X0019212Y0116120D01*
X0019455Y0116087D01*
X0019698Y0116048D01*
X0019939Y0116003D01*
X0020179Y0115952D01*
X0020418Y0115895D01*
X0020655Y0115833D01*
X0020891Y0115764D01*
X0021125Y0115690D01*
X0021357Y0115610D01*
X0021587Y0115525D01*
X0021815Y0115434D01*
X0022040Y0115337D01*
X0022264Y0115235D01*
X0022484Y0115127D01*
X0022702Y0115014D01*
X0022917Y0114896D01*
X0023129Y0114772D01*
X0023338Y0114644D01*
X0023544Y0114510D01*
X0023746Y0114371D01*
X0023945Y0114227D01*
X0024140Y0114078D01*
X0024332Y0113925D01*
X0024520Y0113767D01*
X0024704Y0113605D01*
X0024883Y0113437D01*
X0025059Y0113266D01*
X0025230Y0113090D01*
X0025398Y0112911D01*
X0025560Y0112727D01*
X0025718Y0112539D01*
X0025871Y0112347D01*
X0026020Y0112152D01*
X0026164Y0111953D01*
X0026303Y0111751D01*
X0026437Y0111545D01*
X0026565Y0111336D01*
X0026689Y0111124D01*
X0026807Y0110909D01*
X0026920Y0110691D01*
X0027028Y0110471D01*
X0027130Y0110247D01*
X0027227Y0110022D01*
X0027318Y0109794D01*
X0027403Y0109564D01*
X0027483Y0109332D01*
X0027557Y0109098D01*
X0027626Y0108862D01*
X0027688Y0108625D01*
X0027745Y0108386D01*
X0027796Y0108146D01*
X0027841Y0107905D01*
X0027880Y0107662D01*
X0027913Y0107419D01*
X0027940Y0107175D01*
X0027961Y0106931D01*
X0027976Y0106686D01*
X0027985Y0106440D01*
X0027988Y0106195D01*
X0027985Y0105950D01*
X0027976Y0105704D01*
X0027961Y0105459D01*
X0027940Y0105215D01*
X0027913Y0104971D01*
X0027880Y0104728D01*
X0027841Y0104485D01*
X0027796Y0104244D01*
X0027745Y0104004D01*
X0027688Y0103765D01*
X0027626Y0103528D01*
X0027557Y0103292D01*
X0027483Y0103058D01*
X0027403Y0102826D01*
X0027318Y0102596D01*
X0027227Y0102368D01*
X0027130Y0102143D01*
X0027028Y0101919D01*
X0026920Y0101699D01*
X0026807Y0101481D01*
X0026689Y0101266D01*
X0026565Y0101054D01*
X0026437Y0100845D01*
X0026303Y0100639D01*
X0026164Y0100437D01*
X0026020Y0100238D01*
X0025871Y0100043D01*
X0025718Y0099851D01*
X0025560Y0099663D01*
X0025398Y0099479D01*
X0025230Y0099300D01*
X0025059Y0099124D01*
X0024883Y0098953D01*
X0024704Y0098785D01*
X0024520Y0098623D01*
X0024332Y0098465D01*
X0024140Y0098312D01*
X0023945Y0098163D01*
X0023746Y0098019D01*
X0023544Y0097880D01*
X0023338Y0097746D01*
X0023129Y0097618D01*
X0022917Y0097494D01*
X0022702Y0097376D01*
X0022484Y0097263D01*
X0022264Y0097155D01*
X0022040Y0097053D01*
X0021815Y0096956D01*
X0021587Y0096865D01*
X0021357Y0096780D01*
X0021125Y0096700D01*
X0020891Y0096626D01*
X0020655Y0096557D01*
X0020418Y0096495D01*
X0020179Y0096438D01*
X0019939Y0096387D01*
X0019698Y0096342D01*
X0019455Y0096303D01*
X0019212Y0096270D01*
X0018968Y0096243D01*
X0018724Y0096222D01*
X0018479Y0096207D01*
X0018233Y0096198D01*
X0017988Y0096195D01*
X0017743Y0096198D01*
X0017497Y0096207D01*
X0017252Y0096222D01*
X0017008Y0096243D01*
X0016764Y0096270D01*
X0016521Y0096303D01*
X0016278Y0096342D01*
X0016037Y0096387D01*
X0015797Y0096438D01*
X0015558Y0096495D01*
X0015321Y0096557D01*
X0015085Y0096626D01*
X0014851Y0096700D01*
X0014619Y0096780D01*
X0014389Y0096865D01*
X0014161Y0096956D01*
X0013936Y0097053D01*
X0013712Y0097155D01*
X0013492Y0097263D01*
X0013274Y0097376D01*
X0013059Y0097494D01*
X0012847Y0097618D01*
X0012638Y0097746D01*
X0012432Y0097880D01*
X0012230Y0098019D01*
X0012031Y0098163D01*
X0011836Y0098312D01*
X0011644Y0098465D01*
X0011456Y0098623D01*
X0011272Y0098785D01*
X0011093Y0098953D01*
X0010917Y0099124D01*
X0010746Y0099300D01*
X0010578Y0099479D01*
X0010416Y0099663D01*
X0010258Y0099851D01*
X0010105Y0100043D01*
X0009956Y0100238D01*
X0009812Y0100437D01*
X0009673Y0100639D01*
X0009539Y0100845D01*
X0009411Y0101054D01*
X0009287Y0101266D01*
X0009169Y0101481D01*
X0009056Y0101699D01*
X0008948Y0101919D01*
X0008846Y0102143D01*
X0008749Y0102368D01*
X0008658Y0102596D01*
X0008573Y0102826D01*
X0008493Y0103058D01*
X0008419Y0103292D01*
X0008350Y0103528D01*
X0008288Y0103765D01*
X0008231Y0104004D01*
X0008180Y0104244D01*
X0008135Y0104485D01*
X0008096Y0104728D01*
X0008063Y0104971D01*
X0008036Y0105215D01*
X0008015Y0105459D01*
X0008000Y0105704D01*
X0007991Y0105950D01*
X0007988Y0106195D01*
X0006988Y0069424D02*
X0006992Y0069755D01*
X0007004Y0070086D01*
X0007025Y0070417D01*
X0007053Y0070747D01*
X0007090Y0071077D01*
X0007134Y0071405D01*
X0007187Y0071732D01*
X0007247Y0072058D01*
X0007316Y0072382D01*
X0007393Y0072704D01*
X0007477Y0073025D01*
X0007569Y0073343D01*
X0007669Y0073659D01*
X0007777Y0073972D01*
X0007893Y0074283D01*
X0008016Y0074590D01*
X0008146Y0074895D01*
X0008284Y0075196D01*
X0008429Y0075494D01*
X0008582Y0075788D01*
X0008742Y0076078D01*
X0008909Y0076364D01*
X0009082Y0076646D01*
X0009263Y0076924D01*
X0009451Y0077197D01*
X0009645Y0077466D01*
X0009845Y0077730D01*
X0010052Y0077988D01*
X0010266Y0078242D01*
X0010485Y0078490D01*
X0010711Y0078733D01*
X0010942Y0078970D01*
X0011179Y0079201D01*
X0011422Y0079427D01*
X0011670Y0079646D01*
X0011924Y0079860D01*
X0012182Y0080067D01*
X0012446Y0080267D01*
X0012715Y0080461D01*
X0012988Y0080649D01*
X0013266Y0080830D01*
X0013548Y0081003D01*
X0013834Y0081170D01*
X0014124Y0081330D01*
X0014418Y0081483D01*
X0014716Y0081628D01*
X0015017Y0081766D01*
X0015322Y0081896D01*
X0015629Y0082019D01*
X0015940Y0082135D01*
X0016253Y0082243D01*
X0016569Y0082343D01*
X0016887Y0082435D01*
X0017208Y0082519D01*
X0017530Y0082596D01*
X0017854Y0082665D01*
X0018180Y0082725D01*
X0018507Y0082778D01*
X0018835Y0082822D01*
X0019165Y0082859D01*
X0019495Y0082887D01*
X0019826Y0082908D01*
X0020157Y0082920D01*
X0020488Y0082924D01*
X0020819Y0082920D01*
X0021150Y0082908D01*
X0021481Y0082887D01*
X0021811Y0082859D01*
X0022141Y0082822D01*
X0022469Y0082778D01*
X0022796Y0082725D01*
X0023122Y0082665D01*
X0023446Y0082596D01*
X0023768Y0082519D01*
X0024089Y0082435D01*
X0024407Y0082343D01*
X0024723Y0082243D01*
X0025036Y0082135D01*
X0025347Y0082019D01*
X0025654Y0081896D01*
X0025959Y0081766D01*
X0026260Y0081628D01*
X0026558Y0081483D01*
X0026852Y0081330D01*
X0027142Y0081170D01*
X0027428Y0081003D01*
X0027710Y0080830D01*
X0027988Y0080649D01*
X0028261Y0080461D01*
X0028530Y0080267D01*
X0028794Y0080067D01*
X0029052Y0079860D01*
X0029306Y0079646D01*
X0029554Y0079427D01*
X0029797Y0079201D01*
X0030034Y0078970D01*
X0030265Y0078733D01*
X0030491Y0078490D01*
X0030710Y0078242D01*
X0030924Y0077988D01*
X0031131Y0077730D01*
X0031331Y0077466D01*
X0031525Y0077197D01*
X0031713Y0076924D01*
X0031894Y0076646D01*
X0032067Y0076364D01*
X0032234Y0076078D01*
X0032394Y0075788D01*
X0032547Y0075494D01*
X0032692Y0075196D01*
X0032830Y0074895D01*
X0032960Y0074590D01*
X0033083Y0074283D01*
X0033199Y0073972D01*
X0033307Y0073659D01*
X0033407Y0073343D01*
X0033499Y0073025D01*
X0033583Y0072704D01*
X0033660Y0072382D01*
X0033729Y0072058D01*
X0033789Y0071732D01*
X0033842Y0071405D01*
X0033886Y0071077D01*
X0033923Y0070747D01*
X0033951Y0070417D01*
X0033972Y0070086D01*
X0033984Y0069755D01*
X0033988Y0069424D01*
X0033984Y0069093D01*
X0033972Y0068762D01*
X0033951Y0068431D01*
X0033923Y0068101D01*
X0033886Y0067771D01*
X0033842Y0067443D01*
X0033789Y0067116D01*
X0033729Y0066790D01*
X0033660Y0066466D01*
X0033583Y0066144D01*
X0033499Y0065823D01*
X0033407Y0065505D01*
X0033307Y0065189D01*
X0033199Y0064876D01*
X0033083Y0064565D01*
X0032960Y0064258D01*
X0032830Y0063953D01*
X0032692Y0063652D01*
X0032547Y0063354D01*
X0032394Y0063060D01*
X0032234Y0062770D01*
X0032067Y0062484D01*
X0031894Y0062202D01*
X0031713Y0061924D01*
X0031525Y0061651D01*
X0031331Y0061382D01*
X0031131Y0061118D01*
X0030924Y0060860D01*
X0030710Y0060606D01*
X0030491Y0060358D01*
X0030265Y0060115D01*
X0030034Y0059878D01*
X0029797Y0059647D01*
X0029554Y0059421D01*
X0029306Y0059202D01*
X0029052Y0058988D01*
X0028794Y0058781D01*
X0028530Y0058581D01*
X0028261Y0058387D01*
X0027988Y0058199D01*
X0027710Y0058018D01*
X0027428Y0057845D01*
X0027142Y0057678D01*
X0026852Y0057518D01*
X0026558Y0057365D01*
X0026260Y0057220D01*
X0025959Y0057082D01*
X0025654Y0056952D01*
X0025347Y0056829D01*
X0025036Y0056713D01*
X0024723Y0056605D01*
X0024407Y0056505D01*
X0024089Y0056413D01*
X0023768Y0056329D01*
X0023446Y0056252D01*
X0023122Y0056183D01*
X0022796Y0056123D01*
X0022469Y0056070D01*
X0022141Y0056026D01*
X0021811Y0055989D01*
X0021481Y0055961D01*
X0021150Y0055940D01*
X0020819Y0055928D01*
X0020488Y0055924D01*
X0020157Y0055928D01*
X0019826Y0055940D01*
X0019495Y0055961D01*
X0019165Y0055989D01*
X0018835Y0056026D01*
X0018507Y0056070D01*
X0018180Y0056123D01*
X0017854Y0056183D01*
X0017530Y0056252D01*
X0017208Y0056329D01*
X0016887Y0056413D01*
X0016569Y0056505D01*
X0016253Y0056605D01*
X0015940Y0056713D01*
X0015629Y0056829D01*
X0015322Y0056952D01*
X0015017Y0057082D01*
X0014716Y0057220D01*
X0014418Y0057365D01*
X0014124Y0057518D01*
X0013834Y0057678D01*
X0013548Y0057845D01*
X0013266Y0058018D01*
X0012988Y0058199D01*
X0012715Y0058387D01*
X0012446Y0058581D01*
X0012182Y0058781D01*
X0011924Y0058988D01*
X0011670Y0059202D01*
X0011422Y0059421D01*
X0011179Y0059647D01*
X0010942Y0059878D01*
X0010711Y0060115D01*
X0010485Y0060358D01*
X0010266Y0060606D01*
X0010052Y0060860D01*
X0009845Y0061118D01*
X0009645Y0061382D01*
X0009451Y0061651D01*
X0009263Y0061924D01*
X0009082Y0062202D01*
X0008909Y0062484D01*
X0008742Y0062770D01*
X0008582Y0063060D01*
X0008429Y0063354D01*
X0008284Y0063652D01*
X0008146Y0063953D01*
X0008016Y0064258D01*
X0007893Y0064565D01*
X0007777Y0064876D01*
X0007669Y0065189D01*
X0007569Y0065505D01*
X0007477Y0065823D01*
X0007393Y0066144D01*
X0007316Y0066466D01*
X0007247Y0066790D01*
X0007187Y0067116D01*
X0007134Y0067443D01*
X0007090Y0067771D01*
X0007053Y0068101D01*
X0007025Y0068431D01*
X0007004Y0068762D01*
X0006992Y0069093D01*
X0006988Y0069424D01*
X0007988Y0029424D02*
X0007991Y0029669D01*
X0008000Y0029915D01*
X0008015Y0030160D01*
X0008036Y0030404D01*
X0008063Y0030648D01*
X0008096Y0030891D01*
X0008135Y0031134D01*
X0008180Y0031375D01*
X0008231Y0031615D01*
X0008288Y0031854D01*
X0008350Y0032091D01*
X0008419Y0032327D01*
X0008493Y0032561D01*
X0008573Y0032793D01*
X0008658Y0033023D01*
X0008749Y0033251D01*
X0008846Y0033476D01*
X0008948Y0033700D01*
X0009056Y0033920D01*
X0009169Y0034138D01*
X0009287Y0034353D01*
X0009411Y0034565D01*
X0009539Y0034774D01*
X0009673Y0034980D01*
X0009812Y0035182D01*
X0009956Y0035381D01*
X0010105Y0035576D01*
X0010258Y0035768D01*
X0010416Y0035956D01*
X0010578Y0036140D01*
X0010746Y0036319D01*
X0010917Y0036495D01*
X0011093Y0036666D01*
X0011272Y0036834D01*
X0011456Y0036996D01*
X0011644Y0037154D01*
X0011836Y0037307D01*
X0012031Y0037456D01*
X0012230Y0037600D01*
X0012432Y0037739D01*
X0012638Y0037873D01*
X0012847Y0038001D01*
X0013059Y0038125D01*
X0013274Y0038243D01*
X0013492Y0038356D01*
X0013712Y0038464D01*
X0013936Y0038566D01*
X0014161Y0038663D01*
X0014389Y0038754D01*
X0014619Y0038839D01*
X0014851Y0038919D01*
X0015085Y0038993D01*
X0015321Y0039062D01*
X0015558Y0039124D01*
X0015797Y0039181D01*
X0016037Y0039232D01*
X0016278Y0039277D01*
X0016521Y0039316D01*
X0016764Y0039349D01*
X0017008Y0039376D01*
X0017252Y0039397D01*
X0017497Y0039412D01*
X0017743Y0039421D01*
X0017988Y0039424D01*
X0018233Y0039421D01*
X0018479Y0039412D01*
X0018724Y0039397D01*
X0018968Y0039376D01*
X0019212Y0039349D01*
X0019455Y0039316D01*
X0019698Y0039277D01*
X0019939Y0039232D01*
X0020179Y0039181D01*
X0020418Y0039124D01*
X0020655Y0039062D01*
X0020891Y0038993D01*
X0021125Y0038919D01*
X0021357Y0038839D01*
X0021587Y0038754D01*
X0021815Y0038663D01*
X0022040Y0038566D01*
X0022264Y0038464D01*
X0022484Y0038356D01*
X0022702Y0038243D01*
X0022917Y0038125D01*
X0023129Y0038001D01*
X0023338Y0037873D01*
X0023544Y0037739D01*
X0023746Y0037600D01*
X0023945Y0037456D01*
X0024140Y0037307D01*
X0024332Y0037154D01*
X0024520Y0036996D01*
X0024704Y0036834D01*
X0024883Y0036666D01*
X0025059Y0036495D01*
X0025230Y0036319D01*
X0025398Y0036140D01*
X0025560Y0035956D01*
X0025718Y0035768D01*
X0025871Y0035576D01*
X0026020Y0035381D01*
X0026164Y0035182D01*
X0026303Y0034980D01*
X0026437Y0034774D01*
X0026565Y0034565D01*
X0026689Y0034353D01*
X0026807Y0034138D01*
X0026920Y0033920D01*
X0027028Y0033700D01*
X0027130Y0033476D01*
X0027227Y0033251D01*
X0027318Y0033023D01*
X0027403Y0032793D01*
X0027483Y0032561D01*
X0027557Y0032327D01*
X0027626Y0032091D01*
X0027688Y0031854D01*
X0027745Y0031615D01*
X0027796Y0031375D01*
X0027841Y0031134D01*
X0027880Y0030891D01*
X0027913Y0030648D01*
X0027940Y0030404D01*
X0027961Y0030160D01*
X0027976Y0029915D01*
X0027985Y0029669D01*
X0027988Y0029424D01*
X0027985Y0029179D01*
X0027976Y0028933D01*
X0027961Y0028688D01*
X0027940Y0028444D01*
X0027913Y0028200D01*
X0027880Y0027957D01*
X0027841Y0027714D01*
X0027796Y0027473D01*
X0027745Y0027233D01*
X0027688Y0026994D01*
X0027626Y0026757D01*
X0027557Y0026521D01*
X0027483Y0026287D01*
X0027403Y0026055D01*
X0027318Y0025825D01*
X0027227Y0025597D01*
X0027130Y0025372D01*
X0027028Y0025148D01*
X0026920Y0024928D01*
X0026807Y0024710D01*
X0026689Y0024495D01*
X0026565Y0024283D01*
X0026437Y0024074D01*
X0026303Y0023868D01*
X0026164Y0023666D01*
X0026020Y0023467D01*
X0025871Y0023272D01*
X0025718Y0023080D01*
X0025560Y0022892D01*
X0025398Y0022708D01*
X0025230Y0022529D01*
X0025059Y0022353D01*
X0024883Y0022182D01*
X0024704Y0022014D01*
X0024520Y0021852D01*
X0024332Y0021694D01*
X0024140Y0021541D01*
X0023945Y0021392D01*
X0023746Y0021248D01*
X0023544Y0021109D01*
X0023338Y0020975D01*
X0023129Y0020847D01*
X0022917Y0020723D01*
X0022702Y0020605D01*
X0022484Y0020492D01*
X0022264Y0020384D01*
X0022040Y0020282D01*
X0021815Y0020185D01*
X0021587Y0020094D01*
X0021357Y0020009D01*
X0021125Y0019929D01*
X0020891Y0019855D01*
X0020655Y0019786D01*
X0020418Y0019724D01*
X0020179Y0019667D01*
X0019939Y0019616D01*
X0019698Y0019571D01*
X0019455Y0019532D01*
X0019212Y0019499D01*
X0018968Y0019472D01*
X0018724Y0019451D01*
X0018479Y0019436D01*
X0018233Y0019427D01*
X0017988Y0019424D01*
X0017743Y0019427D01*
X0017497Y0019436D01*
X0017252Y0019451D01*
X0017008Y0019472D01*
X0016764Y0019499D01*
X0016521Y0019532D01*
X0016278Y0019571D01*
X0016037Y0019616D01*
X0015797Y0019667D01*
X0015558Y0019724D01*
X0015321Y0019786D01*
X0015085Y0019855D01*
X0014851Y0019929D01*
X0014619Y0020009D01*
X0014389Y0020094D01*
X0014161Y0020185D01*
X0013936Y0020282D01*
X0013712Y0020384D01*
X0013492Y0020492D01*
X0013274Y0020605D01*
X0013059Y0020723D01*
X0012847Y0020847D01*
X0012638Y0020975D01*
X0012432Y0021109D01*
X0012230Y0021248D01*
X0012031Y0021392D01*
X0011836Y0021541D01*
X0011644Y0021694D01*
X0011456Y0021852D01*
X0011272Y0022014D01*
X0011093Y0022182D01*
X0010917Y0022353D01*
X0010746Y0022529D01*
X0010578Y0022708D01*
X0010416Y0022892D01*
X0010258Y0023080D01*
X0010105Y0023272D01*
X0009956Y0023467D01*
X0009812Y0023666D01*
X0009673Y0023868D01*
X0009539Y0024074D01*
X0009411Y0024283D01*
X0009287Y0024495D01*
X0009169Y0024710D01*
X0009056Y0024928D01*
X0008948Y0025148D01*
X0008846Y0025372D01*
X0008749Y0025597D01*
X0008658Y0025825D01*
X0008573Y0026055D01*
X0008493Y0026287D01*
X0008419Y0026521D01*
X0008350Y0026757D01*
X0008288Y0026994D01*
X0008231Y0027233D01*
X0008180Y0027473D01*
X0008135Y0027714D01*
X0008096Y0027957D01*
X0008063Y0028200D01*
X0008036Y0028444D01*
X0008015Y0028688D01*
X0008000Y0028933D01*
X0007991Y0029179D01*
X0007988Y0029424D01*
X0094188Y0329424D02*
X0094188Y0364424D01*
X0094288Y0364424D02*
X0098488Y0364424D01*
X0102488Y0364424D01*
X0106688Y0364424D01*
X0106764Y0364422D01*
X0106840Y0364416D01*
X0106915Y0364407D01*
X0106990Y0364393D01*
X0107064Y0364376D01*
X0107137Y0364355D01*
X0107209Y0364331D01*
X0107280Y0364302D01*
X0107349Y0364271D01*
X0107416Y0364236D01*
X0107481Y0364197D01*
X0107545Y0364155D01*
X0107606Y0364110D01*
X0107665Y0364062D01*
X0107721Y0364011D01*
X0107775Y0363957D01*
X0107826Y0363901D01*
X0107874Y0363842D01*
X0107919Y0363781D01*
X0107961Y0363717D01*
X0108000Y0363652D01*
X0108035Y0363585D01*
X0108066Y0363516D01*
X0108095Y0363445D01*
X0108119Y0363373D01*
X0108140Y0363300D01*
X0108157Y0363226D01*
X0108171Y0363151D01*
X0108180Y0363076D01*
X0108186Y0363000D01*
X0108188Y0362924D01*
X0108188Y0330924D01*
X0108186Y0330848D01*
X0108180Y0330772D01*
X0108171Y0330697D01*
X0108157Y0330622D01*
X0108140Y0330548D01*
X0108119Y0330475D01*
X0108095Y0330403D01*
X0108066Y0330332D01*
X0108035Y0330263D01*
X0108000Y0330196D01*
X0107961Y0330131D01*
X0107919Y0330067D01*
X0107874Y0330006D01*
X0107826Y0329947D01*
X0107775Y0329891D01*
X0107721Y0329837D01*
X0107665Y0329786D01*
X0107606Y0329738D01*
X0107545Y0329693D01*
X0107481Y0329651D01*
X0107416Y0329612D01*
X0107349Y0329577D01*
X0107280Y0329546D01*
X0107209Y0329517D01*
X0107137Y0329493D01*
X0107064Y0329472D01*
X0106990Y0329455D01*
X0106915Y0329441D01*
X0106840Y0329432D01*
X0106764Y0329426D01*
X0106688Y0329424D01*
X0094288Y0329424D01*
X0094212Y0329426D01*
X0094136Y0329432D01*
X0094061Y0329441D01*
X0093986Y0329455D01*
X0093912Y0329472D01*
X0093839Y0329493D01*
X0093767Y0329517D01*
X0093696Y0329546D01*
X0093627Y0329577D01*
X0093560Y0329612D01*
X0093495Y0329651D01*
X0093431Y0329693D01*
X0093370Y0329738D01*
X0093311Y0329786D01*
X0093255Y0329837D01*
X0093201Y0329891D01*
X0093150Y0329947D01*
X0093102Y0330006D01*
X0093057Y0330067D01*
X0093015Y0330131D01*
X0092976Y0330196D01*
X0092941Y0330263D01*
X0092910Y0330332D01*
X0092881Y0330403D01*
X0092857Y0330475D01*
X0092836Y0330548D01*
X0092819Y0330622D01*
X0092805Y0330697D01*
X0092796Y0330772D01*
X0092790Y0330848D01*
X0092788Y0330924D01*
X0092788Y0362924D01*
X0092790Y0363000D01*
X0092796Y0363076D01*
X0092805Y0363151D01*
X0092819Y0363226D01*
X0092836Y0363300D01*
X0092857Y0363373D01*
X0092881Y0363445D01*
X0092910Y0363516D01*
X0092941Y0363585D01*
X0092976Y0363652D01*
X0093015Y0363717D01*
X0093057Y0363781D01*
X0093102Y0363842D01*
X0093150Y0363901D01*
X0093201Y0363957D01*
X0093255Y0364011D01*
X0093311Y0364062D01*
X0093370Y0364110D01*
X0093431Y0364155D01*
X0093495Y0364197D01*
X0093560Y0364236D01*
X0093627Y0364271D01*
X0093696Y0364302D01*
X0093767Y0364331D01*
X0093839Y0364355D01*
X0093912Y0364376D01*
X0093986Y0364393D01*
X0094061Y0364407D01*
X0094136Y0364416D01*
X0094212Y0364422D01*
X0094288Y0364424D01*
X0098488Y0364424D02*
X0098490Y0364336D01*
X0098496Y0364247D01*
X0098506Y0364159D01*
X0098519Y0364072D01*
X0098537Y0363985D01*
X0098558Y0363899D01*
X0098583Y0363814D01*
X0098612Y0363731D01*
X0098645Y0363648D01*
X0098681Y0363568D01*
X0098720Y0363489D01*
X0098763Y0363411D01*
X0098810Y0363336D01*
X0098860Y0363263D01*
X0098913Y0363192D01*
X0098969Y0363123D01*
X0099028Y0363057D01*
X0099090Y0362994D01*
X0099154Y0362934D01*
X0099221Y0362876D01*
X0099291Y0362822D01*
X0099363Y0362770D01*
X0099437Y0362722D01*
X0099514Y0362677D01*
X0099592Y0362636D01*
X0099672Y0362598D01*
X0099753Y0362564D01*
X0099836Y0362533D01*
X0099921Y0362506D01*
X0100006Y0362483D01*
X0100092Y0362464D01*
X0100180Y0362448D01*
X0100267Y0362436D01*
X0100355Y0362428D01*
X0100444Y0362424D01*
X0100532Y0362424D01*
X0100621Y0362428D01*
X0100709Y0362436D01*
X0100796Y0362448D01*
X0100884Y0362464D01*
X0100970Y0362483D01*
X0101055Y0362506D01*
X0101140Y0362533D01*
X0101223Y0362564D01*
X0101304Y0362598D01*
X0101384Y0362636D01*
X0101462Y0362677D01*
X0101539Y0362722D01*
X0101613Y0362770D01*
X0101685Y0362822D01*
X0101755Y0362876D01*
X0101822Y0362934D01*
X0101886Y0362994D01*
X0101948Y0363057D01*
X0102007Y0363123D01*
X0102063Y0363192D01*
X0102116Y0363263D01*
X0102166Y0363336D01*
X0102213Y0363411D01*
X0102256Y0363489D01*
X0102295Y0363568D01*
X0102331Y0363648D01*
X0102364Y0363731D01*
X0102393Y0363814D01*
X0102418Y0363899D01*
X0102439Y0363985D01*
X0102457Y0364072D01*
X0102470Y0364159D01*
X0102480Y0364247D01*
X0102486Y0364336D01*
X0102488Y0364424D01*
X0106688Y0384424D02*
X0094288Y0384424D01*
X0094188Y0384424D02*
X0094188Y0419424D01*
X0094288Y0419424D02*
X0098488Y0419424D01*
X0102488Y0419424D01*
X0106688Y0419424D01*
X0106764Y0419422D01*
X0106840Y0419416D01*
X0106915Y0419407D01*
X0106990Y0419393D01*
X0107064Y0419376D01*
X0107137Y0419355D01*
X0107209Y0419331D01*
X0107280Y0419302D01*
X0107349Y0419271D01*
X0107416Y0419236D01*
X0107481Y0419197D01*
X0107545Y0419155D01*
X0107606Y0419110D01*
X0107665Y0419062D01*
X0107721Y0419011D01*
X0107775Y0418957D01*
X0107826Y0418901D01*
X0107874Y0418842D01*
X0107919Y0418781D01*
X0107961Y0418717D01*
X0108000Y0418652D01*
X0108035Y0418585D01*
X0108066Y0418516D01*
X0108095Y0418445D01*
X0108119Y0418373D01*
X0108140Y0418300D01*
X0108157Y0418226D01*
X0108171Y0418151D01*
X0108180Y0418076D01*
X0108186Y0418000D01*
X0108188Y0417924D01*
X0108188Y0385924D01*
X0108186Y0385848D01*
X0108180Y0385772D01*
X0108171Y0385697D01*
X0108157Y0385622D01*
X0108140Y0385548D01*
X0108119Y0385475D01*
X0108095Y0385403D01*
X0108066Y0385332D01*
X0108035Y0385263D01*
X0108000Y0385196D01*
X0107961Y0385131D01*
X0107919Y0385067D01*
X0107874Y0385006D01*
X0107826Y0384947D01*
X0107775Y0384891D01*
X0107721Y0384837D01*
X0107665Y0384786D01*
X0107606Y0384738D01*
X0107545Y0384693D01*
X0107481Y0384651D01*
X0107416Y0384612D01*
X0107349Y0384577D01*
X0107280Y0384546D01*
X0107209Y0384517D01*
X0107137Y0384493D01*
X0107064Y0384472D01*
X0106990Y0384455D01*
X0106915Y0384441D01*
X0106840Y0384432D01*
X0106764Y0384426D01*
X0106688Y0384424D01*
X0102488Y0419424D02*
X0102486Y0419336D01*
X0102480Y0419247D01*
X0102470Y0419159D01*
X0102457Y0419072D01*
X0102439Y0418985D01*
X0102418Y0418899D01*
X0102393Y0418814D01*
X0102364Y0418731D01*
X0102331Y0418648D01*
X0102295Y0418568D01*
X0102256Y0418489D01*
X0102213Y0418411D01*
X0102166Y0418336D01*
X0102116Y0418263D01*
X0102063Y0418192D01*
X0102007Y0418123D01*
X0101948Y0418057D01*
X0101886Y0417994D01*
X0101822Y0417934D01*
X0101755Y0417876D01*
X0101685Y0417822D01*
X0101613Y0417770D01*
X0101539Y0417722D01*
X0101462Y0417677D01*
X0101384Y0417636D01*
X0101304Y0417598D01*
X0101223Y0417564D01*
X0101140Y0417533D01*
X0101055Y0417506D01*
X0100970Y0417483D01*
X0100884Y0417464D01*
X0100796Y0417448D01*
X0100709Y0417436D01*
X0100621Y0417428D01*
X0100532Y0417424D01*
X0100444Y0417424D01*
X0100355Y0417428D01*
X0100267Y0417436D01*
X0100180Y0417448D01*
X0100092Y0417464D01*
X0100006Y0417483D01*
X0099921Y0417506D01*
X0099836Y0417533D01*
X0099753Y0417564D01*
X0099672Y0417598D01*
X0099592Y0417636D01*
X0099514Y0417677D01*
X0099437Y0417722D01*
X0099363Y0417770D01*
X0099291Y0417822D01*
X0099221Y0417876D01*
X0099154Y0417934D01*
X0099090Y0417994D01*
X0099028Y0418057D01*
X0098969Y0418123D01*
X0098913Y0418192D01*
X0098860Y0418263D01*
X0098810Y0418336D01*
X0098763Y0418411D01*
X0098720Y0418489D01*
X0098681Y0418568D01*
X0098645Y0418648D01*
X0098612Y0418731D01*
X0098583Y0418814D01*
X0098558Y0418899D01*
X0098537Y0418985D01*
X0098519Y0419072D01*
X0098506Y0419159D01*
X0098496Y0419247D01*
X0098490Y0419336D01*
X0098488Y0419424D01*
X0094288Y0419424D02*
X0094212Y0419422D01*
X0094136Y0419416D01*
X0094061Y0419407D01*
X0093986Y0419393D01*
X0093912Y0419376D01*
X0093839Y0419355D01*
X0093767Y0419331D01*
X0093696Y0419302D01*
X0093627Y0419271D01*
X0093560Y0419236D01*
X0093495Y0419197D01*
X0093431Y0419155D01*
X0093370Y0419110D01*
X0093311Y0419062D01*
X0093255Y0419011D01*
X0093201Y0418957D01*
X0093150Y0418901D01*
X0093102Y0418842D01*
X0093057Y0418781D01*
X0093015Y0418717D01*
X0092976Y0418652D01*
X0092941Y0418585D01*
X0092910Y0418516D01*
X0092881Y0418445D01*
X0092857Y0418373D01*
X0092836Y0418300D01*
X0092819Y0418226D01*
X0092805Y0418151D01*
X0092796Y0418076D01*
X0092790Y0418000D01*
X0092788Y0417924D01*
X0092788Y0385924D01*
X0092790Y0385848D01*
X0092796Y0385772D01*
X0092805Y0385697D01*
X0092819Y0385622D01*
X0092836Y0385548D01*
X0092857Y0385475D01*
X0092881Y0385403D01*
X0092910Y0385332D01*
X0092941Y0385263D01*
X0092976Y0385196D01*
X0093015Y0385131D01*
X0093057Y0385067D01*
X0093102Y0385006D01*
X0093150Y0384947D01*
X0093201Y0384891D01*
X0093255Y0384837D01*
X0093311Y0384786D01*
X0093370Y0384738D01*
X0093431Y0384693D01*
X0093495Y0384651D01*
X0093560Y0384612D01*
X0093627Y0384577D01*
X0093696Y0384546D01*
X0093767Y0384517D01*
X0093839Y0384493D01*
X0093912Y0384472D01*
X0093986Y0384455D01*
X0094061Y0384441D01*
X0094136Y0384432D01*
X0094212Y0384426D01*
X0094288Y0384424D01*
X0105988Y0440924D02*
X0105988Y0442924D01*
X0106988Y0441924D02*
X0104988Y0441924D01*
X0105488Y0461924D02*
X0100488Y0461924D01*
X0097988Y0464424D01*
X0097988Y0479424D01*
X0100488Y0481924D01*
X0105488Y0481924D01*
X0107988Y0479424D01*
X0107988Y0464424D01*
X0105488Y0461924D01*
X0097988Y0464424D02*
X0095488Y0461924D01*
X0090488Y0461924D01*
X0087988Y0464424D01*
X0087988Y0479424D01*
X0090488Y0481924D01*
X0095488Y0481924D01*
X0097988Y0479424D01*
X0087988Y0479424D02*
X0085488Y0481924D01*
X0080488Y0481924D01*
X0077988Y0479424D01*
X0077988Y0464424D01*
X0080488Y0461924D01*
X0085488Y0461924D01*
X0087988Y0464424D01*
X0079488Y0447424D02*
X0079488Y0441424D01*
X0079486Y0441364D01*
X0079481Y0441303D01*
X0079472Y0441244D01*
X0079459Y0441185D01*
X0079443Y0441126D01*
X0079423Y0441069D01*
X0079400Y0441014D01*
X0079373Y0440959D01*
X0079344Y0440907D01*
X0079311Y0440856D01*
X0079275Y0440807D01*
X0079237Y0440761D01*
X0079195Y0440717D01*
X0079151Y0440675D01*
X0079105Y0440637D01*
X0079056Y0440601D01*
X0079005Y0440568D01*
X0078953Y0440539D01*
X0078898Y0440512D01*
X0078843Y0440489D01*
X0078786Y0440469D01*
X0078727Y0440453D01*
X0078668Y0440440D01*
X0078609Y0440431D01*
X0078548Y0440426D01*
X0078488Y0440424D01*
X0062488Y0440424D01*
X0062428Y0440426D01*
X0062367Y0440431D01*
X0062308Y0440440D01*
X0062249Y0440453D01*
X0062190Y0440469D01*
X0062133Y0440489D01*
X0062078Y0440512D01*
X0062023Y0440539D01*
X0061971Y0440568D01*
X0061920Y0440601D01*
X0061871Y0440637D01*
X0061825Y0440675D01*
X0061781Y0440717D01*
X0061739Y0440761D01*
X0061701Y0440807D01*
X0061665Y0440856D01*
X0061632Y0440907D01*
X0061603Y0440959D01*
X0061576Y0441014D01*
X0061553Y0441069D01*
X0061533Y0441126D01*
X0061517Y0441185D01*
X0061504Y0441244D01*
X0061495Y0441303D01*
X0061490Y0441364D01*
X0061488Y0441424D01*
X0061488Y0447424D01*
X0061490Y0447484D01*
X0061495Y0447545D01*
X0061504Y0447604D01*
X0061517Y0447663D01*
X0061533Y0447722D01*
X0061553Y0447779D01*
X0061576Y0447834D01*
X0061603Y0447889D01*
X0061632Y0447941D01*
X0061665Y0447992D01*
X0061701Y0448041D01*
X0061739Y0448087D01*
X0061781Y0448131D01*
X0061825Y0448173D01*
X0061871Y0448211D01*
X0061920Y0448247D01*
X0061971Y0448280D01*
X0062023Y0448309D01*
X0062078Y0448336D01*
X0062133Y0448359D01*
X0062190Y0448379D01*
X0062249Y0448395D01*
X0062308Y0448408D01*
X0062367Y0448417D01*
X0062428Y0448422D01*
X0062488Y0448424D01*
X0078488Y0448424D01*
X0078548Y0448422D01*
X0078609Y0448417D01*
X0078668Y0448408D01*
X0078727Y0448395D01*
X0078786Y0448379D01*
X0078843Y0448359D01*
X0078898Y0448336D01*
X0078953Y0448309D01*
X0079005Y0448280D01*
X0079056Y0448247D01*
X0079105Y0448211D01*
X0079151Y0448173D01*
X0079195Y0448131D01*
X0079237Y0448087D01*
X0079275Y0448041D01*
X0079311Y0447992D01*
X0079344Y0447941D01*
X0079373Y0447889D01*
X0079400Y0447834D01*
X0079423Y0447779D01*
X0079443Y0447722D01*
X0079459Y0447663D01*
X0079472Y0447604D01*
X0079481Y0447545D01*
X0079486Y0447484D01*
X0079488Y0447424D01*
X0075488Y0461924D02*
X0070488Y0461924D01*
X0067988Y0464424D01*
X0067988Y0479424D01*
X0070488Y0481924D01*
X0075488Y0481924D01*
X0077988Y0479424D01*
X0077988Y0464424D02*
X0075488Y0461924D01*
X0070488Y0446924D02*
X0070488Y0444424D01*
X0070488Y0441924D01*
X0070488Y0444424D02*
X0066488Y0441924D01*
X0066488Y0446924D01*
X0070488Y0444424D01*
X0064488Y0444424D01*
X0070488Y0444424D02*
X0072988Y0444424D01*
X0065488Y0461924D02*
X0067988Y0464424D01*
X0065488Y0461924D02*
X0060488Y0461924D01*
X0057988Y0464424D01*
X0057988Y0479424D01*
X0060488Y0481924D01*
X0065488Y0481924D01*
X0067988Y0479424D01*
X0029488Y0412424D02*
X0029488Y0396424D01*
X0029486Y0396364D01*
X0029481Y0396303D01*
X0029472Y0396244D01*
X0029459Y0396185D01*
X0029443Y0396126D01*
X0029423Y0396069D01*
X0029400Y0396014D01*
X0029373Y0395959D01*
X0029344Y0395907D01*
X0029311Y0395856D01*
X0029275Y0395807D01*
X0029237Y0395761D01*
X0029195Y0395717D01*
X0029151Y0395675D01*
X0029105Y0395637D01*
X0029056Y0395601D01*
X0029005Y0395568D01*
X0028953Y0395539D01*
X0028898Y0395512D01*
X0028843Y0395489D01*
X0028786Y0395469D01*
X0028727Y0395453D01*
X0028668Y0395440D01*
X0028609Y0395431D01*
X0028548Y0395426D01*
X0028488Y0395424D01*
X0022488Y0395424D01*
X0022428Y0395426D01*
X0022367Y0395431D01*
X0022308Y0395440D01*
X0022249Y0395453D01*
X0022190Y0395469D01*
X0022133Y0395489D01*
X0022078Y0395512D01*
X0022023Y0395539D01*
X0021971Y0395568D01*
X0021920Y0395601D01*
X0021871Y0395637D01*
X0021825Y0395675D01*
X0021781Y0395717D01*
X0021739Y0395761D01*
X0021701Y0395807D01*
X0021665Y0395856D01*
X0021632Y0395907D01*
X0021603Y0395959D01*
X0021576Y0396014D01*
X0021553Y0396069D01*
X0021533Y0396126D01*
X0021517Y0396185D01*
X0021504Y0396244D01*
X0021495Y0396303D01*
X0021490Y0396364D01*
X0021488Y0396424D01*
X0021488Y0412424D01*
X0021988Y0412424D02*
X0021986Y0412484D01*
X0021981Y0412545D01*
X0021972Y0412604D01*
X0021959Y0412663D01*
X0021943Y0412722D01*
X0021923Y0412779D01*
X0021900Y0412834D01*
X0021873Y0412889D01*
X0021844Y0412941D01*
X0021811Y0412992D01*
X0021775Y0413041D01*
X0021737Y0413087D01*
X0021695Y0413131D01*
X0021651Y0413173D01*
X0021605Y0413211D01*
X0021556Y0413247D01*
X0021505Y0413280D01*
X0021453Y0413309D01*
X0021398Y0413336D01*
X0021343Y0413359D01*
X0021286Y0413379D01*
X0021227Y0413395D01*
X0021168Y0413408D01*
X0021109Y0413417D01*
X0021048Y0413422D01*
X0020988Y0413424D01*
X0014988Y0413424D01*
X0014928Y0413422D01*
X0014867Y0413417D01*
X0014808Y0413408D01*
X0014749Y0413395D01*
X0014690Y0413379D01*
X0014633Y0413359D01*
X0014578Y0413336D01*
X0014523Y0413309D01*
X0014471Y0413280D01*
X0014420Y0413247D01*
X0014371Y0413211D01*
X0014325Y0413173D01*
X0014281Y0413131D01*
X0014239Y0413087D01*
X0014201Y0413041D01*
X0014165Y0412992D01*
X0014132Y0412941D01*
X0014103Y0412889D01*
X0014076Y0412834D01*
X0014053Y0412779D01*
X0014033Y0412722D01*
X0014017Y0412663D01*
X0014004Y0412604D01*
X0013995Y0412545D01*
X0013990Y0412484D01*
X0013988Y0412424D01*
X0013988Y0396424D01*
X0013990Y0396364D01*
X0013995Y0396303D01*
X0014004Y0396244D01*
X0014017Y0396185D01*
X0014033Y0396126D01*
X0014053Y0396069D01*
X0014076Y0396014D01*
X0014103Y0395959D01*
X0014132Y0395907D01*
X0014165Y0395856D01*
X0014201Y0395807D01*
X0014239Y0395761D01*
X0014281Y0395717D01*
X0014325Y0395675D01*
X0014371Y0395637D01*
X0014420Y0395601D01*
X0014471Y0395568D01*
X0014523Y0395539D01*
X0014578Y0395512D01*
X0014633Y0395489D01*
X0014690Y0395469D01*
X0014749Y0395453D01*
X0014808Y0395440D01*
X0014867Y0395431D01*
X0014928Y0395426D01*
X0014988Y0395424D01*
X0020988Y0395424D01*
X0021048Y0395426D01*
X0021109Y0395431D01*
X0021168Y0395440D01*
X0021227Y0395453D01*
X0021286Y0395469D01*
X0021343Y0395489D01*
X0021398Y0395512D01*
X0021453Y0395539D01*
X0021505Y0395568D01*
X0021556Y0395601D01*
X0021605Y0395637D01*
X0021651Y0395675D01*
X0021695Y0395717D01*
X0021737Y0395761D01*
X0021775Y0395807D01*
X0021811Y0395856D01*
X0021844Y0395907D01*
X0021873Y0395959D01*
X0021900Y0396014D01*
X0021923Y0396069D01*
X0021943Y0396126D01*
X0021959Y0396185D01*
X0021972Y0396244D01*
X0021981Y0396303D01*
X0021986Y0396364D01*
X0021988Y0396424D01*
X0021988Y0412424D01*
X0021488Y0412424D02*
X0021490Y0412484D01*
X0021495Y0412545D01*
X0021504Y0412604D01*
X0021517Y0412663D01*
X0021533Y0412722D01*
X0021553Y0412779D01*
X0021576Y0412834D01*
X0021603Y0412889D01*
X0021632Y0412941D01*
X0021665Y0412992D01*
X0021701Y0413041D01*
X0021739Y0413087D01*
X0021781Y0413131D01*
X0021825Y0413173D01*
X0021871Y0413211D01*
X0021920Y0413247D01*
X0021971Y0413280D01*
X0022023Y0413309D01*
X0022078Y0413336D01*
X0022133Y0413359D01*
X0022190Y0413379D01*
X0022249Y0413395D01*
X0022308Y0413408D01*
X0022367Y0413417D01*
X0022428Y0413422D01*
X0022488Y0413424D01*
X0028488Y0413424D01*
X0028548Y0413422D01*
X0028609Y0413417D01*
X0028668Y0413408D01*
X0028727Y0413395D01*
X0028786Y0413379D01*
X0028843Y0413359D01*
X0028898Y0413336D01*
X0028953Y0413309D01*
X0029005Y0413280D01*
X0029056Y0413247D01*
X0029105Y0413211D01*
X0029151Y0413173D01*
X0029195Y0413131D01*
X0029237Y0413087D01*
X0029275Y0413041D01*
X0029311Y0412992D01*
X0029344Y0412941D01*
X0029373Y0412889D01*
X0029400Y0412834D01*
X0029423Y0412779D01*
X0029443Y0412722D01*
X0029459Y0412663D01*
X0029472Y0412604D01*
X0029481Y0412545D01*
X0029486Y0412484D01*
X0029488Y0412424D01*
X0027988Y0404424D02*
X0025488Y0404424D01*
X0022988Y0404424D01*
X0025488Y0404424D02*
X0022988Y0400424D01*
X0027988Y0400424D01*
X0025488Y0404424D01*
X0025488Y0398424D01*
X0025488Y0404424D02*
X0025488Y0406924D01*
X0020488Y0404424D02*
X0017988Y0404424D01*
X0015488Y0404424D01*
X0017988Y0404424D02*
X0015488Y0400424D01*
X0020488Y0400424D01*
X0017988Y0404424D01*
X0017988Y0398424D01*
X0017988Y0404424D02*
X0017988Y0406924D01*
X0020988Y0370924D02*
X0014988Y0370924D01*
X0014928Y0370922D01*
X0014867Y0370917D01*
X0014808Y0370908D01*
X0014749Y0370895D01*
X0014690Y0370879D01*
X0014633Y0370859D01*
X0014578Y0370836D01*
X0014523Y0370809D01*
X0014471Y0370780D01*
X0014420Y0370747D01*
X0014371Y0370711D01*
X0014325Y0370673D01*
X0014281Y0370631D01*
X0014239Y0370587D01*
X0014201Y0370541D01*
X0014165Y0370492D01*
X0014132Y0370441D01*
X0014103Y0370389D01*
X0014076Y0370334D01*
X0014053Y0370279D01*
X0014033Y0370222D01*
X0014017Y0370163D01*
X0014004Y0370104D01*
X0013995Y0370045D01*
X0013990Y0369984D01*
X0013988Y0369924D01*
X0013988Y0353924D01*
X0013990Y0353864D01*
X0013995Y0353803D01*
X0014004Y0353744D01*
X0014017Y0353685D01*
X0014033Y0353626D01*
X0014053Y0353569D01*
X0014076Y0353514D01*
X0014103Y0353459D01*
X0014132Y0353407D01*
X0014165Y0353356D01*
X0014201Y0353307D01*
X0014239Y0353261D01*
X0014281Y0353217D01*
X0014325Y0353175D01*
X0014371Y0353137D01*
X0014420Y0353101D01*
X0014471Y0353068D01*
X0014523Y0353039D01*
X0014578Y0353012D01*
X0014633Y0352989D01*
X0014690Y0352969D01*
X0014749Y0352953D01*
X0014808Y0352940D01*
X0014867Y0352931D01*
X0014928Y0352926D01*
X0014988Y0352924D01*
X0020988Y0352924D01*
X0021048Y0352926D01*
X0021109Y0352931D01*
X0021168Y0352940D01*
X0021227Y0352953D01*
X0021286Y0352969D01*
X0021343Y0352989D01*
X0021398Y0353012D01*
X0021453Y0353039D01*
X0021505Y0353068D01*
X0021556Y0353101D01*
X0021605Y0353137D01*
X0021651Y0353175D01*
X0021695Y0353217D01*
X0021737Y0353261D01*
X0021775Y0353307D01*
X0021811Y0353356D01*
X0021844Y0353407D01*
X0021873Y0353459D01*
X0021900Y0353514D01*
X0021923Y0353569D01*
X0021943Y0353626D01*
X0021959Y0353685D01*
X0021972Y0353744D01*
X0021981Y0353803D01*
X0021986Y0353864D01*
X0021988Y0353924D01*
X0021988Y0369924D01*
X0021488Y0369924D02*
X0021488Y0353924D01*
X0021490Y0353864D01*
X0021495Y0353803D01*
X0021504Y0353744D01*
X0021517Y0353685D01*
X0021533Y0353626D01*
X0021553Y0353569D01*
X0021576Y0353514D01*
X0021603Y0353459D01*
X0021632Y0353407D01*
X0021665Y0353356D01*
X0021701Y0353307D01*
X0021739Y0353261D01*
X0021781Y0353217D01*
X0021825Y0353175D01*
X0021871Y0353137D01*
X0021920Y0353101D01*
X0021971Y0353068D01*
X0022023Y0353039D01*
X0022078Y0353012D01*
X0022133Y0352989D01*
X0022190Y0352969D01*
X0022249Y0352953D01*
X0022308Y0352940D01*
X0022367Y0352931D01*
X0022428Y0352926D01*
X0022488Y0352924D01*
X0028488Y0352924D01*
X0028548Y0352926D01*
X0028609Y0352931D01*
X0028668Y0352940D01*
X0028727Y0352953D01*
X0028786Y0352969D01*
X0028843Y0352989D01*
X0028898Y0353012D01*
X0028953Y0353039D01*
X0029005Y0353068D01*
X0029056Y0353101D01*
X0029105Y0353137D01*
X0029151Y0353175D01*
X0029195Y0353217D01*
X0029237Y0353261D01*
X0029275Y0353307D01*
X0029311Y0353356D01*
X0029344Y0353407D01*
X0029373Y0353459D01*
X0029400Y0353514D01*
X0029423Y0353569D01*
X0029443Y0353626D01*
X0029459Y0353685D01*
X0029472Y0353744D01*
X0029481Y0353803D01*
X0029486Y0353864D01*
X0029488Y0353924D01*
X0029488Y0369924D01*
X0029486Y0369984D01*
X0029481Y0370045D01*
X0029472Y0370104D01*
X0029459Y0370163D01*
X0029443Y0370222D01*
X0029423Y0370279D01*
X0029400Y0370334D01*
X0029373Y0370389D01*
X0029344Y0370441D01*
X0029311Y0370492D01*
X0029275Y0370541D01*
X0029237Y0370587D01*
X0029195Y0370631D01*
X0029151Y0370673D01*
X0029105Y0370711D01*
X0029056Y0370747D01*
X0029005Y0370780D01*
X0028953Y0370809D01*
X0028898Y0370836D01*
X0028843Y0370859D01*
X0028786Y0370879D01*
X0028727Y0370895D01*
X0028668Y0370908D01*
X0028609Y0370917D01*
X0028548Y0370922D01*
X0028488Y0370924D01*
X0022488Y0370924D01*
X0022428Y0370922D01*
X0022367Y0370917D01*
X0022308Y0370908D01*
X0022249Y0370895D01*
X0022190Y0370879D01*
X0022133Y0370859D01*
X0022078Y0370836D01*
X0022023Y0370809D01*
X0021971Y0370780D01*
X0021920Y0370747D01*
X0021871Y0370711D01*
X0021825Y0370673D01*
X0021781Y0370631D01*
X0021739Y0370587D01*
X0021701Y0370541D01*
X0021665Y0370492D01*
X0021632Y0370441D01*
X0021603Y0370389D01*
X0021576Y0370334D01*
X0021553Y0370279D01*
X0021533Y0370222D01*
X0021517Y0370163D01*
X0021504Y0370104D01*
X0021495Y0370045D01*
X0021490Y0369984D01*
X0021488Y0369924D01*
X0021988Y0369924D02*
X0021986Y0369984D01*
X0021981Y0370045D01*
X0021972Y0370104D01*
X0021959Y0370163D01*
X0021943Y0370222D01*
X0021923Y0370279D01*
X0021900Y0370334D01*
X0021873Y0370389D01*
X0021844Y0370441D01*
X0021811Y0370492D01*
X0021775Y0370541D01*
X0021737Y0370587D01*
X0021695Y0370631D01*
X0021651Y0370673D01*
X0021605Y0370711D01*
X0021556Y0370747D01*
X0021505Y0370780D01*
X0021453Y0370809D01*
X0021398Y0370836D01*
X0021343Y0370859D01*
X0021286Y0370879D01*
X0021227Y0370895D01*
X0021168Y0370908D01*
X0021109Y0370917D01*
X0021048Y0370922D01*
X0020988Y0370924D01*
X0017988Y0364424D02*
X0017988Y0361924D01*
X0015488Y0361924D01*
X0017988Y0361924D02*
X0015488Y0357924D01*
X0020488Y0357924D01*
X0017988Y0361924D01*
X0020488Y0361924D01*
X0017988Y0361924D02*
X0017988Y0355924D01*
X0022988Y0357924D02*
X0025488Y0361924D01*
X0022988Y0361924D01*
X0025488Y0361924D02*
X0025488Y0355924D01*
X0027988Y0357924D02*
X0022988Y0357924D01*
X0025488Y0361924D02*
X0027988Y0361924D01*
X0025488Y0361924D02*
X0027988Y0357924D01*
X0025488Y0361924D02*
X0025488Y0364424D01*
X0104488Y0441924D02*
X0104491Y0442194D01*
X0104501Y0442464D01*
X0104518Y0442733D01*
X0104541Y0443002D01*
X0104571Y0443271D01*
X0104607Y0443538D01*
X0104650Y0443805D01*
X0104699Y0444070D01*
X0104755Y0444334D01*
X0104818Y0444597D01*
X0104886Y0444858D01*
X0104962Y0445117D01*
X0105043Y0445374D01*
X0105131Y0445630D01*
X0105225Y0445883D01*
X0105325Y0446134D01*
X0105432Y0446382D01*
X0105544Y0446627D01*
X0105663Y0446870D01*
X0105787Y0447109D01*
X0105917Y0447346D01*
X0106053Y0447579D01*
X0106195Y0447809D01*
X0106342Y0448035D01*
X0106495Y0448258D01*
X0106653Y0448477D01*
X0106816Y0448692D01*
X0106985Y0448902D01*
X0107159Y0449109D01*
X0107338Y0449311D01*
X0107521Y0449509D01*
X0107710Y0449702D01*
X0107903Y0449891D01*
X0108101Y0450074D01*
X0108303Y0450253D01*
X0108510Y0450427D01*
X0108720Y0450596D01*
X0108935Y0450759D01*
X0109154Y0450917D01*
X0109377Y0451070D01*
X0109603Y0451217D01*
X0109833Y0451359D01*
X0110066Y0451495D01*
X0110303Y0451625D01*
X0110542Y0451749D01*
X0110785Y0451868D01*
X0111030Y0451980D01*
X0111278Y0452087D01*
X0111529Y0452187D01*
X0111782Y0452281D01*
X0112038Y0452369D01*
X0112295Y0452450D01*
X0112554Y0452526D01*
X0112815Y0452594D01*
X0113078Y0452657D01*
X0113342Y0452713D01*
X0113607Y0452762D01*
X0113874Y0452805D01*
X0114141Y0452841D01*
X0114410Y0452871D01*
X0114679Y0452894D01*
X0114948Y0452911D01*
X0115218Y0452921D01*
X0115488Y0452924D01*
X0115758Y0452921D01*
X0116028Y0452911D01*
X0116297Y0452894D01*
X0116566Y0452871D01*
X0116835Y0452841D01*
X0117102Y0452805D01*
X0117369Y0452762D01*
X0117634Y0452713D01*
X0117898Y0452657D01*
X0118161Y0452594D01*
X0118422Y0452526D01*
X0118681Y0452450D01*
X0118938Y0452369D01*
X0119194Y0452281D01*
X0119447Y0452187D01*
X0119698Y0452087D01*
X0119946Y0451980D01*
X0120191Y0451868D01*
X0120434Y0451749D01*
X0120673Y0451625D01*
X0120910Y0451495D01*
X0121143Y0451359D01*
X0121373Y0451217D01*
X0121599Y0451070D01*
X0121822Y0450917D01*
X0122041Y0450759D01*
X0122256Y0450596D01*
X0122466Y0450427D01*
X0122673Y0450253D01*
X0122875Y0450074D01*
X0123073Y0449891D01*
X0123266Y0449702D01*
X0123455Y0449509D01*
X0123638Y0449311D01*
X0123817Y0449109D01*
X0123991Y0448902D01*
X0124160Y0448692D01*
X0124323Y0448477D01*
X0124481Y0448258D01*
X0124634Y0448035D01*
X0124781Y0447809D01*
X0124923Y0447579D01*
X0125059Y0447346D01*
X0125189Y0447109D01*
X0125313Y0446870D01*
X0125432Y0446627D01*
X0125544Y0446382D01*
X0125651Y0446134D01*
X0125751Y0445883D01*
X0125845Y0445630D01*
X0125933Y0445374D01*
X0126014Y0445117D01*
X0126090Y0444858D01*
X0126158Y0444597D01*
X0126221Y0444334D01*
X0126277Y0444070D01*
X0126326Y0443805D01*
X0126369Y0443538D01*
X0126405Y0443271D01*
X0126435Y0443002D01*
X0126458Y0442733D01*
X0126475Y0442464D01*
X0126485Y0442194D01*
X0126488Y0441924D01*
X0126485Y0441654D01*
X0126475Y0441384D01*
X0126458Y0441115D01*
X0126435Y0440846D01*
X0126405Y0440577D01*
X0126369Y0440310D01*
X0126326Y0440043D01*
X0126277Y0439778D01*
X0126221Y0439514D01*
X0126158Y0439251D01*
X0126090Y0438990D01*
X0126014Y0438731D01*
X0125933Y0438474D01*
X0125845Y0438218D01*
X0125751Y0437965D01*
X0125651Y0437714D01*
X0125544Y0437466D01*
X0125432Y0437221D01*
X0125313Y0436978D01*
X0125189Y0436739D01*
X0125059Y0436502D01*
X0124923Y0436269D01*
X0124781Y0436039D01*
X0124634Y0435813D01*
X0124481Y0435590D01*
X0124323Y0435371D01*
X0124160Y0435156D01*
X0123991Y0434946D01*
X0123817Y0434739D01*
X0123638Y0434537D01*
X0123455Y0434339D01*
X0123266Y0434146D01*
X0123073Y0433957D01*
X0122875Y0433774D01*
X0122673Y0433595D01*
X0122466Y0433421D01*
X0122256Y0433252D01*
X0122041Y0433089D01*
X0121822Y0432931D01*
X0121599Y0432778D01*
X0121373Y0432631D01*
X0121143Y0432489D01*
X0120910Y0432353D01*
X0120673Y0432223D01*
X0120434Y0432099D01*
X0120191Y0431980D01*
X0119946Y0431868D01*
X0119698Y0431761D01*
X0119447Y0431661D01*
X0119194Y0431567D01*
X0118938Y0431479D01*
X0118681Y0431398D01*
X0118422Y0431322D01*
X0118161Y0431254D01*
X0117898Y0431191D01*
X0117634Y0431135D01*
X0117369Y0431086D01*
X0117102Y0431043D01*
X0116835Y0431007D01*
X0116566Y0430977D01*
X0116297Y0430954D01*
X0116028Y0430937D01*
X0115758Y0430927D01*
X0115488Y0430924D01*
X0115218Y0430927D01*
X0114948Y0430937D01*
X0114679Y0430954D01*
X0114410Y0430977D01*
X0114141Y0431007D01*
X0113874Y0431043D01*
X0113607Y0431086D01*
X0113342Y0431135D01*
X0113078Y0431191D01*
X0112815Y0431254D01*
X0112554Y0431322D01*
X0112295Y0431398D01*
X0112038Y0431479D01*
X0111782Y0431567D01*
X0111529Y0431661D01*
X0111278Y0431761D01*
X0111030Y0431868D01*
X0110785Y0431980D01*
X0110542Y0432099D01*
X0110303Y0432223D01*
X0110066Y0432353D01*
X0109833Y0432489D01*
X0109603Y0432631D01*
X0109377Y0432778D01*
X0109154Y0432931D01*
X0108935Y0433089D01*
X0108720Y0433252D01*
X0108510Y0433421D01*
X0108303Y0433595D01*
X0108101Y0433774D01*
X0107903Y0433957D01*
X0107710Y0434146D01*
X0107521Y0434339D01*
X0107338Y0434537D01*
X0107159Y0434739D01*
X0106985Y0434946D01*
X0106816Y0435156D01*
X0106653Y0435371D01*
X0106495Y0435590D01*
X0106342Y0435813D01*
X0106195Y0436039D01*
X0106053Y0436269D01*
X0105917Y0436502D01*
X0105787Y0436739D01*
X0105663Y0436978D01*
X0105544Y0437221D01*
X0105432Y0437466D01*
X0105325Y0437714D01*
X0105225Y0437965D01*
X0105131Y0438218D01*
X0105043Y0438474D01*
X0104962Y0438731D01*
X0104886Y0438990D01*
X0104818Y0439251D01*
X0104755Y0439514D01*
X0104699Y0439778D01*
X0104650Y0440043D01*
X0104607Y0440310D01*
X0104571Y0440577D01*
X0104541Y0440846D01*
X0104518Y0441115D01*
X0104501Y0441384D01*
X0104491Y0441654D01*
X0104488Y0441924D01*
D14*
X0076988Y0444424D03*
D15*
X0080738Y0444424D03*
X0060238Y0444424D03*
D16*
X0025488Y0410924D03*
X0017988Y0410924D03*
X0017988Y0368424D03*
X0025488Y0368424D03*
D17*
X0025488Y0372174D03*
X0025488Y0351674D03*
X0017988Y0351674D03*
X0017988Y0372174D03*
X0017988Y0394174D03*
X0017988Y0414674D03*
X0025488Y0414674D03*
X0025488Y0394174D03*
D18*
X0036197Y0392810D02*
X0053126Y0392810D01*
X0057851Y0392810D02*
X0074780Y0392810D01*
X0074780Y0405408D01*
X0074780Y0416432D02*
X0074780Y0435723D01*
X0063362Y0435723D01*
X0059425Y0407376D02*
X0059568Y0407474D01*
X0059709Y0407576D01*
X0059847Y0407680D01*
X0059983Y0407789D01*
X0060116Y0407900D01*
X0060246Y0408015D01*
X0060373Y0408133D01*
X0060497Y0408253D01*
X0060619Y0408377D01*
X0060737Y0408504D01*
X0060852Y0408634D01*
X0060964Y0408766D01*
X0061073Y0408901D01*
X0061178Y0409039D01*
X0061280Y0409180D01*
X0061379Y0409322D01*
X0061474Y0409467D01*
X0061565Y0409615D01*
X0061653Y0409764D01*
X0061737Y0409916D01*
X0061818Y0410070D01*
X0061894Y0410225D01*
X0061967Y0410383D01*
X0062036Y0410542D01*
X0062101Y0410703D01*
X0062162Y0410865D01*
X0062219Y0411029D01*
X0062272Y0411194D01*
X0062321Y0411360D01*
X0062366Y0411528D01*
X0062407Y0411697D01*
X0062443Y0411866D01*
X0062476Y0412036D01*
X0062504Y0412208D01*
X0062528Y0412379D01*
X0062548Y0412552D01*
X0062564Y0412724D01*
X0062576Y0412897D01*
X0062583Y0413071D01*
X0062586Y0413244D01*
X0062585Y0413418D01*
X0062579Y0413591D01*
X0062570Y0413764D01*
X0062556Y0413937D01*
X0062538Y0414109D01*
X0062515Y0414281D01*
X0062489Y0414453D01*
X0062458Y0414624D01*
X0062423Y0414793D01*
X0062384Y0414962D01*
X0062341Y0415130D01*
X0062294Y0415297D01*
X0062243Y0415463D01*
X0062187Y0415627D01*
X0062128Y0415790D01*
X0062065Y0415952D01*
X0061998Y0416112D01*
X0061926Y0416270D01*
X0061851Y0416426D01*
X0061773Y0416581D01*
X0061690Y0416734D01*
X0061604Y0416884D01*
X0061514Y0417032D01*
X0061421Y0417179D01*
X0061324Y0417322D01*
X0061223Y0417464D01*
X0061119Y0417603D01*
X0061012Y0417739D01*
X0060902Y0417873D01*
X0060788Y0418004D01*
X0060671Y0418132D01*
X0060551Y0418257D01*
X0060428Y0418379D01*
X0060302Y0418498D01*
X0060173Y0418614D01*
X0060041Y0418727D01*
X0059907Y0418837D01*
X0059770Y0418943D01*
X0059630Y0419046D01*
X0059488Y0419145D01*
X0059344Y0419241D01*
X0059197Y0419334D01*
X0059048Y0419423D01*
X0058897Y0419508D01*
X0058744Y0419589D01*
X0058589Y0419667D01*
X0058432Y0419741D01*
X0058273Y0419811D01*
X0058113Y0419877D01*
X0057951Y0419939D01*
X0057787Y0419997D01*
X0057623Y0420051D01*
X0057457Y0420102D01*
X0057289Y0420148D01*
X0057121Y0420190D01*
X0056952Y0420227D01*
X0056782Y0420261D01*
X0056611Y0420291D01*
X0056439Y0420316D01*
X0056267Y0420337D01*
X0056094Y0420354D01*
X0055921Y0420367D01*
X0055748Y0420375D01*
X0055575Y0420379D01*
X0055401Y0420379D01*
X0055228Y0420375D01*
X0055055Y0420367D01*
X0054882Y0420354D01*
X0054709Y0420337D01*
X0054537Y0420316D01*
X0054365Y0420291D01*
X0054194Y0420261D01*
X0054024Y0420227D01*
X0053855Y0420190D01*
X0053687Y0420148D01*
X0053519Y0420102D01*
X0053353Y0420051D01*
X0053189Y0419997D01*
X0053025Y0419939D01*
X0052863Y0419877D01*
X0052703Y0419811D01*
X0052544Y0419741D01*
X0052387Y0419667D01*
X0052232Y0419589D01*
X0052079Y0419508D01*
X0051928Y0419423D01*
X0051779Y0419334D01*
X0051632Y0419241D01*
X0051488Y0419145D01*
X0051346Y0419046D01*
X0051206Y0418943D01*
X0051069Y0418837D01*
X0050935Y0418727D01*
X0050803Y0418614D01*
X0050674Y0418498D01*
X0050548Y0418379D01*
X0050425Y0418257D01*
X0050305Y0418132D01*
X0050188Y0418004D01*
X0050074Y0417873D01*
X0049964Y0417739D01*
X0049857Y0417603D01*
X0049753Y0417464D01*
X0049652Y0417322D01*
X0049555Y0417179D01*
X0049462Y0417032D01*
X0049372Y0416884D01*
X0049286Y0416734D01*
X0049203Y0416581D01*
X0049125Y0416426D01*
X0049050Y0416270D01*
X0048978Y0416112D01*
X0048911Y0415952D01*
X0048848Y0415790D01*
X0048789Y0415627D01*
X0048733Y0415463D01*
X0048682Y0415297D01*
X0048635Y0415130D01*
X0048592Y0414962D01*
X0048553Y0414793D01*
X0048518Y0414624D01*
X0048487Y0414453D01*
X0048461Y0414281D01*
X0048438Y0414109D01*
X0048420Y0413937D01*
X0048406Y0413764D01*
X0048397Y0413591D01*
X0048391Y0413418D01*
X0048390Y0413244D01*
X0048393Y0413071D01*
X0048400Y0412897D01*
X0048412Y0412724D01*
X0048428Y0412552D01*
X0048448Y0412379D01*
X0048472Y0412208D01*
X0048500Y0412036D01*
X0048533Y0411866D01*
X0048569Y0411697D01*
X0048610Y0411528D01*
X0048655Y0411360D01*
X0048704Y0411194D01*
X0048757Y0411029D01*
X0048814Y0410865D01*
X0048875Y0410703D01*
X0048940Y0410542D01*
X0049009Y0410383D01*
X0049082Y0410225D01*
X0049158Y0410070D01*
X0049239Y0409916D01*
X0049323Y0409764D01*
X0049411Y0409615D01*
X0049502Y0409467D01*
X0049597Y0409322D01*
X0049696Y0409180D01*
X0049798Y0409039D01*
X0049903Y0408901D01*
X0050012Y0408766D01*
X0050124Y0408634D01*
X0050239Y0408504D01*
X0050357Y0408377D01*
X0050479Y0408253D01*
X0050603Y0408133D01*
X0050730Y0408015D01*
X0050860Y0407900D01*
X0050993Y0407789D01*
X0051129Y0407680D01*
X0051267Y0407576D01*
X0051408Y0407474D01*
X0051551Y0407376D01*
X0047614Y0435723D02*
X0036197Y0435723D01*
X0036197Y0419188D01*
X0036197Y0402652D02*
X0036197Y0392810D01*
X0036197Y0358951D02*
X0036197Y0342416D01*
X0036197Y0358951D02*
X0047614Y0358951D01*
X0051551Y0330604D02*
X0051408Y0330702D01*
X0051267Y0330804D01*
X0051129Y0330908D01*
X0050993Y0331017D01*
X0050860Y0331128D01*
X0050730Y0331243D01*
X0050603Y0331361D01*
X0050479Y0331481D01*
X0050357Y0331605D01*
X0050239Y0331732D01*
X0050124Y0331862D01*
X0050012Y0331994D01*
X0049903Y0332129D01*
X0049798Y0332267D01*
X0049696Y0332408D01*
X0049597Y0332550D01*
X0049502Y0332695D01*
X0049411Y0332843D01*
X0049323Y0332992D01*
X0049239Y0333144D01*
X0049158Y0333298D01*
X0049082Y0333453D01*
X0049009Y0333611D01*
X0048940Y0333770D01*
X0048875Y0333931D01*
X0048814Y0334093D01*
X0048757Y0334257D01*
X0048704Y0334422D01*
X0048655Y0334588D01*
X0048610Y0334756D01*
X0048569Y0334925D01*
X0048533Y0335094D01*
X0048500Y0335264D01*
X0048472Y0335436D01*
X0048448Y0335607D01*
X0048428Y0335780D01*
X0048412Y0335952D01*
X0048400Y0336125D01*
X0048393Y0336299D01*
X0048390Y0336472D01*
X0048391Y0336646D01*
X0048397Y0336819D01*
X0048406Y0336992D01*
X0048420Y0337165D01*
X0048438Y0337337D01*
X0048461Y0337509D01*
X0048487Y0337681D01*
X0048518Y0337852D01*
X0048553Y0338021D01*
X0048592Y0338190D01*
X0048635Y0338358D01*
X0048682Y0338525D01*
X0048733Y0338691D01*
X0048789Y0338855D01*
X0048848Y0339018D01*
X0048911Y0339180D01*
X0048978Y0339340D01*
X0049050Y0339498D01*
X0049125Y0339654D01*
X0049203Y0339809D01*
X0049286Y0339962D01*
X0049372Y0340112D01*
X0049462Y0340260D01*
X0049555Y0340407D01*
X0049652Y0340550D01*
X0049753Y0340692D01*
X0049857Y0340831D01*
X0049964Y0340967D01*
X0050074Y0341101D01*
X0050188Y0341232D01*
X0050305Y0341360D01*
X0050425Y0341485D01*
X0050548Y0341607D01*
X0050674Y0341726D01*
X0050803Y0341842D01*
X0050935Y0341955D01*
X0051069Y0342065D01*
X0051206Y0342171D01*
X0051346Y0342274D01*
X0051488Y0342373D01*
X0051632Y0342469D01*
X0051779Y0342562D01*
X0051928Y0342651D01*
X0052079Y0342736D01*
X0052232Y0342817D01*
X0052387Y0342895D01*
X0052544Y0342969D01*
X0052703Y0343039D01*
X0052863Y0343105D01*
X0053025Y0343167D01*
X0053189Y0343225D01*
X0053353Y0343279D01*
X0053519Y0343330D01*
X0053687Y0343376D01*
X0053855Y0343418D01*
X0054024Y0343455D01*
X0054194Y0343489D01*
X0054365Y0343519D01*
X0054537Y0343544D01*
X0054709Y0343565D01*
X0054882Y0343582D01*
X0055055Y0343595D01*
X0055228Y0343603D01*
X0055401Y0343607D01*
X0055575Y0343607D01*
X0055748Y0343603D01*
X0055921Y0343595D01*
X0056094Y0343582D01*
X0056267Y0343565D01*
X0056439Y0343544D01*
X0056611Y0343519D01*
X0056782Y0343489D01*
X0056952Y0343455D01*
X0057121Y0343418D01*
X0057289Y0343376D01*
X0057457Y0343330D01*
X0057623Y0343279D01*
X0057787Y0343225D01*
X0057951Y0343167D01*
X0058113Y0343105D01*
X0058273Y0343039D01*
X0058432Y0342969D01*
X0058589Y0342895D01*
X0058744Y0342817D01*
X0058897Y0342736D01*
X0059048Y0342651D01*
X0059197Y0342562D01*
X0059344Y0342469D01*
X0059488Y0342373D01*
X0059630Y0342274D01*
X0059770Y0342171D01*
X0059907Y0342065D01*
X0060041Y0341955D01*
X0060173Y0341842D01*
X0060302Y0341726D01*
X0060428Y0341607D01*
X0060551Y0341485D01*
X0060671Y0341360D01*
X0060788Y0341232D01*
X0060902Y0341101D01*
X0061012Y0340967D01*
X0061119Y0340831D01*
X0061223Y0340692D01*
X0061324Y0340550D01*
X0061421Y0340407D01*
X0061514Y0340260D01*
X0061604Y0340112D01*
X0061690Y0339962D01*
X0061773Y0339809D01*
X0061851Y0339654D01*
X0061926Y0339498D01*
X0061998Y0339340D01*
X0062065Y0339180D01*
X0062128Y0339018D01*
X0062187Y0338855D01*
X0062243Y0338691D01*
X0062294Y0338525D01*
X0062341Y0338358D01*
X0062384Y0338190D01*
X0062423Y0338021D01*
X0062458Y0337852D01*
X0062489Y0337681D01*
X0062515Y0337509D01*
X0062538Y0337337D01*
X0062556Y0337165D01*
X0062570Y0336992D01*
X0062579Y0336819D01*
X0062585Y0336646D01*
X0062586Y0336472D01*
X0062583Y0336299D01*
X0062576Y0336125D01*
X0062564Y0335952D01*
X0062548Y0335780D01*
X0062528Y0335607D01*
X0062504Y0335436D01*
X0062476Y0335264D01*
X0062443Y0335094D01*
X0062407Y0334925D01*
X0062366Y0334756D01*
X0062321Y0334588D01*
X0062272Y0334422D01*
X0062219Y0334257D01*
X0062162Y0334093D01*
X0062101Y0333931D01*
X0062036Y0333770D01*
X0061967Y0333611D01*
X0061894Y0333453D01*
X0061818Y0333298D01*
X0061737Y0333144D01*
X0061653Y0332992D01*
X0061565Y0332843D01*
X0061474Y0332695D01*
X0061379Y0332550D01*
X0061280Y0332408D01*
X0061178Y0332267D01*
X0061073Y0332129D01*
X0060964Y0331994D01*
X0060852Y0331862D01*
X0060737Y0331732D01*
X0060619Y0331605D01*
X0060497Y0331481D01*
X0060373Y0331361D01*
X0060246Y0331243D01*
X0060116Y0331128D01*
X0059983Y0331017D01*
X0059847Y0330908D01*
X0059709Y0330804D01*
X0059568Y0330702D01*
X0059425Y0330604D01*
X0057851Y0316038D02*
X0074780Y0316038D01*
X0074780Y0328636D01*
X0074780Y0339660D02*
X0074780Y0358951D01*
X0063362Y0358951D01*
X0053126Y0316038D02*
X0036197Y0316038D01*
X0036197Y0325880D01*
X0036197Y0282180D02*
X0036197Y0265644D01*
X0036197Y0282180D02*
X0047614Y0282180D01*
X0051551Y0253833D02*
X0051408Y0253931D01*
X0051267Y0254033D01*
X0051129Y0254137D01*
X0050993Y0254246D01*
X0050860Y0254357D01*
X0050730Y0254472D01*
X0050603Y0254590D01*
X0050479Y0254710D01*
X0050357Y0254834D01*
X0050239Y0254961D01*
X0050124Y0255091D01*
X0050012Y0255223D01*
X0049903Y0255358D01*
X0049798Y0255496D01*
X0049696Y0255637D01*
X0049597Y0255779D01*
X0049502Y0255924D01*
X0049411Y0256072D01*
X0049323Y0256221D01*
X0049239Y0256373D01*
X0049158Y0256527D01*
X0049082Y0256682D01*
X0049009Y0256840D01*
X0048940Y0256999D01*
X0048875Y0257160D01*
X0048814Y0257322D01*
X0048757Y0257486D01*
X0048704Y0257651D01*
X0048655Y0257817D01*
X0048610Y0257985D01*
X0048569Y0258154D01*
X0048533Y0258323D01*
X0048500Y0258493D01*
X0048472Y0258665D01*
X0048448Y0258836D01*
X0048428Y0259009D01*
X0048412Y0259181D01*
X0048400Y0259354D01*
X0048393Y0259528D01*
X0048390Y0259701D01*
X0048391Y0259875D01*
X0048397Y0260048D01*
X0048406Y0260221D01*
X0048420Y0260394D01*
X0048438Y0260566D01*
X0048461Y0260738D01*
X0048487Y0260910D01*
X0048518Y0261081D01*
X0048553Y0261250D01*
X0048592Y0261419D01*
X0048635Y0261587D01*
X0048682Y0261754D01*
X0048733Y0261920D01*
X0048789Y0262084D01*
X0048848Y0262247D01*
X0048911Y0262409D01*
X0048978Y0262569D01*
X0049050Y0262727D01*
X0049125Y0262883D01*
X0049203Y0263038D01*
X0049286Y0263191D01*
X0049372Y0263341D01*
X0049462Y0263489D01*
X0049555Y0263636D01*
X0049652Y0263779D01*
X0049753Y0263921D01*
X0049857Y0264060D01*
X0049964Y0264196D01*
X0050074Y0264330D01*
X0050188Y0264461D01*
X0050305Y0264589D01*
X0050425Y0264714D01*
X0050548Y0264836D01*
X0050674Y0264955D01*
X0050803Y0265071D01*
X0050935Y0265184D01*
X0051069Y0265294D01*
X0051206Y0265400D01*
X0051346Y0265503D01*
X0051488Y0265602D01*
X0051632Y0265698D01*
X0051779Y0265791D01*
X0051928Y0265880D01*
X0052079Y0265965D01*
X0052232Y0266046D01*
X0052387Y0266124D01*
X0052544Y0266198D01*
X0052703Y0266268D01*
X0052863Y0266334D01*
X0053025Y0266396D01*
X0053189Y0266454D01*
X0053353Y0266508D01*
X0053519Y0266559D01*
X0053687Y0266605D01*
X0053855Y0266647D01*
X0054024Y0266684D01*
X0054194Y0266718D01*
X0054365Y0266748D01*
X0054537Y0266773D01*
X0054709Y0266794D01*
X0054882Y0266811D01*
X0055055Y0266824D01*
X0055228Y0266832D01*
X0055401Y0266836D01*
X0055575Y0266836D01*
X0055748Y0266832D01*
X0055921Y0266824D01*
X0056094Y0266811D01*
X0056267Y0266794D01*
X0056439Y0266773D01*
X0056611Y0266748D01*
X0056782Y0266718D01*
X0056952Y0266684D01*
X0057121Y0266647D01*
X0057289Y0266605D01*
X0057457Y0266559D01*
X0057623Y0266508D01*
X0057787Y0266454D01*
X0057951Y0266396D01*
X0058113Y0266334D01*
X0058273Y0266268D01*
X0058432Y0266198D01*
X0058589Y0266124D01*
X0058744Y0266046D01*
X0058897Y0265965D01*
X0059048Y0265880D01*
X0059197Y0265791D01*
X0059344Y0265698D01*
X0059488Y0265602D01*
X0059630Y0265503D01*
X0059770Y0265400D01*
X0059907Y0265294D01*
X0060041Y0265184D01*
X0060173Y0265071D01*
X0060302Y0264955D01*
X0060428Y0264836D01*
X0060551Y0264714D01*
X0060671Y0264589D01*
X0060788Y0264461D01*
X0060902Y0264330D01*
X0061012Y0264196D01*
X0061119Y0264060D01*
X0061223Y0263921D01*
X0061324Y0263779D01*
X0061421Y0263636D01*
X0061514Y0263489D01*
X0061604Y0263341D01*
X0061690Y0263191D01*
X0061773Y0263038D01*
X0061851Y0262883D01*
X0061926Y0262727D01*
X0061998Y0262569D01*
X0062065Y0262409D01*
X0062128Y0262247D01*
X0062187Y0262084D01*
X0062243Y0261920D01*
X0062294Y0261754D01*
X0062341Y0261587D01*
X0062384Y0261419D01*
X0062423Y0261250D01*
X0062458Y0261081D01*
X0062489Y0260910D01*
X0062515Y0260738D01*
X0062538Y0260566D01*
X0062556Y0260394D01*
X0062570Y0260221D01*
X0062579Y0260048D01*
X0062585Y0259875D01*
X0062586Y0259701D01*
X0062583Y0259528D01*
X0062576Y0259354D01*
X0062564Y0259181D01*
X0062548Y0259009D01*
X0062528Y0258836D01*
X0062504Y0258665D01*
X0062476Y0258493D01*
X0062443Y0258323D01*
X0062407Y0258154D01*
X0062366Y0257985D01*
X0062321Y0257817D01*
X0062272Y0257651D01*
X0062219Y0257486D01*
X0062162Y0257322D01*
X0062101Y0257160D01*
X0062036Y0256999D01*
X0061967Y0256840D01*
X0061894Y0256682D01*
X0061818Y0256527D01*
X0061737Y0256373D01*
X0061653Y0256221D01*
X0061565Y0256072D01*
X0061474Y0255924D01*
X0061379Y0255779D01*
X0061280Y0255637D01*
X0061178Y0255496D01*
X0061073Y0255358D01*
X0060964Y0255223D01*
X0060852Y0255091D01*
X0060737Y0254961D01*
X0060619Y0254834D01*
X0060497Y0254710D01*
X0060373Y0254590D01*
X0060246Y0254472D01*
X0060116Y0254357D01*
X0059983Y0254246D01*
X0059847Y0254137D01*
X0059709Y0254033D01*
X0059568Y0253931D01*
X0059425Y0253833D01*
X0057851Y0239266D02*
X0074780Y0239266D01*
X0074780Y0251865D01*
X0074780Y0262888D02*
X0074780Y0282180D01*
X0063362Y0282180D01*
X0053126Y0239266D02*
X0036197Y0239266D01*
X0036197Y0249109D01*
X0036197Y0205408D02*
X0036197Y0188873D01*
X0036197Y0172337D02*
X0036197Y0162495D01*
X0053126Y0162495D01*
X0057851Y0162495D02*
X0074780Y0162495D01*
X0074780Y0175093D01*
X0074780Y0186117D02*
X0074780Y0205408D01*
X0063362Y0205408D01*
X0059425Y0177061D02*
X0059568Y0177159D01*
X0059709Y0177261D01*
X0059847Y0177365D01*
X0059983Y0177474D01*
X0060116Y0177585D01*
X0060246Y0177700D01*
X0060373Y0177818D01*
X0060497Y0177938D01*
X0060619Y0178062D01*
X0060737Y0178189D01*
X0060852Y0178319D01*
X0060964Y0178451D01*
X0061073Y0178586D01*
X0061178Y0178724D01*
X0061280Y0178865D01*
X0061379Y0179007D01*
X0061474Y0179152D01*
X0061565Y0179300D01*
X0061653Y0179449D01*
X0061737Y0179601D01*
X0061818Y0179755D01*
X0061894Y0179910D01*
X0061967Y0180068D01*
X0062036Y0180227D01*
X0062101Y0180388D01*
X0062162Y0180550D01*
X0062219Y0180714D01*
X0062272Y0180879D01*
X0062321Y0181045D01*
X0062366Y0181213D01*
X0062407Y0181382D01*
X0062443Y0181551D01*
X0062476Y0181721D01*
X0062504Y0181893D01*
X0062528Y0182064D01*
X0062548Y0182237D01*
X0062564Y0182409D01*
X0062576Y0182582D01*
X0062583Y0182756D01*
X0062586Y0182929D01*
X0062585Y0183103D01*
X0062579Y0183276D01*
X0062570Y0183449D01*
X0062556Y0183622D01*
X0062538Y0183794D01*
X0062515Y0183966D01*
X0062489Y0184138D01*
X0062458Y0184309D01*
X0062423Y0184478D01*
X0062384Y0184647D01*
X0062341Y0184815D01*
X0062294Y0184982D01*
X0062243Y0185148D01*
X0062187Y0185312D01*
X0062128Y0185475D01*
X0062065Y0185637D01*
X0061998Y0185797D01*
X0061926Y0185955D01*
X0061851Y0186111D01*
X0061773Y0186266D01*
X0061690Y0186419D01*
X0061604Y0186569D01*
X0061514Y0186717D01*
X0061421Y0186864D01*
X0061324Y0187007D01*
X0061223Y0187149D01*
X0061119Y0187288D01*
X0061012Y0187424D01*
X0060902Y0187558D01*
X0060788Y0187689D01*
X0060671Y0187817D01*
X0060551Y0187942D01*
X0060428Y0188064D01*
X0060302Y0188183D01*
X0060173Y0188299D01*
X0060041Y0188412D01*
X0059907Y0188522D01*
X0059770Y0188628D01*
X0059630Y0188731D01*
X0059488Y0188830D01*
X0059344Y0188926D01*
X0059197Y0189019D01*
X0059048Y0189108D01*
X0058897Y0189193D01*
X0058744Y0189274D01*
X0058589Y0189352D01*
X0058432Y0189426D01*
X0058273Y0189496D01*
X0058113Y0189562D01*
X0057951Y0189624D01*
X0057787Y0189682D01*
X0057623Y0189736D01*
X0057457Y0189787D01*
X0057289Y0189833D01*
X0057121Y0189875D01*
X0056952Y0189912D01*
X0056782Y0189946D01*
X0056611Y0189976D01*
X0056439Y0190001D01*
X0056267Y0190022D01*
X0056094Y0190039D01*
X0055921Y0190052D01*
X0055748Y0190060D01*
X0055575Y0190064D01*
X0055401Y0190064D01*
X0055228Y0190060D01*
X0055055Y0190052D01*
X0054882Y0190039D01*
X0054709Y0190022D01*
X0054537Y0190001D01*
X0054365Y0189976D01*
X0054194Y0189946D01*
X0054024Y0189912D01*
X0053855Y0189875D01*
X0053687Y0189833D01*
X0053519Y0189787D01*
X0053353Y0189736D01*
X0053189Y0189682D01*
X0053025Y0189624D01*
X0052863Y0189562D01*
X0052703Y0189496D01*
X0052544Y0189426D01*
X0052387Y0189352D01*
X0052232Y0189274D01*
X0052079Y0189193D01*
X0051928Y0189108D01*
X0051779Y0189019D01*
X0051632Y0188926D01*
X0051488Y0188830D01*
X0051346Y0188731D01*
X0051206Y0188628D01*
X0051069Y0188522D01*
X0050935Y0188412D01*
X0050803Y0188299D01*
X0050674Y0188183D01*
X0050548Y0188064D01*
X0050425Y0187942D01*
X0050305Y0187817D01*
X0050188Y0187689D01*
X0050074Y0187558D01*
X0049964Y0187424D01*
X0049857Y0187288D01*
X0049753Y0187149D01*
X0049652Y0187007D01*
X0049555Y0186864D01*
X0049462Y0186717D01*
X0049372Y0186569D01*
X0049286Y0186419D01*
X0049203Y0186266D01*
X0049125Y0186111D01*
X0049050Y0185955D01*
X0048978Y0185797D01*
X0048911Y0185637D01*
X0048848Y0185475D01*
X0048789Y0185312D01*
X0048733Y0185148D01*
X0048682Y0184982D01*
X0048635Y0184815D01*
X0048592Y0184647D01*
X0048553Y0184478D01*
X0048518Y0184309D01*
X0048487Y0184138D01*
X0048461Y0183966D01*
X0048438Y0183794D01*
X0048420Y0183622D01*
X0048406Y0183449D01*
X0048397Y0183276D01*
X0048391Y0183103D01*
X0048390Y0182929D01*
X0048393Y0182756D01*
X0048400Y0182582D01*
X0048412Y0182409D01*
X0048428Y0182237D01*
X0048448Y0182064D01*
X0048472Y0181893D01*
X0048500Y0181721D01*
X0048533Y0181551D01*
X0048569Y0181382D01*
X0048610Y0181213D01*
X0048655Y0181045D01*
X0048704Y0180879D01*
X0048757Y0180714D01*
X0048814Y0180550D01*
X0048875Y0180388D01*
X0048940Y0180227D01*
X0049009Y0180068D01*
X0049082Y0179910D01*
X0049158Y0179755D01*
X0049239Y0179601D01*
X0049323Y0179449D01*
X0049411Y0179300D01*
X0049502Y0179152D01*
X0049597Y0179007D01*
X0049696Y0178865D01*
X0049798Y0178724D01*
X0049903Y0178586D01*
X0050012Y0178451D01*
X0050124Y0178319D01*
X0050239Y0178189D01*
X0050357Y0178062D01*
X0050479Y0177938D01*
X0050603Y0177818D01*
X0050730Y0177700D01*
X0050860Y0177585D01*
X0050993Y0177474D01*
X0051129Y0177365D01*
X0051267Y0177261D01*
X0051408Y0177159D01*
X0051551Y0177061D01*
X0047614Y0205408D02*
X0036197Y0205408D01*
X0036197Y0128636D02*
X0036197Y0112101D01*
X0036197Y0128636D02*
X0047614Y0128636D01*
X0051551Y0100289D02*
X0051408Y0100387D01*
X0051267Y0100489D01*
X0051129Y0100593D01*
X0050993Y0100702D01*
X0050860Y0100813D01*
X0050730Y0100928D01*
X0050603Y0101046D01*
X0050479Y0101166D01*
X0050357Y0101290D01*
X0050239Y0101417D01*
X0050124Y0101547D01*
X0050012Y0101679D01*
X0049903Y0101814D01*
X0049798Y0101952D01*
X0049696Y0102093D01*
X0049597Y0102235D01*
X0049502Y0102380D01*
X0049411Y0102528D01*
X0049323Y0102677D01*
X0049239Y0102829D01*
X0049158Y0102983D01*
X0049082Y0103138D01*
X0049009Y0103296D01*
X0048940Y0103455D01*
X0048875Y0103616D01*
X0048814Y0103778D01*
X0048757Y0103942D01*
X0048704Y0104107D01*
X0048655Y0104273D01*
X0048610Y0104441D01*
X0048569Y0104610D01*
X0048533Y0104779D01*
X0048500Y0104949D01*
X0048472Y0105121D01*
X0048448Y0105292D01*
X0048428Y0105465D01*
X0048412Y0105637D01*
X0048400Y0105810D01*
X0048393Y0105984D01*
X0048390Y0106157D01*
X0048391Y0106331D01*
X0048397Y0106504D01*
X0048406Y0106677D01*
X0048420Y0106850D01*
X0048438Y0107022D01*
X0048461Y0107194D01*
X0048487Y0107366D01*
X0048518Y0107537D01*
X0048553Y0107706D01*
X0048592Y0107875D01*
X0048635Y0108043D01*
X0048682Y0108210D01*
X0048733Y0108376D01*
X0048789Y0108540D01*
X0048848Y0108703D01*
X0048911Y0108865D01*
X0048978Y0109025D01*
X0049050Y0109183D01*
X0049125Y0109339D01*
X0049203Y0109494D01*
X0049286Y0109647D01*
X0049372Y0109797D01*
X0049462Y0109945D01*
X0049555Y0110092D01*
X0049652Y0110235D01*
X0049753Y0110377D01*
X0049857Y0110516D01*
X0049964Y0110652D01*
X0050074Y0110786D01*
X0050188Y0110917D01*
X0050305Y0111045D01*
X0050425Y0111170D01*
X0050548Y0111292D01*
X0050674Y0111411D01*
X0050803Y0111527D01*
X0050935Y0111640D01*
X0051069Y0111750D01*
X0051206Y0111856D01*
X0051346Y0111959D01*
X0051488Y0112058D01*
X0051632Y0112154D01*
X0051779Y0112247D01*
X0051928Y0112336D01*
X0052079Y0112421D01*
X0052232Y0112502D01*
X0052387Y0112580D01*
X0052544Y0112654D01*
X0052703Y0112724D01*
X0052863Y0112790D01*
X0053025Y0112852D01*
X0053189Y0112910D01*
X0053353Y0112964D01*
X0053519Y0113015D01*
X0053687Y0113061D01*
X0053855Y0113103D01*
X0054024Y0113140D01*
X0054194Y0113174D01*
X0054365Y0113204D01*
X0054537Y0113229D01*
X0054709Y0113250D01*
X0054882Y0113267D01*
X0055055Y0113280D01*
X0055228Y0113288D01*
X0055401Y0113292D01*
X0055575Y0113292D01*
X0055748Y0113288D01*
X0055921Y0113280D01*
X0056094Y0113267D01*
X0056267Y0113250D01*
X0056439Y0113229D01*
X0056611Y0113204D01*
X0056782Y0113174D01*
X0056952Y0113140D01*
X0057121Y0113103D01*
X0057289Y0113061D01*
X0057457Y0113015D01*
X0057623Y0112964D01*
X0057787Y0112910D01*
X0057951Y0112852D01*
X0058113Y0112790D01*
X0058273Y0112724D01*
X0058432Y0112654D01*
X0058589Y0112580D01*
X0058744Y0112502D01*
X0058897Y0112421D01*
X0059048Y0112336D01*
X0059197Y0112247D01*
X0059344Y0112154D01*
X0059488Y0112058D01*
X0059630Y0111959D01*
X0059770Y0111856D01*
X0059907Y0111750D01*
X0060041Y0111640D01*
X0060173Y0111527D01*
X0060302Y0111411D01*
X0060428Y0111292D01*
X0060551Y0111170D01*
X0060671Y0111045D01*
X0060788Y0110917D01*
X0060902Y0110786D01*
X0061012Y0110652D01*
X0061119Y0110516D01*
X0061223Y0110377D01*
X0061324Y0110235D01*
X0061421Y0110092D01*
X0061514Y0109945D01*
X0061604Y0109797D01*
X0061690Y0109647D01*
X0061773Y0109494D01*
X0061851Y0109339D01*
X0061926Y0109183D01*
X0061998Y0109025D01*
X0062065Y0108865D01*
X0062128Y0108703D01*
X0062187Y0108540D01*
X0062243Y0108376D01*
X0062294Y0108210D01*
X0062341Y0108043D01*
X0062384Y0107875D01*
X0062423Y0107706D01*
X0062458Y0107537D01*
X0062489Y0107366D01*
X0062515Y0107194D01*
X0062538Y0107022D01*
X0062556Y0106850D01*
X0062570Y0106677D01*
X0062579Y0106504D01*
X0062585Y0106331D01*
X0062586Y0106157D01*
X0062583Y0105984D01*
X0062576Y0105810D01*
X0062564Y0105637D01*
X0062548Y0105465D01*
X0062528Y0105292D01*
X0062504Y0105121D01*
X0062476Y0104949D01*
X0062443Y0104779D01*
X0062407Y0104610D01*
X0062366Y0104441D01*
X0062321Y0104273D01*
X0062272Y0104107D01*
X0062219Y0103942D01*
X0062162Y0103778D01*
X0062101Y0103616D01*
X0062036Y0103455D01*
X0061967Y0103296D01*
X0061894Y0103138D01*
X0061818Y0102983D01*
X0061737Y0102829D01*
X0061653Y0102677D01*
X0061565Y0102528D01*
X0061474Y0102380D01*
X0061379Y0102235D01*
X0061280Y0102093D01*
X0061178Y0101952D01*
X0061073Y0101814D01*
X0060964Y0101679D01*
X0060852Y0101547D01*
X0060737Y0101417D01*
X0060619Y0101290D01*
X0060497Y0101166D01*
X0060373Y0101046D01*
X0060246Y0100928D01*
X0060116Y0100813D01*
X0059983Y0100702D01*
X0059847Y0100593D01*
X0059709Y0100489D01*
X0059568Y0100387D01*
X0059425Y0100289D01*
X0057851Y0085723D02*
X0074780Y0085723D01*
X0074780Y0098321D01*
X0074780Y0109345D02*
X0074780Y0128636D01*
X0063362Y0128636D01*
X0053126Y0085723D02*
X0036197Y0085723D01*
X0036197Y0095566D01*
X0036197Y0051865D02*
X0036197Y0035329D01*
X0036197Y0051865D02*
X0047614Y0051865D01*
X0051551Y0023518D02*
X0051408Y0023616D01*
X0051267Y0023718D01*
X0051129Y0023822D01*
X0050993Y0023931D01*
X0050860Y0024042D01*
X0050730Y0024157D01*
X0050603Y0024275D01*
X0050479Y0024395D01*
X0050357Y0024519D01*
X0050239Y0024646D01*
X0050124Y0024776D01*
X0050012Y0024908D01*
X0049903Y0025043D01*
X0049798Y0025181D01*
X0049696Y0025322D01*
X0049597Y0025464D01*
X0049502Y0025609D01*
X0049411Y0025757D01*
X0049323Y0025906D01*
X0049239Y0026058D01*
X0049158Y0026212D01*
X0049082Y0026367D01*
X0049009Y0026525D01*
X0048940Y0026684D01*
X0048875Y0026845D01*
X0048814Y0027007D01*
X0048757Y0027171D01*
X0048704Y0027336D01*
X0048655Y0027502D01*
X0048610Y0027670D01*
X0048569Y0027839D01*
X0048533Y0028008D01*
X0048500Y0028178D01*
X0048472Y0028350D01*
X0048448Y0028521D01*
X0048428Y0028694D01*
X0048412Y0028866D01*
X0048400Y0029039D01*
X0048393Y0029213D01*
X0048390Y0029386D01*
X0048391Y0029560D01*
X0048397Y0029733D01*
X0048406Y0029906D01*
X0048420Y0030079D01*
X0048438Y0030251D01*
X0048461Y0030423D01*
X0048487Y0030595D01*
X0048518Y0030766D01*
X0048553Y0030935D01*
X0048592Y0031104D01*
X0048635Y0031272D01*
X0048682Y0031439D01*
X0048733Y0031605D01*
X0048789Y0031769D01*
X0048848Y0031932D01*
X0048911Y0032094D01*
X0048978Y0032254D01*
X0049050Y0032412D01*
X0049125Y0032568D01*
X0049203Y0032723D01*
X0049286Y0032876D01*
X0049372Y0033026D01*
X0049462Y0033174D01*
X0049555Y0033321D01*
X0049652Y0033464D01*
X0049753Y0033606D01*
X0049857Y0033745D01*
X0049964Y0033881D01*
X0050074Y0034015D01*
X0050188Y0034146D01*
X0050305Y0034274D01*
X0050425Y0034399D01*
X0050548Y0034521D01*
X0050674Y0034640D01*
X0050803Y0034756D01*
X0050935Y0034869D01*
X0051069Y0034979D01*
X0051206Y0035085D01*
X0051346Y0035188D01*
X0051488Y0035287D01*
X0051632Y0035383D01*
X0051779Y0035476D01*
X0051928Y0035565D01*
X0052079Y0035650D01*
X0052232Y0035731D01*
X0052387Y0035809D01*
X0052544Y0035883D01*
X0052703Y0035953D01*
X0052863Y0036019D01*
X0053025Y0036081D01*
X0053189Y0036139D01*
X0053353Y0036193D01*
X0053519Y0036244D01*
X0053687Y0036290D01*
X0053855Y0036332D01*
X0054024Y0036369D01*
X0054194Y0036403D01*
X0054365Y0036433D01*
X0054537Y0036458D01*
X0054709Y0036479D01*
X0054882Y0036496D01*
X0055055Y0036509D01*
X0055228Y0036517D01*
X0055401Y0036521D01*
X0055575Y0036521D01*
X0055748Y0036517D01*
X0055921Y0036509D01*
X0056094Y0036496D01*
X0056267Y0036479D01*
X0056439Y0036458D01*
X0056611Y0036433D01*
X0056782Y0036403D01*
X0056952Y0036369D01*
X0057121Y0036332D01*
X0057289Y0036290D01*
X0057457Y0036244D01*
X0057623Y0036193D01*
X0057787Y0036139D01*
X0057951Y0036081D01*
X0058113Y0036019D01*
X0058273Y0035953D01*
X0058432Y0035883D01*
X0058589Y0035809D01*
X0058744Y0035731D01*
X0058897Y0035650D01*
X0059048Y0035565D01*
X0059197Y0035476D01*
X0059344Y0035383D01*
X0059488Y0035287D01*
X0059630Y0035188D01*
X0059770Y0035085D01*
X0059907Y0034979D01*
X0060041Y0034869D01*
X0060173Y0034756D01*
X0060302Y0034640D01*
X0060428Y0034521D01*
X0060551Y0034399D01*
X0060671Y0034274D01*
X0060788Y0034146D01*
X0060902Y0034015D01*
X0061012Y0033881D01*
X0061119Y0033745D01*
X0061223Y0033606D01*
X0061324Y0033464D01*
X0061421Y0033321D01*
X0061514Y0033174D01*
X0061604Y0033026D01*
X0061690Y0032876D01*
X0061773Y0032723D01*
X0061851Y0032568D01*
X0061926Y0032412D01*
X0061998Y0032254D01*
X0062065Y0032094D01*
X0062128Y0031932D01*
X0062187Y0031769D01*
X0062243Y0031605D01*
X0062294Y0031439D01*
X0062341Y0031272D01*
X0062384Y0031104D01*
X0062423Y0030935D01*
X0062458Y0030766D01*
X0062489Y0030595D01*
X0062515Y0030423D01*
X0062538Y0030251D01*
X0062556Y0030079D01*
X0062570Y0029906D01*
X0062579Y0029733D01*
X0062585Y0029560D01*
X0062586Y0029386D01*
X0062583Y0029213D01*
X0062576Y0029039D01*
X0062564Y0028866D01*
X0062548Y0028694D01*
X0062528Y0028521D01*
X0062504Y0028350D01*
X0062476Y0028178D01*
X0062443Y0028008D01*
X0062407Y0027839D01*
X0062366Y0027670D01*
X0062321Y0027502D01*
X0062272Y0027336D01*
X0062219Y0027171D01*
X0062162Y0027007D01*
X0062101Y0026845D01*
X0062036Y0026684D01*
X0061967Y0026525D01*
X0061894Y0026367D01*
X0061818Y0026212D01*
X0061737Y0026058D01*
X0061653Y0025906D01*
X0061565Y0025757D01*
X0061474Y0025609D01*
X0061379Y0025464D01*
X0061280Y0025322D01*
X0061178Y0025181D01*
X0061073Y0025043D01*
X0060964Y0024908D01*
X0060852Y0024776D01*
X0060737Y0024646D01*
X0060619Y0024519D01*
X0060497Y0024395D01*
X0060373Y0024275D01*
X0060246Y0024157D01*
X0060116Y0024042D01*
X0059983Y0023931D01*
X0059847Y0023822D01*
X0059709Y0023718D01*
X0059568Y0023616D01*
X0059425Y0023518D01*
X0057851Y0008951D02*
X0074780Y0008951D01*
X0074780Y0021550D01*
X0074780Y0032573D02*
X0074780Y0051865D01*
X0063362Y0051865D01*
X0053126Y0008951D02*
X0036197Y0008951D01*
X0036197Y0018794D01*
D19*
X0027988Y0021924D02*
X0027988Y0036924D01*
X0014189Y0069424D02*
X0014191Y0069582D01*
X0014197Y0069740D01*
X0014207Y0069898D01*
X0014221Y0070056D01*
X0014239Y0070213D01*
X0014260Y0070370D01*
X0014286Y0070526D01*
X0014316Y0070682D01*
X0014349Y0070837D01*
X0014387Y0070990D01*
X0014428Y0071143D01*
X0014473Y0071295D01*
X0014522Y0071446D01*
X0014575Y0071595D01*
X0014631Y0071743D01*
X0014691Y0071889D01*
X0014755Y0072034D01*
X0014823Y0072177D01*
X0014894Y0072319D01*
X0014968Y0072459D01*
X0015046Y0072596D01*
X0015128Y0072732D01*
X0015212Y0072866D01*
X0015301Y0072997D01*
X0015392Y0073126D01*
X0015487Y0073253D01*
X0015584Y0073378D01*
X0015685Y0073500D01*
X0015789Y0073619D01*
X0015896Y0073736D01*
X0016006Y0073850D01*
X0016119Y0073961D01*
X0016234Y0074070D01*
X0016352Y0074175D01*
X0016473Y0074277D01*
X0016596Y0074377D01*
X0016722Y0074473D01*
X0016850Y0074566D01*
X0016980Y0074656D01*
X0017113Y0074742D01*
X0017248Y0074826D01*
X0017384Y0074905D01*
X0017523Y0074982D01*
X0017664Y0075054D01*
X0017806Y0075124D01*
X0017950Y0075189D01*
X0018096Y0075251D01*
X0018243Y0075309D01*
X0018392Y0075364D01*
X0018542Y0075415D01*
X0018693Y0075462D01*
X0018845Y0075505D01*
X0018998Y0075544D01*
X0019153Y0075580D01*
X0019308Y0075611D01*
X0019464Y0075639D01*
X0019620Y0075663D01*
X0019777Y0075683D01*
X0019935Y0075699D01*
X0020092Y0075711D01*
X0020251Y0075719D01*
X0020409Y0075723D01*
X0020567Y0075723D01*
X0020725Y0075719D01*
X0020884Y0075711D01*
X0021041Y0075699D01*
X0021199Y0075683D01*
X0021356Y0075663D01*
X0021512Y0075639D01*
X0021668Y0075611D01*
X0021823Y0075580D01*
X0021978Y0075544D01*
X0022131Y0075505D01*
X0022283Y0075462D01*
X0022434Y0075415D01*
X0022584Y0075364D01*
X0022733Y0075309D01*
X0022880Y0075251D01*
X0023026Y0075189D01*
X0023170Y0075124D01*
X0023312Y0075054D01*
X0023453Y0074982D01*
X0023592Y0074905D01*
X0023728Y0074826D01*
X0023863Y0074742D01*
X0023996Y0074656D01*
X0024126Y0074566D01*
X0024254Y0074473D01*
X0024380Y0074377D01*
X0024503Y0074277D01*
X0024624Y0074175D01*
X0024742Y0074070D01*
X0024857Y0073961D01*
X0024970Y0073850D01*
X0025080Y0073736D01*
X0025187Y0073619D01*
X0025291Y0073500D01*
X0025392Y0073378D01*
X0025489Y0073253D01*
X0025584Y0073126D01*
X0025675Y0072997D01*
X0025764Y0072866D01*
X0025848Y0072732D01*
X0025930Y0072596D01*
X0026008Y0072459D01*
X0026082Y0072319D01*
X0026153Y0072177D01*
X0026221Y0072034D01*
X0026285Y0071889D01*
X0026345Y0071743D01*
X0026401Y0071595D01*
X0026454Y0071446D01*
X0026503Y0071295D01*
X0026548Y0071143D01*
X0026589Y0070990D01*
X0026627Y0070837D01*
X0026660Y0070682D01*
X0026690Y0070526D01*
X0026716Y0070370D01*
X0026737Y0070213D01*
X0026755Y0070056D01*
X0026769Y0069898D01*
X0026779Y0069740D01*
X0026785Y0069582D01*
X0026787Y0069424D01*
X0026785Y0069266D01*
X0026779Y0069108D01*
X0026769Y0068950D01*
X0026755Y0068792D01*
X0026737Y0068635D01*
X0026716Y0068478D01*
X0026690Y0068322D01*
X0026660Y0068166D01*
X0026627Y0068011D01*
X0026589Y0067858D01*
X0026548Y0067705D01*
X0026503Y0067553D01*
X0026454Y0067402D01*
X0026401Y0067253D01*
X0026345Y0067105D01*
X0026285Y0066959D01*
X0026221Y0066814D01*
X0026153Y0066671D01*
X0026082Y0066529D01*
X0026008Y0066389D01*
X0025930Y0066252D01*
X0025848Y0066116D01*
X0025764Y0065982D01*
X0025675Y0065851D01*
X0025584Y0065722D01*
X0025489Y0065595D01*
X0025392Y0065470D01*
X0025291Y0065348D01*
X0025187Y0065229D01*
X0025080Y0065112D01*
X0024970Y0064998D01*
X0024857Y0064887D01*
X0024742Y0064778D01*
X0024624Y0064673D01*
X0024503Y0064571D01*
X0024380Y0064471D01*
X0024254Y0064375D01*
X0024126Y0064282D01*
X0023996Y0064192D01*
X0023863Y0064106D01*
X0023728Y0064022D01*
X0023592Y0063943D01*
X0023453Y0063866D01*
X0023312Y0063794D01*
X0023170Y0063724D01*
X0023026Y0063659D01*
X0022880Y0063597D01*
X0022733Y0063539D01*
X0022584Y0063484D01*
X0022434Y0063433D01*
X0022283Y0063386D01*
X0022131Y0063343D01*
X0021978Y0063304D01*
X0021823Y0063268D01*
X0021668Y0063237D01*
X0021512Y0063209D01*
X0021356Y0063185D01*
X0021199Y0063165D01*
X0021041Y0063149D01*
X0020884Y0063137D01*
X0020725Y0063129D01*
X0020567Y0063125D01*
X0020409Y0063125D01*
X0020251Y0063129D01*
X0020092Y0063137D01*
X0019935Y0063149D01*
X0019777Y0063165D01*
X0019620Y0063185D01*
X0019464Y0063209D01*
X0019308Y0063237D01*
X0019153Y0063268D01*
X0018998Y0063304D01*
X0018845Y0063343D01*
X0018693Y0063386D01*
X0018542Y0063433D01*
X0018392Y0063484D01*
X0018243Y0063539D01*
X0018096Y0063597D01*
X0017950Y0063659D01*
X0017806Y0063724D01*
X0017664Y0063794D01*
X0017523Y0063866D01*
X0017384Y0063943D01*
X0017248Y0064022D01*
X0017113Y0064106D01*
X0016980Y0064192D01*
X0016850Y0064282D01*
X0016722Y0064375D01*
X0016596Y0064471D01*
X0016473Y0064571D01*
X0016352Y0064673D01*
X0016234Y0064778D01*
X0016119Y0064887D01*
X0016006Y0064998D01*
X0015896Y0065112D01*
X0015789Y0065229D01*
X0015685Y0065348D01*
X0015584Y0065470D01*
X0015487Y0065595D01*
X0015392Y0065722D01*
X0015301Y0065851D01*
X0015212Y0065982D01*
X0015128Y0066116D01*
X0015046Y0066252D01*
X0014968Y0066389D01*
X0014894Y0066529D01*
X0014823Y0066671D01*
X0014755Y0066814D01*
X0014691Y0066959D01*
X0014631Y0067105D01*
X0014575Y0067253D01*
X0014522Y0067402D01*
X0014473Y0067553D01*
X0014428Y0067705D01*
X0014387Y0067858D01*
X0014349Y0068011D01*
X0014316Y0068166D01*
X0014286Y0068322D01*
X0014260Y0068478D01*
X0014239Y0068635D01*
X0014221Y0068792D01*
X0014207Y0068950D01*
X0014197Y0069108D01*
X0014191Y0069266D01*
X0014189Y0069424D01*
X0027988Y0098695D02*
X0027988Y0113695D01*
X0027988Y0175467D02*
X0027988Y0190467D01*
X0014189Y0221924D02*
X0014191Y0222082D01*
X0014197Y0222240D01*
X0014207Y0222398D01*
X0014221Y0222556D01*
X0014239Y0222713D01*
X0014260Y0222870D01*
X0014286Y0223026D01*
X0014316Y0223182D01*
X0014349Y0223337D01*
X0014387Y0223490D01*
X0014428Y0223643D01*
X0014473Y0223795D01*
X0014522Y0223946D01*
X0014575Y0224095D01*
X0014631Y0224243D01*
X0014691Y0224389D01*
X0014755Y0224534D01*
X0014823Y0224677D01*
X0014894Y0224819D01*
X0014968Y0224959D01*
X0015046Y0225096D01*
X0015128Y0225232D01*
X0015212Y0225366D01*
X0015301Y0225497D01*
X0015392Y0225626D01*
X0015487Y0225753D01*
X0015584Y0225878D01*
X0015685Y0226000D01*
X0015789Y0226119D01*
X0015896Y0226236D01*
X0016006Y0226350D01*
X0016119Y0226461D01*
X0016234Y0226570D01*
X0016352Y0226675D01*
X0016473Y0226777D01*
X0016596Y0226877D01*
X0016722Y0226973D01*
X0016850Y0227066D01*
X0016980Y0227156D01*
X0017113Y0227242D01*
X0017248Y0227326D01*
X0017384Y0227405D01*
X0017523Y0227482D01*
X0017664Y0227554D01*
X0017806Y0227624D01*
X0017950Y0227689D01*
X0018096Y0227751D01*
X0018243Y0227809D01*
X0018392Y0227864D01*
X0018542Y0227915D01*
X0018693Y0227962D01*
X0018845Y0228005D01*
X0018998Y0228044D01*
X0019153Y0228080D01*
X0019308Y0228111D01*
X0019464Y0228139D01*
X0019620Y0228163D01*
X0019777Y0228183D01*
X0019935Y0228199D01*
X0020092Y0228211D01*
X0020251Y0228219D01*
X0020409Y0228223D01*
X0020567Y0228223D01*
X0020725Y0228219D01*
X0020884Y0228211D01*
X0021041Y0228199D01*
X0021199Y0228183D01*
X0021356Y0228163D01*
X0021512Y0228139D01*
X0021668Y0228111D01*
X0021823Y0228080D01*
X0021978Y0228044D01*
X0022131Y0228005D01*
X0022283Y0227962D01*
X0022434Y0227915D01*
X0022584Y0227864D01*
X0022733Y0227809D01*
X0022880Y0227751D01*
X0023026Y0227689D01*
X0023170Y0227624D01*
X0023312Y0227554D01*
X0023453Y0227482D01*
X0023592Y0227405D01*
X0023728Y0227326D01*
X0023863Y0227242D01*
X0023996Y0227156D01*
X0024126Y0227066D01*
X0024254Y0226973D01*
X0024380Y0226877D01*
X0024503Y0226777D01*
X0024624Y0226675D01*
X0024742Y0226570D01*
X0024857Y0226461D01*
X0024970Y0226350D01*
X0025080Y0226236D01*
X0025187Y0226119D01*
X0025291Y0226000D01*
X0025392Y0225878D01*
X0025489Y0225753D01*
X0025584Y0225626D01*
X0025675Y0225497D01*
X0025764Y0225366D01*
X0025848Y0225232D01*
X0025930Y0225096D01*
X0026008Y0224959D01*
X0026082Y0224819D01*
X0026153Y0224677D01*
X0026221Y0224534D01*
X0026285Y0224389D01*
X0026345Y0224243D01*
X0026401Y0224095D01*
X0026454Y0223946D01*
X0026503Y0223795D01*
X0026548Y0223643D01*
X0026589Y0223490D01*
X0026627Y0223337D01*
X0026660Y0223182D01*
X0026690Y0223026D01*
X0026716Y0222870D01*
X0026737Y0222713D01*
X0026755Y0222556D01*
X0026769Y0222398D01*
X0026779Y0222240D01*
X0026785Y0222082D01*
X0026787Y0221924D01*
X0026785Y0221766D01*
X0026779Y0221608D01*
X0026769Y0221450D01*
X0026755Y0221292D01*
X0026737Y0221135D01*
X0026716Y0220978D01*
X0026690Y0220822D01*
X0026660Y0220666D01*
X0026627Y0220511D01*
X0026589Y0220358D01*
X0026548Y0220205D01*
X0026503Y0220053D01*
X0026454Y0219902D01*
X0026401Y0219753D01*
X0026345Y0219605D01*
X0026285Y0219459D01*
X0026221Y0219314D01*
X0026153Y0219171D01*
X0026082Y0219029D01*
X0026008Y0218889D01*
X0025930Y0218752D01*
X0025848Y0218616D01*
X0025764Y0218482D01*
X0025675Y0218351D01*
X0025584Y0218222D01*
X0025489Y0218095D01*
X0025392Y0217970D01*
X0025291Y0217848D01*
X0025187Y0217729D01*
X0025080Y0217612D01*
X0024970Y0217498D01*
X0024857Y0217387D01*
X0024742Y0217278D01*
X0024624Y0217173D01*
X0024503Y0217071D01*
X0024380Y0216971D01*
X0024254Y0216875D01*
X0024126Y0216782D01*
X0023996Y0216692D01*
X0023863Y0216606D01*
X0023728Y0216522D01*
X0023592Y0216443D01*
X0023453Y0216366D01*
X0023312Y0216294D01*
X0023170Y0216224D01*
X0023026Y0216159D01*
X0022880Y0216097D01*
X0022733Y0216039D01*
X0022584Y0215984D01*
X0022434Y0215933D01*
X0022283Y0215886D01*
X0022131Y0215843D01*
X0021978Y0215804D01*
X0021823Y0215768D01*
X0021668Y0215737D01*
X0021512Y0215709D01*
X0021356Y0215685D01*
X0021199Y0215665D01*
X0021041Y0215649D01*
X0020884Y0215637D01*
X0020725Y0215629D01*
X0020567Y0215625D01*
X0020409Y0215625D01*
X0020251Y0215629D01*
X0020092Y0215637D01*
X0019935Y0215649D01*
X0019777Y0215665D01*
X0019620Y0215685D01*
X0019464Y0215709D01*
X0019308Y0215737D01*
X0019153Y0215768D01*
X0018998Y0215804D01*
X0018845Y0215843D01*
X0018693Y0215886D01*
X0018542Y0215933D01*
X0018392Y0215984D01*
X0018243Y0216039D01*
X0018096Y0216097D01*
X0017950Y0216159D01*
X0017806Y0216224D01*
X0017664Y0216294D01*
X0017523Y0216366D01*
X0017384Y0216443D01*
X0017248Y0216522D01*
X0017113Y0216606D01*
X0016980Y0216692D01*
X0016850Y0216782D01*
X0016722Y0216875D01*
X0016596Y0216971D01*
X0016473Y0217071D01*
X0016352Y0217173D01*
X0016234Y0217278D01*
X0016119Y0217387D01*
X0016006Y0217498D01*
X0015896Y0217612D01*
X0015789Y0217729D01*
X0015685Y0217848D01*
X0015584Y0217970D01*
X0015487Y0218095D01*
X0015392Y0218222D01*
X0015301Y0218351D01*
X0015212Y0218482D01*
X0015128Y0218616D01*
X0015046Y0218752D01*
X0014968Y0218889D01*
X0014894Y0219029D01*
X0014823Y0219171D01*
X0014755Y0219314D01*
X0014691Y0219459D01*
X0014631Y0219605D01*
X0014575Y0219753D01*
X0014522Y0219902D01*
X0014473Y0220053D01*
X0014428Y0220205D01*
X0014387Y0220358D01*
X0014349Y0220511D01*
X0014316Y0220666D01*
X0014286Y0220822D01*
X0014260Y0220978D01*
X0014239Y0221135D01*
X0014221Y0221292D01*
X0014207Y0221450D01*
X0014197Y0221608D01*
X0014191Y0221766D01*
X0014189Y0221924D01*
X0027988Y0252239D02*
X0027988Y0267239D01*
M02*
