G75*
%MOIN*%
%OFA0B0*%
%FSLAX25Y25*%
%IPPOS*%
%LPD*%
%AMOC8*
5,1,8,0,0,1.08239X$1,22.5*
%
%ADD10C,0.01600*%
%ADD11R,0.05518X0.06699*%
%ADD12C,0.05600*%
%ADD13R,0.06699X0.05518*%
%ADD14R,0.04337X0.05912*%
%ADD15R,0.08400X0.03000*%
%ADD16R,0.05518X0.06306*%
%ADD17R,0.05912X0.04337*%
%ADD18C,0.14243*%
%ADD19C,0.09258*%
%ADD20OC8,0.06600*%
%ADD21C,0.06600*%
%ADD22R,0.06306X0.05518*%
%ADD23C,0.23400*%
%ADD24OC8,0.05600*%
%ADD25C,0.10439*%
%ADD26OC8,0.06400*%
D10*
X0002988Y0006924D02*
X0002988Y0486924D01*
X0002990Y0487063D01*
X0002996Y0487202D01*
X0003006Y0487341D01*
X0003019Y0487479D01*
X0003037Y0487617D01*
X0003058Y0487755D01*
X0003083Y0487892D01*
X0003112Y0488028D01*
X0003145Y0488163D01*
X0003182Y0488297D01*
X0003222Y0488431D01*
X0003266Y0488563D01*
X0003314Y0488693D01*
X0003366Y0488822D01*
X0003421Y0488950D01*
X0003479Y0489076D01*
X0003541Y0489201D01*
X0003607Y0489324D01*
X0003676Y0489445D01*
X0003748Y0489563D01*
X0003824Y0489680D01*
X0003903Y0489795D01*
X0003985Y0489907D01*
X0004070Y0490017D01*
X0004159Y0490125D01*
X0004250Y0490230D01*
X0004344Y0490332D01*
X0004441Y0490432D01*
X0004541Y0490529D01*
X0004643Y0490623D01*
X0004748Y0490714D01*
X0004856Y0490803D01*
X0004966Y0490888D01*
X0005078Y0490970D01*
X0005193Y0491049D01*
X0005310Y0491125D01*
X0005428Y0491197D01*
X0005549Y0491266D01*
X0005672Y0491332D01*
X0005797Y0491394D01*
X0005923Y0491452D01*
X0006051Y0491507D01*
X0006180Y0491559D01*
X0006310Y0491607D01*
X0006442Y0491651D01*
X0006576Y0491691D01*
X0006710Y0491728D01*
X0006845Y0491761D01*
X0006981Y0491790D01*
X0007118Y0491815D01*
X0007256Y0491836D01*
X0007394Y0491854D01*
X0007532Y0491867D01*
X0007671Y0491877D01*
X0007810Y0491883D01*
X0007949Y0491885D01*
X0007949Y0491884D02*
X0125488Y0491884D01*
X0125628Y0491882D01*
X0125768Y0491876D01*
X0125908Y0491866D01*
X0126048Y0491853D01*
X0126187Y0491835D01*
X0126326Y0491813D01*
X0126463Y0491788D01*
X0126601Y0491759D01*
X0126737Y0491726D01*
X0126872Y0491689D01*
X0127006Y0491648D01*
X0127139Y0491603D01*
X0127271Y0491555D01*
X0127401Y0491503D01*
X0127530Y0491448D01*
X0127657Y0491389D01*
X0127783Y0491326D01*
X0127907Y0491260D01*
X0128028Y0491191D01*
X0128148Y0491118D01*
X0128266Y0491041D01*
X0128381Y0490962D01*
X0128495Y0490879D01*
X0128605Y0490793D01*
X0128714Y0490704D01*
X0128820Y0490612D01*
X0128923Y0490517D01*
X0129024Y0490420D01*
X0129121Y0490319D01*
X0129216Y0490216D01*
X0129308Y0490110D01*
X0129397Y0490001D01*
X0129483Y0489891D01*
X0129566Y0489777D01*
X0129645Y0489662D01*
X0129722Y0489544D01*
X0129795Y0489424D01*
X0129864Y0489303D01*
X0129930Y0489179D01*
X0129993Y0489053D01*
X0130052Y0488926D01*
X0130107Y0488797D01*
X0130159Y0488667D01*
X0130207Y0488535D01*
X0130252Y0488402D01*
X0130293Y0488268D01*
X0130330Y0488133D01*
X0130363Y0487997D01*
X0130392Y0487859D01*
X0130417Y0487722D01*
X0130439Y0487583D01*
X0130457Y0487444D01*
X0130470Y0487304D01*
X0130480Y0487164D01*
X0130486Y0487024D01*
X0130488Y0486884D01*
X0130488Y0164424D01*
X0126221Y0155156D02*
X0112256Y0141192D01*
X0110488Y0136924D02*
X0110488Y0006924D01*
X0110486Y0006784D01*
X0110480Y0006644D01*
X0110470Y0006504D01*
X0110457Y0006364D01*
X0110439Y0006225D01*
X0110417Y0006086D01*
X0110392Y0005949D01*
X0110363Y0005811D01*
X0110330Y0005675D01*
X0110293Y0005540D01*
X0110252Y0005406D01*
X0110207Y0005273D01*
X0110159Y0005141D01*
X0110107Y0005011D01*
X0110052Y0004882D01*
X0109993Y0004755D01*
X0109930Y0004629D01*
X0109864Y0004505D01*
X0109795Y0004384D01*
X0109722Y0004264D01*
X0109645Y0004146D01*
X0109566Y0004031D01*
X0109483Y0003917D01*
X0109397Y0003807D01*
X0109308Y0003698D01*
X0109216Y0003592D01*
X0109121Y0003489D01*
X0109024Y0003388D01*
X0108923Y0003291D01*
X0108820Y0003196D01*
X0108714Y0003104D01*
X0108605Y0003015D01*
X0108495Y0002929D01*
X0108381Y0002846D01*
X0108266Y0002767D01*
X0108148Y0002690D01*
X0108028Y0002617D01*
X0107907Y0002548D01*
X0107783Y0002482D01*
X0107657Y0002419D01*
X0107530Y0002360D01*
X0107401Y0002305D01*
X0107271Y0002253D01*
X0107139Y0002205D01*
X0107006Y0002160D01*
X0106872Y0002119D01*
X0106737Y0002082D01*
X0106601Y0002049D01*
X0106463Y0002020D01*
X0106326Y0001995D01*
X0106187Y0001973D01*
X0106048Y0001955D01*
X0105908Y0001942D01*
X0105768Y0001932D01*
X0105628Y0001926D01*
X0105488Y0001924D01*
X0010488Y0001924D01*
X0010332Y0001895D01*
X0010175Y0001869D01*
X0010017Y0001848D01*
X0009860Y0001830D01*
X0009701Y0001817D01*
X0009543Y0001807D01*
X0009384Y0001802D01*
X0009225Y0001800D01*
X0009066Y0001802D01*
X0008907Y0001809D01*
X0008749Y0001819D01*
X0008590Y0001833D01*
X0008432Y0001851D01*
X0008275Y0001873D01*
X0008118Y0001899D01*
X0007962Y0001929D01*
X0007807Y0001963D01*
X0007652Y0002000D01*
X0007499Y0002042D01*
X0007347Y0002087D01*
X0007195Y0002136D01*
X0007046Y0002189D01*
X0006897Y0002245D01*
X0006750Y0002306D01*
X0006604Y0002370D01*
X0006461Y0002437D01*
X0006318Y0002508D01*
X0006178Y0002583D01*
X0006040Y0002661D01*
X0005903Y0002742D01*
X0005769Y0002827D01*
X0005637Y0002915D01*
X0005507Y0003006D01*
X0005379Y0003101D01*
X0005254Y0003199D01*
X0005131Y0003300D01*
X0005011Y0003404D01*
X0004893Y0003511D01*
X0004778Y0003620D01*
X0004666Y0003733D01*
X0004557Y0003848D01*
X0004450Y0003966D01*
X0004347Y0004087D01*
X0004246Y0004210D01*
X0004149Y0004336D01*
X0004055Y0004464D01*
X0003964Y0004594D01*
X0003877Y0004727D01*
X0003792Y0004862D01*
X0003711Y0004998D01*
X0003634Y0005137D01*
X0003560Y0005278D01*
X0003490Y0005420D01*
X0003423Y0005564D01*
X0003359Y0005710D01*
X0003300Y0005858D01*
X0003244Y0006006D01*
X0003192Y0006156D01*
X0003143Y0006308D01*
X0003099Y0006460D01*
X0003058Y0006614D01*
X0003021Y0006769D01*
X0002988Y0006924D01*
X0110488Y0136924D02*
X0110490Y0137077D01*
X0110496Y0137230D01*
X0110505Y0137382D01*
X0110519Y0137535D01*
X0110536Y0137687D01*
X0110558Y0137838D01*
X0110583Y0137989D01*
X0110612Y0138139D01*
X0110644Y0138288D01*
X0110681Y0138437D01*
X0110721Y0138584D01*
X0110765Y0138731D01*
X0110812Y0138876D01*
X0110864Y0139020D01*
X0110919Y0139163D01*
X0110977Y0139304D01*
X0111039Y0139444D01*
X0111105Y0139582D01*
X0111174Y0139719D01*
X0111246Y0139853D01*
X0111322Y0139986D01*
X0111402Y0140117D01*
X0111484Y0140246D01*
X0111570Y0140372D01*
X0111659Y0140497D01*
X0111751Y0140619D01*
X0111846Y0140738D01*
X0111944Y0140856D01*
X0112045Y0140970D01*
X0112149Y0141083D01*
X0112256Y0141192D01*
X0126220Y0155157D02*
X0126451Y0155375D01*
X0126676Y0155598D01*
X0126895Y0155827D01*
X0127109Y0156061D01*
X0127318Y0156301D01*
X0127521Y0156545D01*
X0127718Y0156793D01*
X0127909Y0157047D01*
X0128093Y0157305D01*
X0128272Y0157567D01*
X0128444Y0157833D01*
X0128610Y0158104D01*
X0128770Y0158378D01*
X0128923Y0158656D01*
X0129069Y0158937D01*
X0129209Y0159222D01*
X0129341Y0159510D01*
X0129467Y0159802D01*
X0129586Y0160096D01*
X0129698Y0160393D01*
X0129802Y0160692D01*
X0129900Y0160994D01*
X0129990Y0161298D01*
X0130073Y0161605D01*
X0130149Y0161913D01*
X0130218Y0162222D01*
X0130279Y0162534D01*
X0130332Y0162846D01*
X0130378Y0163160D01*
X0130417Y0163475D01*
X0130448Y0163791D01*
X0130472Y0164107D01*
X0130488Y0164424D01*
D11*
X0091728Y0194424D03*
X0091728Y0204424D03*
X0084248Y0204424D03*
X0084248Y0194424D03*
X0071728Y0216924D03*
X0064248Y0216924D03*
X0084248Y0271924D03*
X0084248Y0281924D03*
X0091728Y0281924D03*
X0091728Y0271924D03*
X0089228Y0321924D03*
X0081748Y0321924D03*
X0071728Y0294424D03*
X0064248Y0294424D03*
X0074248Y0374424D03*
X0081728Y0374424D03*
X0094248Y0424424D03*
X0094248Y0436924D03*
X0101728Y0436924D03*
X0101728Y0424424D03*
X0026728Y0436924D03*
X0019248Y0436924D03*
X0016748Y0319424D03*
X0024228Y0319424D03*
X0064248Y0139424D03*
X0071728Y0139424D03*
X0084248Y0126924D03*
X0084248Y0116924D03*
X0091728Y0116924D03*
X0091728Y0126924D03*
X0071728Y0061924D03*
X0064248Y0061924D03*
X0084248Y0049424D03*
X0084248Y0039424D03*
X0091728Y0039424D03*
X0091728Y0049424D03*
D12*
X0025488Y0344324D02*
X0025488Y0349524D01*
X0017988Y0349524D02*
X0017988Y0344324D01*
X0017988Y0374324D02*
X0017988Y0379524D01*
X0017988Y0386824D02*
X0017988Y0392024D01*
X0025488Y0392024D02*
X0025488Y0386824D01*
X0025488Y0379524D02*
X0025488Y0374324D01*
X0025488Y0416824D02*
X0025488Y0422024D01*
X0017988Y0422024D02*
X0017988Y0416824D01*
X0052888Y0444424D02*
X0058088Y0444424D01*
X0082888Y0444424D02*
X0088088Y0444424D01*
D13*
X0025488Y0338164D03*
X0025488Y0330684D03*
X0012988Y0330684D03*
X0012988Y0338164D03*
D14*
X0039248Y0375093D03*
X0042988Y0383754D03*
X0046728Y0375093D03*
X0056748Y0375093D03*
X0060488Y0383754D03*
X0064228Y0375093D03*
X0082988Y0427593D03*
X0079248Y0436254D03*
X0086728Y0436254D03*
D15*
X0088388Y0416924D03*
X0088388Y0411924D03*
X0088388Y0406924D03*
X0088388Y0401924D03*
X0088388Y0396924D03*
X0088388Y0391924D03*
X0088388Y0386924D03*
X0088388Y0361924D03*
X0088388Y0356924D03*
X0088388Y0351924D03*
X0088388Y0346924D03*
X0088388Y0341924D03*
X0088388Y0336924D03*
X0088388Y0331924D03*
X0112588Y0331924D03*
X0112588Y0336924D03*
X0112588Y0341924D03*
X0112588Y0346924D03*
X0112588Y0351924D03*
X0112588Y0356924D03*
X0112588Y0361924D03*
X0112588Y0386924D03*
X0112588Y0391924D03*
X0112588Y0396924D03*
X0112588Y0401924D03*
X0112588Y0406924D03*
X0112588Y0411924D03*
X0112588Y0416924D03*
D16*
X0114248Y0424424D03*
X0121728Y0424424D03*
X0026728Y0429424D03*
X0019248Y0429424D03*
D17*
X0091158Y0303164D03*
X0091158Y0295684D03*
X0099819Y0299424D03*
X0091158Y0225664D03*
X0091158Y0218184D03*
X0099819Y0221924D03*
X0091158Y0148164D03*
X0091158Y0140684D03*
X0099819Y0144424D03*
X0091158Y0070664D03*
X0091158Y0063184D03*
X0099819Y0066924D03*
D18*
X0055488Y0050684D03*
X0055488Y0016432D03*
X0036984Y0027062D03*
X0055488Y0093203D03*
X0055488Y0127455D03*
X0055488Y0169975D03*
X0055488Y0204227D03*
X0055488Y0246747D03*
X0055488Y0280999D03*
X0055488Y0323518D03*
X0055488Y0357770D03*
X0055488Y0400290D03*
X0055488Y0434542D03*
X0036984Y0410920D03*
X0036984Y0334148D03*
X0036984Y0257377D03*
X0036984Y0180605D03*
X0036984Y0103833D03*
D19*
X0073992Y0103833D03*
X0073992Y0027062D03*
X0073992Y0180605D03*
X0073992Y0257377D03*
X0073992Y0334148D03*
X0073992Y0410920D03*
D20*
X0120488Y0441924D03*
D21*
X0110488Y0441924D03*
D22*
X0112988Y0375664D03*
X0112988Y0368184D03*
D23*
X0020488Y0221924D03*
X0020488Y0069424D03*
D24*
X0022988Y0106195D03*
X0012988Y0106195D03*
X0012988Y0182967D03*
X0022988Y0182967D03*
X0022988Y0259739D03*
X0012988Y0259739D03*
X0012988Y0029424D03*
X0022988Y0029424D03*
D25*
X0017969Y0291628D02*
X0028008Y0291628D01*
X0028008Y0307219D02*
X0017969Y0307219D01*
X0017969Y0451333D02*
X0028008Y0451333D01*
X0028008Y0466924D02*
X0017969Y0466924D01*
X0017969Y0482514D02*
X0028008Y0482514D01*
D26*
X0062988Y0476924D03*
X0062988Y0466924D03*
X0072988Y0466924D03*
X0072988Y0476924D03*
X0082988Y0476924D03*
X0082988Y0466924D03*
X0092988Y0466924D03*
X0092988Y0476924D03*
X0102988Y0476924D03*
X0102988Y0466924D03*
M02*
